<svg width="196" height="134" viewBox="0 0 196 134" fill="none" xmlns="http://www.w3.org/2000/svg">
<path d="M195.927 98.8297C195.927 99.3173 195.927 99.9791 195.927 100.815C195.997 101.651 195.927 103.288 195.718 105.726C195.579 108.164 195.3 110.498 194.882 112.727C194.464 114.887 193.698 117.325 192.583 120.042C191.469 122.758 190.11 125.092 188.508 127.043C186.906 128.924 184.711 130.526 181.925 131.849C179.138 133.173 175.969 133.835 172.416 133.835C170.048 133.835 167.888 133.591 165.938 133.103C163.987 132.616 161.932 131.64 159.772 130.177C157.683 128.645 155.871 126.659 154.339 124.221C152.876 121.714 151.622 118.3 150.577 113.981C149.602 109.662 149.045 104.612 148.905 98.8297C148.905 97.3668 148.94 95.7994 149.01 94.1275C149.079 92.4556 149.288 90.2961 149.637 87.649C149.985 85.0018 150.438 82.494 150.995 80.1255C151.622 77.757 152.528 75.3189 153.712 72.8111C154.896 70.3032 156.289 68.1786 157.892 66.437C159.494 64.6258 161.549 63.2326 164.057 62.2573C166.564 61.2124 169.386 60.7944 172.521 61.0034C174.053 61.0731 175.412 61.2472 176.596 61.5259C177.78 61.7349 179.138 62.1877 180.671 62.8843C182.273 63.5112 183.632 64.3472 184.746 65.3921C185.93 66.437 187.15 67.9347 188.403 69.8853C189.727 71.7661 190.842 73.9953 191.747 76.5728C192.653 79.0806 193.454 82.2502 194.15 86.0816C194.917 89.8433 195.509 94.0927 195.927 98.8297ZM181.193 98.6207C181.263 97.2971 181.193 95.8691 180.984 94.3365C180.845 92.8039 180.497 91.1669 179.94 89.4254C179.452 87.6838 178.511 86.2558 177.118 85.1412C175.795 83.9569 174.123 83.3648 172.103 83.3648C170.849 83.3648 169.734 83.6434 168.759 84.2007C167.784 84.758 166.982 85.4895 166.356 86.3951C165.798 87.231 165.311 88.1714 164.893 89.2164C164.475 90.2613 164.196 91.3062 164.057 92.3511C163.917 93.3961 163.778 94.3713 163.639 95.2769C163.569 96.1129 163.569 96.8095 163.639 97.3668V98.0982C163.639 98.4465 163.639 98.9342 163.639 99.5611C163.639 100.188 163.778 101.268 164.057 102.8C164.335 104.263 164.718 105.587 165.206 106.771C165.763 107.955 166.634 109.035 167.818 110.01C169.003 110.916 170.431 111.369 172.103 111.369C177.536 111.369 180.566 107.119 181.193 98.6207Z" fill="#4497C3"/>
<path d="M99.5283 121.714C99.2497 121.087 99.1104 120.286 99.1104 119.31C99.1104 118.265 99.2148 117.186 99.4238 116.071C99.7025 114.957 100.26 114.016 101.096 113.25C102.001 112.414 103.116 111.996 104.439 111.996C105.833 111.926 106.982 112.17 107.888 112.727C108.793 113.285 109.385 113.912 109.664 114.608C110.012 115.235 110.361 116.071 110.709 117.116C111.057 118.091 111.336 118.753 111.545 119.101C113.356 122.097 116.108 123.49 119.8 123.281C123.562 123.002 126.313 121.365 128.055 118.37C128.821 117.186 129.169 116.001 129.1 114.817C129.1 113.633 128.856 112.658 128.368 111.891C127.881 111.055 127.184 110.289 126.278 109.593C125.442 108.826 124.641 108.234 123.875 107.816C123.178 107.398 122.447 107.015 121.681 106.667C121.402 106.597 120.984 106.423 120.427 106.144C118.267 105.239 116.595 104.507 115.411 103.95C114.227 103.323 112.625 102.348 110.605 101.024C108.654 99.7006 107.087 98.3771 105.902 97.0535C104.718 95.6603 103.534 93.8142 102.35 91.5154C101.235 89.2166 100.399 86.6739 99.8418 83.8874C99.0059 79.9167 99.0407 76.1898 99.9463 72.7068C100.852 69.2237 102.35 66.3327 104.439 64.0339C106.529 61.735 109.142 60.0632 112.276 59.0182C115.411 57.9037 118.755 57.6598 122.308 58.2868C125.651 58.9138 128.717 60.1328 131.503 61.944C134.359 63.6856 136.553 65.6709 138.086 67.9001C139.688 70.1293 140.872 72.3584 141.639 74.5876C142.475 76.7471 142.858 78.628 142.788 80.2302C142.51 83.2953 141.43 85.5245 139.549 86.9177C137.668 88.2413 135.543 88.3806 133.175 87.3357C132.339 86.9874 131.642 86.5346 131.085 85.9773C130.528 85.42 130.075 84.7582 129.727 83.9919C129.378 83.2257 129.1 82.529 128.891 81.9021C128.682 81.2055 128.438 80.3347 128.159 79.2898C127.881 78.2449 127.602 77.4089 127.323 76.782C126.836 75.3191 125.686 74.309 123.875 73.7517C122.134 73.1944 120.357 73.4382 118.546 74.4831C116.804 75.4584 115.759 77.1999 115.411 79.7077C115.133 81.6583 115.342 83.5043 116.038 85.2458C116.804 86.9874 117.989 88.5896 119.591 90.0525C121.193 91.5154 122.691 92.7693 124.084 93.8142C125.547 94.7895 127.254 95.8344 129.204 96.949C129.97 97.367 131.259 97.9939 133.07 98.8299C134.951 99.6658 136.344 100.397 137.25 101.024C138.225 101.651 139.34 102.522 140.594 103.637C141.917 104.751 142.928 106.144 143.624 107.816C144.321 109.418 144.808 111.334 145.087 113.563C145.853 119.276 143.729 124.082 138.713 127.983C133.767 131.815 127.358 133.765 119.486 133.835C116.282 133.835 113.461 133.521 111.022 132.894C108.584 132.198 106.599 131.188 105.066 129.864C103.604 128.541 102.454 127.287 101.618 126.102C100.852 124.848 100.155 123.386 99.5283 121.714Z" fill="#5BC7AA"/>
<path d="M79.5576 102.905L95.4404 122.237C96.1371 123.072 96.4157 124.013 96.2764 125.058C96.2067 126.103 95.7539 126.939 94.918 127.566C94.5 127.914 93.9079 128.402 93.1416 129.029C92.3753 129.656 91.7136 130.178 91.1563 130.596C90.6686 131.014 90.2507 131.293 89.9023 131.432C88.4395 132.198 87.0114 132.233 85.6182 131.536C84.2249 130.84 83.0058 129.865 81.9609 128.611C80.1497 126.312 76.3532 121.052 70.5712 112.832C70.0836 112.066 69.387 111.822 68.4814 112.101C67.6455 112.379 67.2275 113.006 67.2275 113.982C67.2275 118.092 67.1927 123.281 67.123 129.551C67.123 130.735 66.705 131.745 65.8691 132.581C65.0331 133.417 64.0231 133.835 62.8388 133.835H58.4501C57.4052 133.835 56.4648 133.487 55.6288 132.79C54.8626 132.024 54.4446 131.084 54.3749 129.969C53.6086 119.589 53.2603 98.7954 53.33 67.587C53.33 65.6365 54.0266 63.9994 55.4198 62.6759C56.8827 61.2826 58.5894 60.6209 60.54 60.6905C69.4567 60.8995 76.8756 62.6759 82.7969 66.0196C88.7878 69.2937 91.7832 73.2644 91.7832 77.9318C91.7832 80.3699 91.3304 82.8429 90.4248 85.3507C89.5889 87.8586 88.4395 90.1226 86.9766 92.1427C85.5833 94.0933 84.3294 95.6955 83.2148 96.9494C82.1002 98.1336 80.9857 99.2482 79.8711 100.293C78.9655 101.059 78.861 101.93 79.5576 102.905ZM75.0644 87.2316C76.4577 86.535 77.0846 85.4204 76.9453 83.8878C76.8756 82.2856 76.1093 81.2059 74.6465 80.6486L73.0791 80.1261C71.8252 79.6385 70.5712 79.2205 69.3173 78.8722C68.2028 78.5239 67.1578 78.6632 66.1826 79.2902C65.277 79.9171 64.7545 80.7879 64.6152 81.9025C64.5455 82.5294 64.5107 83.1912 64.5107 83.8878C64.441 84.8631 64.4759 85.8035 64.6152 86.7091C64.6848 87.8934 65.2421 88.799 66.2871 89.4259C67.332 90.0529 68.4117 90.1574 69.5263 89.7394C70.7802 89.2518 72.0341 88.7293 73.2881 88.172C73.915 87.8934 74.5071 87.5799 75.0644 87.2316Z" fill="#F5BF42"/>
<path d="M6.41994 61.0039H8.92775C10.53 61.0039 11.8535 61.596 12.8985 62.7802C14.0131 63.8948 14.5007 65.2532 14.3614 66.8554C11.7142 99.4571 14.2917 115.897 22.0938 116.176C24.0443 116.455 25.7162 115.793 27.1094 114.191C28.5723 112.588 29.6521 110.289 30.3487 107.294C31.115 104.229 31.6723 100.99 32.0206 97.5762C32.4386 94.1628 32.6475 90.4011 32.6475 86.291C32.6475 82.1113 32.5779 78.5237 32.4385 75.5283C32.3689 72.5329 32.2296 69.5374 32.0206 66.542C31.8813 64.9397 32.3689 63.5465 33.4835 62.3623C34.6677 61.178 36.061 60.6207 37.6632 60.6904C38.6384 60.76 39.3699 60.7949 39.8575 60.7949C41.3204 60.8645 42.5395 61.4218 43.5147 62.4667C44.5597 63.442 45.117 64.6611 45.1866 66.124C45.2563 69.8857 45.2911 75.3541 45.2911 82.5293C45.3608 89.7044 45.3956 94.7549 45.3956 97.6807C45.6046 108.13 45.6394 118.614 45.5001 129.133C45.5001 130.387 45.0125 131.501 44.0372 132.477C43.1316 133.382 42.017 133.835 40.6935 133.835H36.3048C34.9812 133.835 33.8318 133.382 32.8565 132.477C31.9509 131.501 31.4981 130.352 31.4981 129.028V124.326C31.4981 123.908 31.324 123.664 30.9757 123.595C30.6273 123.525 30.3835 123.63 30.2442 123.908C29.4779 125.162 28.642 126.346 27.7364 127.461C26.9004 128.506 25.7859 129.586 24.3926 130.7C22.9994 131.815 21.2927 132.616 19.2725 133.104C17.322 133.591 15.267 133.661 13.1075 133.313C11.5749 133.034 10.1817 132.512 8.92775 131.745C7.74351 130.979 6.69858 130.004 5.79298 128.819C4.95704 127.635 4.22559 126.416 3.59864 125.162C2.97169 123.908 2.44922 122.445 2.03125 120.774C1.68295 119.102 1.36947 117.604 1.09082 116.28C0.881837 114.957 0.707683 113.459 0.56836 111.787C0.498698 110.046 0.429036 108.722 0.359375 107.816C0.359375 106.841 0.359375 105.727 0.359375 104.473C0.429036 103.149 0.463867 102.453 0.463867 102.383C0.254882 89.9134 0.429036 77.8271 0.986329 66.124C1.05599 64.6611 1.61328 63.442 2.65821 62.4667C3.70313 61.4915 4.95704 61.0039 6.41994 61.0039Z" fill="#F9746E"/>
<path d="M182.311 13.7869C189.742 13.4926 193.457 19.9851 193.457 33.2644C193.457 35.8761 193.108 38.2303 192.409 40.327C191.71 42.4238 190.809 44.0607 189.705 45.2378C188.601 46.4149 187.461 47.3161 186.284 47.9415C185.107 48.53 183.967 48.8243 182.863 48.8243C182.201 48.8243 181.576 48.7875 180.987 48.7139C180.398 48.6036 179.736 48.4197 179.001 48.1622C178.265 47.8679 177.584 47.4817 176.959 47.0035C176.371 46.4885 175.764 45.7896 175.138 44.9067C174.55 44.0239 174.035 42.9939 173.593 41.8168C173.189 40.6029 172.839 39.1132 172.545 37.3475C172.287 35.545 172.14 33.5219 172.104 31.278C172.104 31.0573 172.122 30.7446 172.159 30.34C172.195 29.8986 172.287 29.0893 172.435 27.9122C172.582 26.7351 172.784 25.5948 173.042 24.4912C173.299 23.3877 173.685 22.1738 174.2 20.8496C174.752 19.5253 175.359 18.385 176.021 17.4286C176.72 16.4354 177.603 15.5894 178.67 14.8905C179.773 14.1915 180.987 13.8237 182.311 13.7869ZM187.056 31.8298C187.204 29.7331 187.001 27.7835 186.45 25.981C185.898 24.1418 184.978 23.075 183.691 22.7808C182.881 22.6336 182.146 22.7072 181.484 23.0015C180.858 23.2957 180.362 23.7923 179.994 24.4912C179.663 25.1534 179.368 25.8155 179.111 26.4776C178.89 27.1397 178.725 27.8938 178.614 28.7399C178.541 29.5859 178.486 30.1745 178.449 30.5055C178.449 30.7998 178.449 31.0941 178.449 31.3884C178.449 32.1976 178.486 32.9885 178.559 33.761C178.633 34.4967 178.78 35.3795 179.001 36.4095C179.258 37.4394 179.663 38.2671 180.215 38.8924C180.803 39.5178 181.52 39.8488 182.366 39.8856C183.249 39.8856 183.985 39.6833 184.574 39.2787C185.199 38.8741 185.659 38.2671 185.953 37.4578C186.284 36.6118 186.523 35.7657 186.67 34.9197C186.854 34.0737 186.983 33.0437 187.056 31.8298Z" fill="black"/>
<path d="M168.574 12.6282C170.413 36.2071 168.831 48.3277 163.829 48.9898C160.996 49.3944 158.237 49.137 155.552 48.2173C152.867 47.2609 150.678 45.8999 148.986 44.1342C147.294 42.3686 146.338 40.4926 146.117 38.5062C145.859 36.5198 146.062 34.699 146.724 33.0437C147.386 31.3516 148.269 29.9721 149.372 28.9054C150.513 27.8386 151.855 26.9006 153.4 26.0914C154.945 25.2453 156.325 24.62 157.539 24.2153C158.789 23.8107 160.022 23.498 161.235 23.2773C161.419 23.2406 161.511 23.1486 161.511 23.0015L161.953 13.0144C161.953 12.3523 162.192 11.7821 162.67 11.3039C163.185 10.8257 163.774 10.5866 164.436 10.5866H166.312C166.9 10.5498 167.397 10.7338 167.801 11.1384C168.243 11.543 168.5 12.0396 168.574 12.6282ZM160.573 37.7889C160.61 37.1635 160.61 36.5198 160.573 35.8577C160.573 35.4163 160.537 34.9749 160.463 34.5334C160.389 33.8713 160.058 33.3747 159.47 33.0437C158.918 32.6758 158.329 32.6206 157.704 32.8781C157.005 33.1724 156.343 33.4851 155.718 33.8161C155.203 34.0736 154.688 34.3679 154.173 34.699C153.511 35.1036 153.18 35.6922 153.18 36.4646C153.216 37.2371 153.566 37.8073 154.228 38.1751C154.78 38.4694 155.331 38.7269 155.883 38.9476C156.619 39.2419 157.355 39.481 158.09 39.6649C158.716 39.812 159.267 39.7017 159.746 39.3338C160.261 38.9292 160.537 38.4142 160.573 37.7889Z" fill="black"/>
<path d="M138.865 49.841C139.008 50.4108 138.889 50.9093 138.509 51.3367C138.129 51.764 137.655 51.9776 137.085 51.9776H131.245C130.817 51.9776 130.438 51.8352 130.105 51.5503C129.773 51.2654 129.559 50.9093 129.464 50.482C129.227 49.2 128.918 47.9181 128.538 46.6361C128.206 45.6865 127.85 44.7606 127.47 43.8585C127.185 43.2413 126.71 42.8852 126.046 42.7902C124.574 42.5528 123.078 42.4341 121.559 42.4341C120.134 42.4816 118.71 42.6003 117.285 42.7902C116.716 42.8852 116.288 43.1938 116.004 43.7161C115.339 44.8081 114.817 45.9714 114.437 47.2059C114.057 48.2979 113.772 49.39 113.582 50.482C113.487 50.9093 113.273 51.2654 112.941 51.5503C112.609 51.8352 112.229 51.9776 111.802 51.9776H106.175C105.605 51.9776 105.131 51.7877 104.751 51.4079C104.418 50.9806 104.276 50.482 104.323 49.9122C106.128 36.5228 109.404 21.7564 114.152 5.61306C114.437 4.61597 114.983 3.83255 115.79 3.26278C116.597 2.64554 117.499 2.33691 118.496 2.33691H124.479C125.476 2.33691 126.378 2.6218 127.185 3.19156C127.992 3.76132 128.538 4.52101 128.823 5.47062C131.862 14.7768 135.209 29.5669 138.865 49.841ZM124.835 32.1783C125.5 32.0834 126.022 31.7747 126.402 31.2525C126.782 30.6827 126.9 30.0655 126.758 29.4007C126.568 28.4511 126.283 27.3353 125.903 26.0534C125.143 23.5369 124.265 21.6852 123.268 20.4982C122.841 19.9759 122.295 19.7147 121.63 19.7147C120.965 19.6673 120.395 19.8809 119.921 20.3557C118.021 22.16 116.834 25.2225 116.36 29.5432C116.312 30.1604 116.455 30.7302 116.787 31.2525C117.167 31.7273 117.665 32.0359 118.283 32.1783C119.09 32.3208 119.921 32.4157 120.775 32.4632C122.152 32.5107 123.505 32.4157 124.835 32.1783Z" fill="black"/>
<path d="M71.5954 43.9294C71.4055 43.5021 71.3105 42.9561 71.3105 42.2913C71.3105 41.5791 71.3818 40.8432 71.5242 40.0835C71.7141 39.3238 72.094 38.6828 72.6637 38.1605C73.281 37.5908 74.0407 37.3059 74.9428 37.3059C75.8924 37.2584 76.6758 37.4246 77.2931 37.8044C77.9103 38.1843 78.3139 38.6116 78.5038 39.0864C78.7412 39.5137 78.9786 40.0835 79.216 40.7957C79.4534 41.4604 79.6434 41.9115 79.7858 42.1489C81.0203 44.1905 82.8958 45.1402 85.4122 44.9977C87.9762 44.8078 89.8516 43.692 91.0386 41.6503C91.5609 40.8432 91.7983 40.036 91.7508 39.2288C91.7508 38.4217 91.5847 37.757 91.2523 37.2347C90.9199 36.6649 90.4451 36.1426 89.8279 35.6678C89.2581 35.1455 88.7121 34.742 88.1898 34.4571C87.715 34.1722 87.2165 33.911 86.6942 33.6736C86.5043 33.6262 86.2194 33.5075 85.8395 33.3175C84.3676 32.7003 83.2281 32.2018 82.421 31.8219C81.6138 31.3946 80.5217 30.7299 79.1448 29.8277C77.8154 28.9256 76.7471 28.0235 75.9399 27.1214C75.1327 26.1717 74.3256 24.9135 73.5184 23.3467C72.7587 21.7798 72.1889 20.0468 71.8091 18.1476C71.2393 15.4412 71.2631 12.901 71.8803 10.527C72.4976 8.15295 73.5184 6.18251 74.9428 4.61566C76.3672 3.04881 78.1477 1.90928 80.2843 1.19707C82.421 0.437387 84.7 0.271204 87.1215 0.698528C89.4006 1.12585 91.4897 1.95676 93.3889 3.19125C95.3356 4.37826 96.8312 5.73145 97.8758 7.25082C98.9679 8.77019 99.775 10.2896 100.297 11.8089C100.867 13.2808 101.128 14.5628 101.081 15.6548C100.891 17.744 100.155 19.2634 98.8729 20.213C97.5909 21.1151 96.1428 21.21 94.5284 20.4978C93.9587 20.2604 93.4839 19.9518 93.104 19.572C92.7242 19.1921 92.4156 18.7411 92.1782 18.2188C91.9408 17.6965 91.7508 17.2217 91.6084 16.7944C91.466 16.3196 91.2998 15.7261 91.1099 15.0139C90.9199 14.3017 90.73 13.7319 90.5401 13.3046C90.2077 12.3075 89.4243 11.619 88.1898 11.2392C87.0028 10.8593 85.7921 11.0255 84.5576 11.7377C83.3706 12.4024 82.6584 13.5894 82.421 15.2987C82.231 16.6282 82.3735 17.8864 82.8483 19.0734C83.3706 20.2604 84.1777 21.3525 85.2698 22.3496C86.3618 23.3467 87.3827 24.2013 88.3323 24.9135C89.3293 25.5782 90.4926 26.2904 91.8221 27.0501C92.3444 27.335 93.2227 27.7623 94.4572 28.3321C95.7392 28.9019 96.6888 29.4004 97.306 29.8277C97.9708 30.2551 98.7305 30.8486 99.5851 31.6082C100.487 32.3679 101.176 33.3175 101.651 34.4571C102.125 35.5491 102.458 36.8548 102.648 38.3742C103.17 42.2676 101.722 45.5437 98.3031 48.2026C94.932 50.8141 90.5638 52.1435 85.1986 52.191C83.0145 52.191 81.0915 51.9773 79.4297 51.55C77.7679 51.0752 76.4147 50.3867 75.3701 49.4846C74.373 48.5825 73.5896 47.7278 73.0198 46.9207C72.4976 46.066 72.0228 45.0689 71.5954 43.9294Z" fill="black"/>
<path d="M69.3839 49.841C69.5263 50.4108 69.4076 50.9093 69.0278 51.3367C68.6479 51.764 68.1731 51.9776 67.6034 51.9776H61.7633C61.336 51.9776 60.9561 51.8352 60.6237 51.5503C60.2914 51.2654 60.0777 50.9093 59.9828 50.482C59.7454 49.2 59.4367 47.9181 59.0569 46.6361C58.7245 45.6865 58.3684 44.7606 57.9886 43.8585C57.7037 43.2413 57.2289 42.8852 56.5642 42.7902C55.0923 42.5528 53.5967 42.4341 52.0773 42.4341C50.6529 42.4816 49.2285 42.6003 47.8041 42.7902C47.2343 42.8852 46.807 43.1938 46.5221 43.7161C45.8574 44.8081 45.3351 45.9714 44.9552 47.2059C44.5754 48.2979 44.2905 49.39 44.1006 50.482C44.0056 50.9093 43.792 51.2654 43.4596 51.5503C43.1272 51.8352 42.7474 51.9776 42.3201 51.9776H36.6936C36.1239 51.9776 35.6491 51.7877 35.2692 51.4079C34.9369 50.9806 34.7944 50.482 34.8419 49.9122C36.6462 36.5228 39.9223 21.7564 44.6703 5.61306C44.9552 4.61597 45.5013 3.83255 46.3084 3.26278C47.1156 2.64554 48.0177 2.33691 49.0148 2.33691H54.9973C55.9944 2.33691 56.8965 2.6218 57.7037 3.19156C58.5109 3.76132 59.0569 4.52101 59.3418 5.47062C62.3805 14.7768 65.7279 29.5669 69.3839 49.841ZM55.3534 32.1783C56.0182 32.0834 56.5404 31.7747 56.9203 31.2525C57.3001 30.6827 57.4188 30.0655 57.2764 29.4007C57.0865 28.4511 56.8016 27.3353 56.4217 26.0534C55.662 23.5369 54.7837 21.6852 53.7866 20.4982C53.3593 19.9759 52.8132 19.7147 52.1485 19.7147C51.4838 19.6673 50.914 19.8809 50.4392 20.3557C48.54 22.16 47.353 25.2225 46.8782 29.5432C46.8307 30.1604 46.9731 30.7302 47.3055 31.2525C47.6853 31.7273 48.1839 32.0359 48.8011 32.1783C49.6083 32.3208 50.4392 32.4157 51.2939 32.4632C52.6708 32.5107 54.024 32.4157 55.3534 32.1783Z" fill="black"/>
<path d="M28.1354 14.9427C27.9455 14.8478 27.7081 14.7528 27.4232 14.6578C27.1383 14.5154 26.5685 14.3255 25.7139 14.0881C24.8592 13.8032 24.0046 13.6133 23.15 13.5183C22.3428 13.3759 21.3694 13.3521 20.2299 13.4471C19.1379 13.5421 18.0933 13.8032 17.0962 14.2305C16.1466 14.6104 15.1732 15.2751 14.1762 16.2247C13.2266 17.1268 12.3956 18.2901 11.6834 19.7145C10.5439 22.1835 9.87919 24.6525 9.68927 27.1214C9.54683 29.5429 9.78423 31.6558 10.4015 33.4601C11.0662 35.2643 11.8259 36.8074 12.6805 38.0894C13.5827 39.3714 14.5323 40.321 15.5294 40.9382C19.1379 43.3597 23.0075 42.9561 27.1383 39.7275C27.4707 39.4901 27.9217 39.3002 28.4915 39.1577C29.1087 38.9678 29.7497 38.8728 30.4144 38.8728C31.1266 38.8728 31.7676 39.1102 32.3374 39.585C32.9072 40.0598 33.2633 40.772 33.4057 41.7217C33.8805 44.2856 32.6698 46.6359 29.7735 48.7725C26.8772 50.9091 23.15 51.9774 18.5918 51.9774C16.2178 51.9774 13.9388 51.4076 11.7547 50.2681C9.61805 49.0811 7.69509 47.4193 5.9858 45.2827C4.2765 43.0986 2.92331 40.3447 1.92623 37.0211C0.929139 33.65 0.406855 29.9465 0.359375 25.9107C0.359375 23.2518 0.715478 20.7116 1.42768 18.2901C2.13989 15.8211 3.0895 13.6608 4.2765 11.809C5.46351 9.95729 6.8167 8.34295 8.33608 6.96602C9.90293 5.54161 11.541 4.44956 13.2503 3.68988C14.9596 2.88271 16.6451 2.43165 18.307 2.33669C22.1054 2.0518 25.1679 2.43165 27.4944 3.47622C29.8684 4.52078 31.5302 5.94519 32.4798 7.74945C32.9072 8.6041 33.1683 9.52996 33.2633 10.5271C33.3582 11.4767 33.2633 12.355 32.9784 13.1622C32.6935 13.9219 32.1237 14.4917 31.2691 14.8715C30.4144 15.2513 29.3699 15.2751 28.1354 14.9427Z" fill="black"/>
<path d="M163.279 63.4539C162.826 60.2495 160.075 57.7812 156.744 57.7812C153.096 57.7846 150.142 60.7391 150.142 64.3832C150.142 67.451 152.233 70.0292 155.071 70.772L163.279 63.4539Z" fill="#4099DB"/>
<path d="M180.403 63.4539C180.856 60.2495 183.607 57.7812 186.938 57.7812C190.585 57.7846 193.54 60.7391 193.54 64.3832C193.54 67.451 191.448 70.0292 188.61 70.772L180.403 63.4539Z" fill="#4099DB"/>
</svg>
