<svg width="1532" height="343" viewBox="0 0 1532 343" fill="none" xmlns="http://www.w3.org/2000/svg">
<g clip-path="url(#clip0_1_2796)">
<rect width="1530.62" height="341.664" transform="translate(0.963867 0.825684)" fill="white"/>
<path d="M1160.63 92.1028C1173.89 97.5231 1182.72 109.274 1189.56 124.115C1201.34 149.554 1205.19 178.62 1214.9 204.971C1222.91 226.766 1231.3 248.237 1234.77 272.182C1240.39 311.033 1228.45 329.128 1197.31 326.275C1177.38 324.458 1158.27 316.516 1140.59 305.071C1089.61 272.097 1039.05 238.228 984.129 217.057C973.461 212.934 963.981 205.263 962.466 190.076C960.682 172.244 967.651 158.57 978.656 148.671C993.644 135.194 1011.64 131.124 1029.47 128.441C1060.99 123.671 1090.39 112.19 1118.37 94.1596C1131.59 85.6427 1146.05 84.2852 1160.6 92.0447L1160.63 92.1028Z" fill="#83C9B4"/>
<path d="M424.864 79.7524C425.194 79.2351 425.185 79.1986 424.855 79.6245C425.263 79.0999 425.836 78.6094 426.122 78.0256C425.54 79.2086 426.406 77.6249 426.715 77.2176C427.142 76.6226 427.345 75.5795 427.299 74.8756C427.115 75.5494 426.93 76.2231 426.746 76.8969C426.184 77.6709 426.853 76.9075 426.977 76.7837C427.32 76.4583 427.589 76.1005 427.833 75.6972C428.66 74.3063 428.157 72.3831 426.73 71.59C426.32 71.3734 425.904 71.1844 425.443 71.0724C425.136 70.9977 423.051 70.7177 424.283 70.8853C424.886 71.2332 425.488 71.5811 426.09 71.9289C424.357 70.3322 422.76 70.5604 420.68 70.93C418.71 71.2705 417.256 73.2442 416.214 74.7574C414.679 77.013 415.808 80.2933 418.044 81.5745C420.392 82.9303 423.53 82.124 424.867 79.7646L424.864 79.7524Z" fill="#F9746E"/>
<path d="M484.488 41.9463C483.817 39.7424 482.822 37.6379 480.313 37.041C481.436 38.1617 482.547 39.2856 483.67 40.4063C483.16 39.0447 482.64 37.543 481.17 36.8788C481.67 37.3836 482.184 37.8852 482.684 38.3901C482.668 38.3293 482.631 38.2872 482.618 38.2386L483.169 40.2918C483.122 39.6796 483.011 39.9953 482.845 41.2237C483.14 40.7161 483.289 40.1559 483.301 39.5671C483.257 38.6285 482.975 37.8185 482.296 37.1395C480.791 35.6646 478.651 36.0503 476.97 36.8866L479.114 36.3179C476.794 36.4257 474.793 38.0108 474.459 40.3639C475.187 39.429 475.92 38.4667 476.644 37.5197C473.98 39.1634 473.735 41.8446 474.378 44.6283C475.021 47.412 478.11 49.0523 480.802 48.3382C483.494 47.624 485.338 44.6751 484.5 41.9431L484.488 41.9463Z" fill="#F9746E"/>
<path d="M433.256 21.8409C434.797 21.2628 436.257 20.7713 437.11 19.2305C438.256 17.1822 437.571 14.6304 435.55 13.4223C434.026 12.5118 432.511 12.7967 430.9 13.0678C428.45 13.4703 427.086 16.4095 427.68 18.621C428.274 20.8325 430.93 22.7052 433.256 21.8409Z" fill="#F9746E"/>
<path d="M459.739 89.6082C460.257 90.0305 460.749 90.5507 461.347 90.8346C463.691 91.9311 465.944 91.3332 467.426 89.222C467.802 88.6797 467.98 87.9817 468.205 87.3623C469.59 83.6758 465.464 80.215 462.004 81.1327C458.545 82.0505 456.702 87.0948 459.739 89.6082Z" fill="#F9746E"/>
<path d="M403.568 30.5245C402.034 24.8137 393.166 27.1664 394.699 32.8771C396.233 38.5878 405.101 36.2352 403.568 30.5245Z" fill="#F9746E"/>
<path d="M369.146 75.4816C370.056 75.5656 367.012 74.7724 368.047 75.2266C369.788 75.9752 371.25 75.5874 372.384 74.0761C373.057 73.1817 370.824 75.362 371.546 74.8449C373.988 73.1037 374.807 69.7368 372.483 67.4506C370.315 65.3055 366.598 65.7971 365.085 68.4241C363.182 71.6883 365.696 75.1213 369.134 75.4848L369.146 75.4816Z" fill="#F9746E"/>
<path d="M434.837 117.379C433.101 110.915 423.051 113.581 424.787 120.045C426.523 126.509 436.57 123.831 434.837 117.379Z" fill="#F9746E"/>
<path d="M386.148 113.856C385.838 113.041 385.54 112.222 385.172 111.434C383.077 106.94 375.233 109.021 375.67 113.955C375.746 114.82 375.886 115.681 376.026 116.542C376.495 119.358 379.892 120.93 382.438 120.255C384.984 119.579 387.154 116.531 386.136 113.86L386.148 113.856Z" fill="#F9746E"/>
<path d="M374.076 21.8851C372.422 15.7248 362.847 18.2649 364.501 24.4252C366.156 30.5855 375.731 28.0454 374.076 21.8851Z" fill="#F9746E"/>
<path d="M484.849 -0.997962C484.665 -1.05315 484.48 -1.10835 484.305 -1.17892C483.098 -1.6397 481.222 -1.14205 480.407 -0.144843C480.29 0.0032845 480.145 0.145722 480.025 0.281699C476.766 3.84051 479.932 9.84684 484.829 8.54778C489.726 7.24873 489.474 0.482235 484.849 -0.997962Z" fill="#F9746E"/>
<path d="M342.693 35.7164C341.094 29.7626 331.824 32.2219 333.423 38.1756C335.022 44.1294 344.295 41.6823 342.693 35.7164Z" fill="#F9746E"/>
<path d="M345.63 77.0369C343.692 69.8195 332.472 72.7958 334.411 80.0132C336.349 87.2306 347.568 84.2543 345.63 77.0369Z" fill="#F9746E"/>
<path d="M1322.18 149.088C1338.33 148.057 1353.27 156.075 1369.09 159.974C1385.98 164.14 1401.11 162.103 1416.58 154.211C1430.07 147.331 1444.09 139.689 1460.4 143.69C1478.37 148.122 1492.92 157.212 1497.57 176.302C1502.65 197.128 1493.38 214.853 1478.26 226.732C1451.93 247.414 1430.95 271.033 1416.54 301.591C1407.71 320.28 1389.53 330.715 1369.75 336.492C1350.48 342.125 1332.83 332.423 1331.19 312.524C1328.36 278.041 1313.94 250.01 1291.48 224.855C1287.19 220.025 1284.53 213.497 1281.96 207.403C1267.94 174.351 1285.69 148.235 1322.21 149.089L1322.18 149.088Z" fill="#4099DB"/>
<path d="M1130.52 -39.0687C1150.22 -44.0506 1170.14 -47.3472 1190.68 -47.1729C1243.17 -46.7501 1294.68 -39.0307 1345.89 -28.1859C1401.14 -16.4979 1455.68 -2.15523 1509.28 15.5257C1529.55 22.2024 1550.04 28.8261 1568.73 39.6687C1586.35 49.8922 1596.56 68.9988 1594.04 88.6886C1591.11 111.501 1580.9 129.52 1558.21 137.648C1542.53 143.255 1524.28 136.027 1512.2 120.105C1505.33 111.032 1499.34 101.285 1492.88 91.8933C1489.24 86.5965 1485.44 81.312 1479.57 78.3108C1465.73 71.2033 1456.92 74.7685 1446.87 91.126C1443.67 96.3347 1440.67 101.675 1437.12 106.637C1425.85 122.425 1406.4 124.842 1391.12 112.496C1377.79 101.727 1368.9 87.7672 1362.43 72.1044C1360.31 66.971 1358.38 61.6565 1355.58 56.9047C1345.8 40.2943 1325.71 40.698 1315.93 57.2898C1311.85 64.2056 1308.23 71.3815 1303.2 77.8189C1291.06 93.3637 1270.67 92.3874 1258.2 74.7594C1251.48 65.2392 1248.16 54.3371 1244.63 43.4669C1240.31 30.1557 1232.08 24.061 1218.12 23.4917C1205.57 22.9822 1195.15 31.8097 1188.49 48.7035C1187.47 51.2976 1186.83 54.0176 1185.91 56.6512C1179.46 74.8806 1170.26 81.7226 1151.2 78.0748C1127.15 73.4551 1105.02 63.6545 1087.55 45.5475C1070.83 28.1948 1073.53 6.46854 1087.24 -12.1185C1098.13 -26.8926 1114.04 -33.2684 1130.51 -39.0317L1130.52 -39.0687Z" fill="#FAA839"/>
<path d="M465.316 150.535C475.821 158.776 486.67 166.626 496.761 175.331C513.566 189.878 534.062 197.859 552.941 208.735C580.839 224.802 590.275 248.755 573.057 276.881C566.386 287.744 563.132 300.729 558.285 312.722C548.33 337.486 530.985 341.308 511.165 323.235C490.439 304.347 480.226 278.975 469.521 254.247C458.42 228.607 448.006 202.807 431.392 180.004C427.165 174.21 424.478 167.146 421.936 160.364C417.561 148.716 422.898 141.083 435.333 141.187C446.142 141.267 455.927 145.155 465.337 150.547L465.316 150.535Z" fill="#FAA839"/>
<path d="M662.625 308.448C624.332 283.387 620.708 275.886 628.731 244.352C633.858 224.277 628.94 206.576 620.263 188.942C612.062 172.325 603.337 155.864 596.473 138.709C585.244 110.676 598.818 91.9779 628.812 92.2331C654.525 92.4351 675.361 105.315 695.802 118.3C721.181 134.427 745.569 152.16 770.485 169.042C787.772 180.784 807.227 186.004 827.703 189.777C868.57 197.312 907.2 210.163 933.947 245.265C956.335 274.644 948.302 295.174 912.391 302.254C889.408 306.816 866.456 302.999 843.592 302.907C823.781 302.83 805.339 306.507 787.679 313.913C740.165 333.873 695.441 327.173 662.7 308.405L662.625 308.448Z" fill="#FF6961"/>
<path d="M1024.14 111.914C1024.47 111.396 1024.46 111.36 1024.13 111.786C1024.54 111.261 1025.11 110.771 1025.4 110.187C1024.81 111.37 1025.68 109.786 1025.99 109.379C1026.41 108.784 1026.62 107.741 1026.57 107.038C1026.39 107.711 1026.2 108.385 1026.02 109.058C1025.46 109.832 1026.12 109.069 1026.25 108.945C1026.59 108.62 1026.86 108.262 1027.1 107.859C1027.93 106.468 1027.43 104.546 1026.01 103.755C1025.6 103.539 1025.18 103.35 1024.72 103.239C1024.42 103.164 1022.34 102.886 1023.57 103.053C1024.17 103.4 1024.77 103.747 1025.37 104.094C1023.64 102.5 1022.05 102.729 1019.98 103.1C1018.02 103.443 1016.57 105.416 1015.53 106.929C1013.99 109.185 1015.12 112.462 1017.34 113.741C1019.68 115.094 1022.81 114.285 1024.14 111.926L1024.14 111.914Z" fill="#FAA839"/>
<path d="M1083.53 74.1079C1082.86 71.9055 1081.87 69.8027 1079.37 69.2084C1080.49 70.3276 1081.59 71.4501 1082.71 72.5693C1082.21 71.2087 1081.69 69.7081 1080.22 69.0454C1080.72 69.5496 1081.23 70.0506 1081.73 70.5548C1081.72 70.494 1081.68 70.452 1081.67 70.4034L1082.21 72.4553C1082.17 71.8433 1082.06 72.159 1081.89 73.387C1082.18 72.8794 1082.33 72.3193 1082.35 71.7308C1082.3 70.7926 1082.02 69.9832 1081.35 69.305C1079.85 67.8321 1077.71 68.2195 1076.04 69.0569L1078.18 68.4866C1075.86 68.5964 1073.87 70.1826 1073.53 72.5349C1074.26 71.5998 1074.99 70.6372 1075.71 69.69C1073.06 71.3354 1072.81 74.0156 1073.45 76.7976C1074.09 79.5796 1077.17 81.2165 1079.85 80.5003C1082.53 79.7841 1084.37 76.8348 1083.54 74.1047L1083.53 74.1079Z" fill="#FAA839"/>
<path d="M1078.19 0.500927C1076.56 -5.60612 1067.09 -3.07844 1068.72 3.0286C1070.35 9.13565 1079.82 6.60797 1078.19 0.500927Z" fill="#FAA839"/>
<path d="M1032.5 54.0037C1034.03 53.4246 1035.49 52.9321 1036.34 51.3915C1037.48 49.3433 1036.8 46.7936 1034.79 45.588C1033.27 44.6793 1031.76 44.9654 1030.16 45.2377C1027.71 45.6422 1026.35 48.5809 1026.94 50.7906C1027.53 53.0003 1030.18 54.8696 1032.5 54.0037Z" fill="#FAA839"/>
<path d="M1058.87 121.776C1059.39 122.197 1059.88 122.717 1060.47 123C1062.81 124.094 1065.05 123.494 1066.53 121.383C1066.91 120.841 1067.08 120.143 1067.31 119.523C1068.69 115.838 1064.58 112.382 1061.14 113.302C1057.69 114.223 1055.85 119.266 1058.87 121.776Z" fill="#FAA839"/>
<path d="M1002.94 62.6867C1001.41 56.9804 992.575 59.3395 994.098 65.0459C995.621 70.7523 1004.46 68.3931 1002.94 62.6867Z" fill="#FAA839"/>
<path d="M968.649 107.645C969.555 107.728 966.522 106.938 967.553 107.391C969.287 108.138 970.744 107.749 971.875 106.238C972.547 105.343 970.32 107.524 971.04 107.007C973.476 105.264 974.294 101.898 971.981 99.6155C969.822 97.4733 966.118 97.9679 964.608 100.595C962.709 103.859 965.211 107.288 968.636 107.649L968.649 107.645Z" fill="#FAA839"/>
<path d="M1034.08 149.541C1032.35 143.082 1022.34 145.755 1024.06 152.214C1025.79 158.674 1035.8 155.988 1034.08 149.541Z" fill="#FAA839"/>
<path d="M985.589 146.018C985.28 145.203 984.984 144.385 984.618 143.598C982.535 139.108 974.716 141.195 975.148 146.126C975.223 146.99 975.361 147.851 975.5 148.711C975.965 151.526 979.349 153.094 981.887 152.417C984.424 151.74 986.589 148.691 985.577 146.021L985.589 146.018Z" fill="#FAA839"/>
<path d="M973.564 54.0476C971.921 47.892 962.379 50.4391 964.022 56.5947C965.665 62.7503 975.207 60.2032 973.564 54.0476Z" fill="#FAA839"/>
<path d="M1015.41 12.2097C1014.97 11.2076 1015.76 13.4052 1015.49 12.2938C1015.19 11.0854 1014.27 9.84711 1013.14 9.29207C1013.91 10.6332 1014.67 11.9775 1015.43 13.3219C1015.42 13.2855 1015.44 13.2547 1015.44 13.2029C1015.24 13.9589 1015.04 14.7029 1014.83 15.4468C1014.65 15.6784 1014.47 15.9067 1014.29 16.1383C1013.37 16.8387 1013.47 16.7609 1014.56 15.9083C1015.13 15.3416 1015.5 14.6437 1015.7 13.8755C1016.05 12.4953 1015.74 10.8084 1014.62 9.83246C1012.9 8.32643 1010.46 8.05419 1008.5 9.30769L1010.86 8.67577C1007.5 8.41508 1005.69 11.8395 1005.98 14.7398C1006.12 16.1579 1006.43 17.3389 1007.48 18.3707C1008.75 19.6186 1010.62 20.1225 1012.34 19.6623C1013.64 19.3156 1014.75 18.4597 1015.42 17.3061C1016.4 15.6141 1016.15 13.9231 1015.4 12.2129L1015.41 12.2097Z" fill="#FAA839"/>
<path d="M1083.89 31.1691C1083.7 31.1141 1083.52 31.0591 1083.35 30.9888C1082.14 30.5292 1080.27 31.0283 1079.46 32.0257C1079.34 32.1739 1079.2 32.3164 1079.08 32.4524C1075.83 36.0124 1078.98 42.013 1083.86 40.7103C1088.74 39.4076 1088.5 32.6446 1083.89 31.1691Z" fill="#FAA839"/>
<path d="M1044.52 -5.15971C1043.23 -10.0041 1035.72 -7.99813 1037.01 -3.15377C1038.3 1.69058 1045.82 -0.315358 1044.52 -5.15971Z" fill="#FAA839"/>
<path d="M979.817 15.7796C979.298 14.032 978.7 12.2279 977.341 10.9387C974.921 8.64523 970.963 9.70167 970.008 12.896C969.473 14.6907 969.853 16.5532 970.274 18.3267C970.895 20.9444 973.769 22.5052 976.319 21.8246C978.869 21.1441 980.583 18.3583 979.817 15.7796Z" fill="#FAA839"/>
<path d="M942.31 67.879C940.722 61.9298 931.483 64.3959 933.071 70.3451C934.658 76.2943 943.901 73.8403 942.31 67.879Z" fill="#FAA839"/>
<path d="M945.235 109.199C943.31 101.987 932.128 104.972 934.053 112.184C935.978 119.396 947.16 116.411 945.235 109.199Z" fill="#FAA839"/>
<path d="M952.329 23.1166C950.738 17.1552 941.511 19.6181 943.102 25.5794C944.693 31.5408 953.917 29.0658 952.329 23.1166Z" fill="#FAA839"/>
<path d="M1406.8 293.679C1407.13 293.162 1407.12 293.125 1406.79 293.551C1407.2 293.026 1407.77 292.536 1408.06 291.952C1407.48 293.135 1408.34 291.551 1408.65 291.144C1409.08 290.549 1409.28 289.506 1409.23 288.803C1409.05 289.476 1408.87 290.15 1408.68 290.824C1408.12 291.597 1408.79 290.834 1408.91 290.71C1409.25 290.385 1409.52 290.027 1409.77 289.624C1410.59 288.233 1410.09 286.311 1408.67 285.52C1408.26 285.304 1407.85 285.115 1407.39 285.004C1407.08 284.929 1405 284.651 1406.23 284.818C1406.83 285.165 1407.43 285.512 1408.03 285.859C1406.31 284.265 1404.72 284.494 1402.64 284.866C1400.68 285.208 1399.23 287.181 1398.19 288.695C1396.66 290.95 1397.78 294.227 1400.01 295.506C1402.35 296.859 1405.47 296.05 1406.81 293.691L1406.8 293.679Z" fill="#F9746E"/>
<path d="M1466.19 255.873C1465.52 253.671 1464.53 251.568 1462.03 250.973C1463.15 252.093 1464.26 253.215 1465.38 254.334C1464.87 252.974 1464.35 251.473 1462.89 250.811C1463.39 251.315 1463.9 251.816 1464.4 252.32C1464.38 252.259 1464.34 252.217 1464.33 252.169L1464.88 254.22C1464.83 253.608 1464.72 253.924 1464.55 255.152C1464.85 254.645 1465 254.084 1465.01 253.496C1464.97 252.558 1464.69 251.748 1464.01 251.07C1462.51 249.597 1460.38 249.985 1458.7 250.822L1460.84 250.252C1458.53 250.362 1456.53 251.948 1456.2 254.3C1456.92 253.365 1457.65 252.402 1458.38 251.455C1455.72 253.101 1455.47 255.781 1456.11 258.563C1456.75 261.345 1459.83 262.982 1462.51 262.265C1465.19 261.549 1467.03 258.6 1466.2 255.87L1466.19 255.873Z" fill="#F9746E"/>
<path d="M1460.85 182.266C1459.22 176.159 1449.75 178.686 1451.38 184.793C1453.01 190.9 1462.48 188.373 1460.85 182.266Z" fill="#F9746E"/>
<path d="M1415.16 235.769C1416.7 235.19 1418.15 234.697 1419 233.157C1420.15 231.108 1419.47 228.559 1417.45 227.353C1415.94 226.444 1414.43 226.731 1412.82 227.003C1410.38 227.407 1409.02 230.346 1409.61 232.556C1410.2 234.765 1412.84 236.635 1415.16 235.769Z" fill="#F9746E"/>
<path d="M1441.53 303.541C1442.05 303.963 1442.54 304.482 1443.14 304.766C1445.47 305.86 1447.72 305.26 1449.19 303.149C1449.57 302.606 1449.75 301.908 1449.97 301.289C1451.36 297.603 1447.25 294.148 1443.8 295.068C1440.35 295.988 1438.51 301.032 1441.53 303.541Z" fill="#F9746E"/>
<path d="M1385.6 244.452C1384.08 238.745 1375.24 241.105 1376.76 246.811C1378.28 252.517 1387.12 250.158 1385.6 244.452Z" fill="#F9746E"/>
<path d="M1351.31 289.41C1352.22 289.494 1349.19 288.703 1350.22 289.157C1351.95 289.903 1353.41 289.514 1354.54 288.003C1355.21 287.108 1352.98 289.289 1353.7 288.772C1356.14 287.03 1356.96 283.664 1354.64 281.381C1352.49 279.238 1348.78 279.733 1347.27 282.36C1345.37 285.624 1347.87 289.053 1351.3 289.414L1351.31 289.41Z" fill="#F9746E"/>
<path d="M1416.74 331.306C1415.02 324.847 1405 327.52 1406.73 333.98C1408.45 340.439 1418.46 337.753 1416.74 331.306Z" fill="#F9746E"/>
<path d="M1368.25 327.783C1367.94 326.968 1367.65 326.15 1367.28 325.363C1365.2 320.873 1357.38 322.96 1357.81 327.891C1357.89 328.755 1358.02 329.616 1358.16 330.476C1358.63 333.291 1362.01 334.859 1364.55 334.182C1367.09 333.505 1369.25 330.456 1368.24 327.786L1368.25 327.783Z" fill="#F9746E"/>
<path d="M1356.23 235.813C1354.59 229.657 1345.04 232.204 1346.69 238.36C1348.33 244.515 1357.87 241.968 1356.23 235.813Z" fill="#F9746E"/>
<path d="M1398.07 193.975C1397.64 192.973 1398.42 195.171 1398.15 194.059C1397.85 192.851 1396.94 191.613 1395.8 191.058C1396.57 192.399 1397.34 193.743 1398.1 195.088C1398.09 195.051 1398.11 195.02 1398.1 194.968C1397.9 195.725 1397.7 196.469 1397.49 197.212C1397.31 197.444 1397.14 197.672 1396.95 197.904C1396.03 198.604 1396.13 198.527 1397.23 197.674C1397.79 197.107 1398.16 196.409 1398.36 195.641C1398.71 194.261 1398.4 192.574 1397.28 191.598C1395.57 190.092 1393.13 189.82 1391.16 191.073L1393.53 190.441C1390.17 190.181 1388.35 193.605 1388.64 196.505C1388.79 197.924 1389.09 199.104 1390.15 200.136C1391.42 201.384 1393.28 201.888 1395 201.428C1396.3 201.081 1397.41 200.225 1398.08 199.072C1399.06 197.38 1398.82 195.689 1398.06 193.979L1398.07 193.975Z" fill="#F9746E"/>
<path d="M1466.55 212.934C1466.37 212.879 1466.18 212.824 1466.01 212.754C1464.81 212.294 1462.94 212.793 1462.12 213.791C1462.01 213.939 1461.86 214.082 1461.74 214.218C1458.49 217.778 1461.64 223.778 1466.52 222.475C1471.4 221.173 1471.16 214.41 1466.55 212.934Z" fill="#F9746E"/>
<path d="M1427.19 176.605C1425.9 171.761 1418.38 173.767 1419.67 178.611C1420.97 183.456 1428.48 181.45 1427.19 176.605Z" fill="#F9746E"/>
<path d="M1362.48 197.545C1361.96 195.797 1361.36 193.993 1360 192.704C1357.58 190.41 1353.63 191.467 1352.67 194.661C1352.14 196.456 1352.52 198.318 1352.94 200.092C1353.56 202.709 1356.43 204.27 1358.98 203.59C1361.53 202.909 1363.25 200.123 1362.48 197.545Z" fill="#F9746E"/>
<path d="M1324.97 249.644C1323.38 243.694 1314.15 246.161 1315.73 252.11C1317.32 258.059 1326.56 255.605 1324.97 249.644Z" fill="#F9746E"/>
<path d="M1327.9 290.964C1325.97 283.752 1314.79 286.737 1316.72 293.949C1318.64 301.161 1329.82 298.176 1327.9 290.964Z" fill="#F9746E"/>
<path d="M1334.99 204.882C1333.4 198.92 1324.17 201.383 1325.77 207.345C1327.36 213.306 1336.58 210.831 1334.99 204.882Z" fill="#F9746E"/>
<rect x="1.17195" y="1.03376" width="1530.21" height="341.248" stroke="black" stroke-width="0.416156"/>
<path d="M193.614 238.572C177.202 228.108 158.782 221.85 141.357 213.501C127.755 206.987 115.692 198.772 110.543 183.477C107.946 175.765 108.863 168.627 114.022 162.319C119.199 155.988 126.113 154.005 134.114 154.933C148.041 156.55 158.385 165.491 169.565 172.493C179.498 178.701 189.651 184.156 200.807 187.674C211.584 191.061 219.054 185.326 218.207 174.041C217.727 167.714 215.905 161.705 212.229 156.334C206.765 148.354 201.443 140.263 196.075 132.209C187.769 119.754 188.68 103.492 198.164 94.817C208.347 85.4864 223.881 85.7897 236.126 94.7406C247.803 103.282 252.448 116.032 257.799 128.427C262.376 139.046 265.333 150.359 272.638 159.747C283.161 173.296 295.296 173.727 306.38 160.489C313.054 152.536 318.835 143.713 329.415 140.106C342.849 135.534 356.525 140.94 363.517 153.252C370.653 165.827 372.975 179.79 374.286 193.646C376.879 221.019 386.904 244.239 406.223 264.122C416.612 274.822 423.757 288.237 421.392 304.154C418.886 321.053 405.285 330.275 387.322 329.807C371.505 329.393 357.531 323.328 343.695 317.204C323.284 308.196 302.262 308.179 281.011 310.929C259.925 313.66 239.032 318.007 217.931 320.615C195.642 323.365 173.901 320.652 153.977 309.302C145.072 304.216 138.678 296.783 135.557 286.788C131.426 273.572 141.46 262.308 155.133 264.485C165.378 266.12 175.57 268.269 186.132 267.446C193.402 266.874 201.809 267.898 204.634 259.535C207.497 251.053 201.797 244.907 195.419 239.86C194.846 239.41 194.237 239.006 193.637 238.59L193.614 238.572Z" fill="#65B29A"/>
<path d="M-57.1999 342.282C-57.1002 325.143 -52.3544 311.573 -49.3633 297.705C-47.1898 287.625 -44.8966 277.635 -45.8837 267.246C-46.0831 265.132 -46.5517 262.959 -47.3593 260.995C-51.3573 251.214 -58.5558 249.579 -66.3226 256.757C-73.9896 263.846 -79.1044 272.809 -83.561 282.072C-84.8572 284.754 -86.0336 287.456 -87.7884 289.848C-95.1564 299.888 -109.005 298.722 -115.216 287.735C-122.604 274.694 -121.398 261.344 -117.171 247.784C-111.448 229.409 -99.8922 214.893 -86.7216 201.413C-71.8162 186.149 -55.2557 172.539 -41.6862 155.929C-30.4499 142.17 -23.391 126.646 -20.0111 109.219C-17.3092 95.2702 -12.5933 82.0897 -2.4137 71.5213C10.9563 57.6428 32.1529 59.9558 42.7811 76.2471C49.8201 87.0448 52.9408 99.0988 55.5231 111.452C58.7634 126.946 66.2211 140.156 77.2082 151.492C86.0717 160.645 95.5932 169.179 103.619 179.11C107.976 184.503 111.914 190.147 113.679 197.136C117.667 212.998 107.976 228.033 91.7248 230.326C85.1744 231.254 78.4744 231.114 71.9439 232.111C57.7663 234.265 52.0933 244.275 57.1183 257.864C60.4184 266.767 65.3836 274.823 70.6279 282.66C76.5403 291.503 81.635 300.696 84.8155 310.905C89.5214 326.03 82.7217 341.973 69.1523 347.456C60.4084 350.986 50.0195 348.573 43.6585 341.574C37.0284 334.286 33.4989 325.462 30.6275 316.19C27.9954 307.665 25.114 299.21 18.8727 292.391C15.9215 289.17 12.2923 287.366 8.21452 286.478C3.29922 285.412 -0.519363 287.735 -2.314 292.471C-6.88034 304.544 -8.1964 317.207 -9.34296 329.939C-10.2802 340.288 -9.68195 350.906 -14.0489 360.736C-17.5385 368.603 -23.3312 373.827 -32.0451 374.356C-40.5198 374.864 -47.0801 370.667 -51.2975 363.418C-55.5448 356.12 -57.6785 348.154 -57.16 342.302L-57.1999 342.282Z" fill="#FAA839"/>
<path d="M33.2109 310.292C33.541 309.774 33.5313 309.738 33.2028 310.164C33.609 309.639 34.1803 309.149 34.4668 308.565C33.885 309.748 34.75 308.164 35.0575 307.757C35.4839 307.162 35.6868 306.119 35.6421 305.416C35.4577 306.089 35.2734 306.763 35.089 307.436C34.5282 308.21 35.1958 307.447 35.3188 307.323C35.6611 306.997 35.9298 306.64 36.1733 306.236C36.9987 304.846 36.4988 302.924 35.078 302.133C34.6692 301.917 34.2547 301.728 33.7957 301.617C33.4897 301.542 31.4126 301.264 32.6406 301.431C33.2405 301.778 33.8403 302.125 34.4402 302.472C32.7141 300.878 31.1236 301.107 29.0507 301.478C27.087 301.82 25.637 303.794 24.5972 305.307C23.0662 307.563 24.1881 310.84 26.4152 312.119C28.7532 313.472 31.8799 312.663 33.2141 310.304L33.2109 310.292Z" fill="#CA7770"/>
<path d="M92.5979 272.486C91.932 270.283 90.9415 268.181 88.4418 267.586C89.5599 268.706 90.6659 269.828 91.784 270.947C91.2778 269.587 90.7602 268.086 89.2957 267.423C89.7945 267.928 90.3054 268.429 90.8041 268.933C90.7879 268.872 90.7507 268.83 90.7377 268.781L91.2854 270.833C91.2391 270.221 91.1283 270.537 90.9618 271.765C91.2555 271.257 91.4051 270.697 91.4171 270.109C91.3748 269.171 91.0938 268.361 90.4185 267.683C88.9199 266.21 86.7863 266.597 85.1109 267.435L87.2477 266.864C84.9359 266.974 82.9402 268.56 82.6057 270.913C83.3315 269.978 84.063 269.015 84.7856 268.068C82.1294 269.713 81.8824 272.394 82.5209 275.176C83.1594 277.958 86.2365 279.594 88.9196 278.878C91.6028 278.162 93.4428 275.213 92.61 272.483L92.5979 272.486Z" fill="#CA7770"/>
<path d="M87.2582 198.879C85.6281 192.772 76.1581 195.299 77.7882 201.407C79.4183 207.514 88.8882 204.986 87.2582 198.879Z" fill="#CA7770"/>
<path d="M41.5682 252.381C43.1044 251.802 44.5597 251.31 45.4101 249.769C46.5542 247.721 45.8736 245.171 43.861 243.965C42.3439 243.057 40.8335 243.343 39.2285 243.615C36.7873 244.02 35.4257 246.958 36.0155 249.168C36.6053 251.378 39.2502 253.247 41.5682 252.381Z" fill="#CA7770"/>
<path d="M67.942 320.154C68.4577 320.575 68.9475 321.095 69.5434 321.378C71.8773 322.472 74.1233 321.872 75.6017 319.761C75.9772 319.218 76.1551 318.521 76.38 317.901C77.7633 314.216 73.6545 310.76 70.2064 311.68C66.7584 312.601 64.9181 317.644 67.942 320.154Z" fill="#CA7770"/>
<path d="M12.0088 261.065C10.4857 255.359 1.64704 257.718 3.17016 263.424C4.69328 269.131 13.5319 266.772 12.0088 261.065Z" fill="#CA7770"/>
<path d="M43.1503 347.919C41.4262 341.46 31.4099 344.133 33.134 350.592C34.858 357.051 44.8711 354.366 43.1503 347.919Z" fill="#CA7770"/>
<path d="M24.482 210.588C24.0454 209.586 24.8271 211.784 24.5564 210.672C24.2599 209.464 23.3441 208.226 22.2075 207.67C22.9817 209.012 23.7437 210.356 24.5057 211.7C24.496 211.664 24.5138 211.633 24.5129 211.581C24.3116 212.337 24.107 213.081 23.9024 213.825C23.717 214.057 23.5439 214.285 23.3586 214.517C22.44 215.217 22.5363 215.139 23.6353 214.287C24.1994 213.72 24.5724 213.022 24.7705 212.254C25.1175 210.874 24.8103 209.187 23.6914 208.211C21.9758 206.705 19.536 206.433 17.5686 207.686L19.9361 207.054C16.576 206.793 14.7588 210.218 15.0517 213.118C15.1961 214.536 15.4983 215.717 16.5541 216.749C17.8236 217.997 19.6879 218.501 21.4119 218.041C22.711 217.694 23.8221 216.838 24.4896 215.684C25.4687 213.992 25.2255 212.302 24.4698 210.591L24.482 210.588Z" fill="#CA7770"/>
<path d="M92.9591 229.547C92.7753 229.492 92.5916 229.437 92.4167 229.367C91.2146 228.907 89.3448 229.406 88.5316 230.404C88.4151 230.552 88.271 230.694 88.1513 230.83C84.9005 234.39 88.0499 240.391 92.9306 239.088C97.8112 237.785 97.5668 231.022 92.9591 229.547Z" fill="#CA7770"/>
<path d="M53.5963 193.219C52.3033 188.374 44.788 190.38 46.081 195.225C47.374 200.069 54.8893 198.063 53.5963 193.219Z" fill="#CA7770"/>
<path d="M480.459 -91.7833C498.2 -94.9097 517.638 -96.4354 537.363 -94.6091C586.854 -90.0502 634.943 -79.0016 682.472 -64.8865C734.026 -49.574 784.727 -31.8491 834.259 -11.0039C852.977 -3.11881 871.974 4.62263 888.844 16.3998C904.608 27.3932 912.921 46.6296 908.972 64.9634C904.357 86.3377 893.302 102.704 871.068 108.562C855.706 112.614 839.18 104.372 828.848 88.1834C823.01 79.0533 818.09 69.3435 812.622 59.9676C809.54 54.7034 806.375 49.3596 800.939 46.1549C788.257 38.6606 780.315 41.096 769.512 55.5104C766.034 60.1572 762.662 64.9112 759.145 69.5337C748.05 84.1766 728.422 84.9929 714.475 71.8795C702.597 60.725 695.202 46.7927 690.455 31.3235C688.048 23.5067 686.139 15.4321 679.863 9.40663C670.866 0.766459 656.059 2.09637 648.665 12.141C643.655 18.9423 639.296 26.1711 633.608 32.5675C622.009 45.6062 602.488 44.5517 591.623 26.6999C585.856 17.2272 582.841 6.75053 580.786 -3.89056C578.48 -15.8815 571.592 -22.4572 560.082 -25.0472C547.626 -27.8517 539.221 -22.2078 532.491 -12.409C529.006 -7.35212 526.291 -1.99239 523.848 3.63379C516.511 20.4812 506.903 26.2289 489.302 21.2338C466.885 14.8735 446.475 4.07952 431.414 -14.556C416.459 -33.0842 421.309 -53.5467 435.227 -68.6535C447.747 -82.2564 458.137 -86.8378 480.419 -91.7417L480.459 -91.7833Z" fill="#5DC198"/>
<path d="M32.3643 -142.179C46.9104 -140.522 62.409 -137.235 77.3586 -131.287C114.873 -116.38 149.799 -96.7706 183.581 -74.9155C220.223 -51.2079 255.645 -25.8284 289.435 1.69834C302.203 12.1067 315.221 22.4679 325.651 35.4652C335.4 47.6013 337.442 64.4075 330.136 77.6959C321.611 93.186 309.222 103.318 290.545 102.742C277.64 102.349 266.663 92.1683 262.345 77.2578C259.901 68.8463 258.306 60.1966 256.208 51.6799C255.02 46.8951 253.786 42.0296 250.289 38.2986C242.135 29.5803 235.385 29.6406 223.642 38.3188C219.86 41.1174 216.136 44.0233 212.33 46.7944C200.307 55.5822 184.823 51.7025 176.979 38.3424C170.296 26.9749 167.746 14.4867 167.615 1.41756C167.541 -5.18864 167.915 -11.8799 164.415 -17.9881C159.396 -26.7467 147.551 -29.1205 139.473 -23.0424C134.001 -18.9274 128.937 -14.332 123.03 -10.6865C110.984 -3.25662 96.0158 -8.56037 91.6656 -24.8811C89.3564 -33.5417 89.4228 -42.3472 90.2755 -51.0592C91.244 -60.8741 87.3929 -67.5492 79.021 -72.2005C69.9608 -77.2355 62.1096 -74.7973 54.6059 -68.7568C50.724 -65.6422 47.3724 -62.1161 44.171 -58.3212C34.5688 -46.9623 25.7564 -44.7203 13.1921 -52.6342C-2.80907 -62.712 -16.225 -75.7618 -23.6633 -93.6537C-31.0441 -111.438 -22.5462 -126.168 -8.21676 -134.666C4.67628 -142.322 13.8293 -143.481 32.3237 -142.156L32.3643 -142.179Z" fill="#4099DB"/>
</g>
<defs>
<clipPath id="clip0_1_2796">
<rect width="1530.62" height="341.664" fill="white" transform="translate(0.963867 0.825684)"/>
</clipPath>
</defs>
</svg>
