<svg width="1418" height="258" viewBox="0 0 1418 258" fill="none" xmlns="http://www.w3.org/2000/svg">
<g clip-path="url(#clip0_13_1585)">
<path d="M291.11 176.428L207.272 127.839L291.11 79.2501C295.834 76.5118 297.45 70.4529 294.724 65.7074L274.975 31.3673C272.249 26.628 266.211 24.9986 261.486 27.7369L177.648 76.326V9.91234C177.648 4.43577 173.226 0 167.773 0H128.275C122.823 0 118.401 4.43577 118.401 9.91234V76.3322L34.5626 27.7431C29.8381 25.0048 23.7999 26.6342 21.0738 31.3735L1.32465 65.7074C-1.40149 70.4467 0.214462 76.5118 4.93895 79.2501L88.777 127.839L4.93895 176.428C0.214462 179.167 -1.40149 185.232 1.32465 189.971L21.0738 224.311C23.7999 229.05 29.8381 230.674 34.5626 227.941L118.401 179.352V247.688C118.401 253.165 122.823 257.601 128.275 257.601H167.773C173.226 257.601 177.648 253.165 177.648 247.688V179.346L261.486 227.935C266.211 230.674 272.249 229.05 274.975 224.305L294.724 189.965C297.45 185.225 295.834 179.167 291.11 176.428Z" fill="#F5BF42"/>
</g>
<g clip-path="url(#clip1_13_1585)">
<path d="M641.278 17.6138C609.592 -9.23827 562.468 -4.40834 533.384 25.4337L521.994 37.106L510.603 25.4337C481.577 -4.40834 434.395 -9.23827 402.709 17.6138C366.398 48.4333 364.49 103.748 396.985 137.155L508.868 252.038C516.096 259.455 527.834 259.455 535.061 252.038L646.945 137.155C679.498 103.748 677.59 48.4333 641.278 17.6138Z" fill="#F9746E"/>
</g>
<g clip-path="url(#clip2_13_1585)">
<path d="M747.93 94.9238C747.93 79.8825 756.589 66.1849 770.176 59.7324L879.461 7.83278C889.898 2.87619 902.011 2.8762 912.448 7.83279L1021.73 59.7324C1035.32 66.1849 1043.98 79.8825 1043.98 94.9238V218.643C1043.98 240.159 1026.54 257.601 1005.02 257.601H786.888C765.372 257.601 747.93 240.159 747.93 218.643V94.9238Z" fill="#4497C3"/>
</g>
<g clip-path="url(#clip3_13_1585)">
<path d="M1199.9 33.6809C1197.22 14.6397 1180.87 0.000976562 1161.1 0.000976562C1139.44 0.000976562 1121.89 17.5488 1121.89 39.2035C1121.89 57.4202 1134.32 72.7278 1151.17 77.1303L1199.9 33.6809Z" fill="#CD995B"/>
<path d="M1185.3 35.9344C1183.64 24.1332 1173.51 15.0605 1161.25 15.0605C1147.83 15.0605 1136.96 25.9361 1136.96 39.3571C1136.96 50.6473 1144.66 60.1345 1155.1 62.863L1185.3 35.9344Z" fill="black"/>
<path d="M1340.78 33.6809C1343.46 14.6397 1359.81 0.000976562 1379.58 0.000976562C1401.23 0.000976562 1418.78 17.5488 1418.78 39.2035C1418.78 57.4202 1406.35 72.7278 1389.5 77.1303L1340.78 33.6809Z" fill="#CD995B"/>
<path d="M1356.51 34.3494C1358.17 22.5482 1368.31 13.4756 1380.56 13.4756C1393.98 13.4756 1404.86 24.3512 1404.86 37.7721C1404.86 49.0623 1397.15 58.5495 1386.71 61.2781L1356.51 34.3494Z" fill="black"/>
<path d="M1270.03 257.602C1302.37 257.602 1365.4 256.591 1397.82 212.923C1410.24 196.2 1418.15 173.239 1418.15 141.69C1418.15 27.6916 1335.3 0.000976562 1270.03 0.000976562C1204.75 0.000976562 1121.9 26.1515 1121.9 141.69C1121.9 172.507 1129.46 195.127 1141.36 211.741C1173.51 256.575 1237.39 257.602 1270.03 257.602Z" fill="#CD995B"/>
<path d="M1270.95 161.101C1286.79 160.024 1303.63 144.278 1303.63 130.491C1303.63 116.705 1289.77 110.495 1269.27 110.495H1268.85C1248.33 110.495 1234.47 116.206 1234.47 130.491C1234.47 144.777 1251.29 160.043 1267.16 161.101H1270.95Z" fill="black"/>
<path d="M1205.75 113.761C1213.64 113.761 1220.03 106.528 1220.03 97.6043C1220.03 88.681 1213.64 81.4473 1205.75 81.4473C1197.86 81.4473 1191.47 88.681 1191.47 97.6043C1191.47 106.528 1197.86 113.761 1205.75 113.761Z" fill="black"/>
<path d="M1331.85 113.761C1339.74 113.761 1346.13 106.528 1346.13 97.6043C1346.13 88.681 1339.74 81.4473 1331.85 81.4473C1323.96 81.4473 1317.57 88.681 1317.57 97.6043C1317.57 106.528 1323.96 113.761 1331.85 113.761Z" fill="black"/>
<path d="M1250.3 200.054C1247.89 200.054 1245.41 199.821 1242.97 199.339C1236.45 198.047 1231.07 195.247 1227.82 191.436C1227.26 190.783 1227.34 189.803 1227.99 189.242C1228.64 188.682 1229.62 188.76 1230.18 189.414C1232.94 192.634 1237.82 195.138 1243.58 196.274C1249.24 197.394 1255.04 197.099 1259.49 195.45C1263.07 194.127 1267.35 191.343 1267.35 185.618V157.134C1267.35 156.278 1268.05 155.578 1268.9 155.578C1269.76 155.578 1270.46 156.278 1270.46 157.134V185.618C1270.46 191.498 1266.94 196.025 1260.58 198.374C1257.55 199.494 1254 200.054 1250.3 200.054Z" fill="black"/>
<path d="M1287.56 200.054C1283.86 200.054 1280.31 199.494 1277.29 198.374C1270.91 196.025 1267.41 191.498 1267.41 185.618V157.134C1267.41 156.278 1268.11 155.578 1268.97 155.578C1269.82 155.578 1270.52 156.278 1270.52 157.134V185.618C1270.52 191.358 1274.79 194.127 1278.38 195.45C1282.83 197.099 1288.63 197.394 1294.29 196.274C1300.05 195.138 1304.93 192.634 1307.69 189.414C1308.25 188.76 1309.23 188.682 1309.88 189.242C1310.53 189.803 1310.61 190.783 1310.05 191.436C1306.8 195.232 1301.42 198.047 1294.9 199.339C1292.43 199.821 1289.95 200.054 1287.56 200.054Z" fill="black"/>
</g>
<defs>
<clipPath id="clip0_13_1585">
<rect width="296.049" height="257.601" fill="white"/>
</clipPath>
<clipPath id="clip1_13_1585">
<rect width="296.049" height="257.601" fill="white" transform="translate(373.965)"/>
</clipPath>
<clipPath id="clip2_13_1585">
<rect width="296.049" height="257.601" fill="white" transform="translate(747.93)"/>
</clipPath>
<clipPath id="clip3_13_1585">
<rect width="296.049" height="257.601" fill="white" transform="translate(1121.9)"/>
</clipPath>
</defs>
</svg>
