<svg width="160" height="130" viewBox="0 0 160 130" fill="none" xmlns="http://www.w3.org/2000/svg">
<g clip-path="url(#clip0_1_3371)">
<path d="M64.3376 41.3175L45.8888 30.6254L64.3376 19.9333C65.3772 19.3307 65.7328 17.9974 65.1329 16.9532L60.7871 9.39658C60.1872 8.35368 58.8585 7.99514 57.8188 8.5977L39.3701 19.2898V4.67537C39.3701 3.47024 38.397 2.49414 37.1972 2.49414H28.5055C27.3057 2.49414 26.3326 3.47024 26.3326 4.67537V19.2912L7.88389 8.59907C6.84426 7.9965 5.51553 8.35504 4.91564 9.39794L0.569813 16.9532C-0.0300795 17.9961 0.325513 19.3307 1.36515 19.9333L19.8139 30.6254L1.36515 41.3175C0.325513 41.9201 -0.0300795 43.2547 0.569813 44.2976L4.91564 51.8542C5.51553 52.8971 6.84426 53.2543 7.88389 52.6531L26.3326 41.961V56.9985C26.3326 58.2036 27.3057 59.1797 28.5055 59.1797H37.1972C38.397 59.1797 39.3701 58.2036 39.3701 56.9985V41.9596L57.8188 52.6518C58.8585 53.2543 60.1872 52.8971 60.7871 51.8529L65.1329 44.2963C65.7328 43.2534 65.3772 41.9201 64.3376 41.3175Z" fill="#F5BF42"/>
</g>
<g clip-path="url(#clip1_1_3371)">
<path d="M135.677 6.3701C128.705 0.461241 118.335 1.52408 111.935 8.09088L109.428 10.6594L106.922 8.09088C100.535 1.52408 90.1522 0.461241 83.1797 6.3701C75.1893 13.152 74.7694 25.324 81.92 32.6753L106.54 57.9555C108.131 59.5878 110.714 59.5878 112.304 57.9555L136.924 32.6753C144.088 25.324 143.668 13.152 135.677 6.3701Z" fill="#F9746E"/>
</g>
<g clip-path="url(#clip2_1_3371)">
<path d="M0.27832 91.4985C0.27832 88.1887 2.1837 85.1745 5.17354 83.7546L29.2219 72.334C31.5186 71.2433 34.1841 71.2433 36.4808 72.334L60.5292 83.7546C63.519 85.1745 65.4244 88.1887 65.4244 91.4985V118.723C65.4244 123.458 61.5862 127.296 56.8516 127.296H8.85114C4.1165 127.296 0.27832 123.458 0.27832 118.723V91.4985Z" fill="#4497C3"/>
</g>
<g clip-path="url(#clip3_1_3371)">
<path d="M94.0195 78.0217C93.4307 73.8316 89.8329 70.6104 85.482 70.6104C80.7168 70.6104 76.8554 74.4718 76.8554 79.2369C76.8554 83.2456 79.5905 86.614 83.2979 87.5828L94.0195 78.0217Z" fill="#CD995B"/>
<path d="M90.8076 78.5181C90.4427 75.9213 88.2129 73.9248 85.5163 73.9248C82.563 73.9248 80.1698 76.318 80.1698 79.2713C80.1698 81.7557 81.865 83.8434 84.1627 84.4438L90.8076 78.5181Z" fill="black"/>
<path d="M125.021 78.0217C125.61 73.8316 129.208 70.6104 133.559 70.6104C138.324 70.6104 142.186 74.4718 142.186 79.2369C142.186 83.2456 139.45 86.614 135.743 87.5828L125.021 78.0217Z" fill="#CD995B"/>
<path d="M128.482 78.1685C128.847 75.5716 131.077 73.5752 133.774 73.5752C136.727 73.5752 139.12 75.9684 139.12 78.9217C139.12 81.4061 137.425 83.4938 135.127 84.0942L128.482 78.1685Z" fill="black"/>
<path d="M109.452 127.296C116.569 127.296 130.44 127.073 137.574 117.464C140.305 113.784 142.048 108.732 142.048 101.789C142.048 76.7037 123.816 70.6104 109.452 70.6104C95.0877 70.6104 76.8555 76.3648 76.8555 101.789C76.8555 108.571 78.5192 113.548 81.138 117.204C88.2138 127.07 102.27 127.296 109.452 127.296Z" fill="#CD995B"/>
<path d="M109.655 106.061C113.141 105.824 116.848 102.359 116.848 99.325C116.848 96.2914 113.797 94.9248 109.287 94.9248H109.194C104.679 94.9248 101.629 96.1815 101.629 99.325C101.629 102.469 105.331 105.828 108.821 106.061H109.655Z" fill="black"/>
<path d="M95.3066 95.644C97.0422 95.644 98.4491 94.0522 98.4491 92.0886C98.4491 90.125 97.0422 88.5332 95.3066 88.5332C93.571 88.5332 92.1641 90.125 92.1641 92.0886C92.1641 94.0522 93.571 95.644 95.3066 95.644Z" fill="black"/>
<path d="M123.056 95.644C124.791 95.644 126.198 94.0522 126.198 92.0886C126.198 90.125 124.791 88.5332 123.056 88.5332C121.32 88.5332 119.913 90.125 119.913 92.0886C119.913 94.0522 121.32 95.644 123.056 95.644Z" fill="black"/>
<path d="M105.111 114.632C104.58 114.632 104.036 114.58 103.499 114.474C102.064 114.19 100.88 113.574 100.164 112.735C100.041 112.592 100.058 112.376 100.202 112.253C100.346 112.129 100.561 112.147 100.685 112.29C101.291 112.999 102.366 113.55 103.632 113.8C104.878 114.046 106.155 113.981 107.134 113.619C107.921 113.328 108.863 112.715 108.863 111.455V105.187C108.863 104.999 109.017 104.845 109.205 104.845C109.393 104.845 109.548 104.999 109.548 105.187V111.455C109.548 112.749 108.774 113.745 107.374 114.262C106.706 114.509 105.926 114.632 105.111 114.632Z" fill="black"/>
<path d="M113.31 114.632C112.495 114.632 111.715 114.509 111.051 114.262C109.647 113.745 108.877 112.749 108.877 111.455V105.187C108.877 104.999 109.031 104.845 109.219 104.845C109.408 104.845 109.562 104.999 109.562 105.187V111.455C109.562 112.718 110.5 113.328 111.29 113.619C112.269 113.981 113.546 114.046 114.792 113.8C116.059 113.55 117.134 112.999 117.74 112.29C117.863 112.147 118.079 112.129 118.222 112.253C118.366 112.376 118.383 112.592 118.26 112.735C117.545 113.571 116.36 114.19 114.926 114.474C114.382 114.58 113.837 114.632 113.31 114.632Z" fill="black"/>
</g>
<defs>
<clipPath id="clip0_1_3371">
<rect width="65.1461" height="56.6856" fill="white" transform="translate(0.27832 2.49414)"/>
</clipPath>
<clipPath id="clip1_1_3371">
<rect width="65.1461" height="56.6856" fill="white" transform="translate(76.8545 2.49414)"/>
</clipPath>
<clipPath id="clip2_1_3371">
<rect width="65.1461" height="56.6856" fill="white" transform="translate(0.27832 70.6104)"/>
</clipPath>
<clipPath id="clip3_1_3371">
<rect width="65.1461" height="56.6856" fill="white" transform="translate(76.8545 70.6104)"/>
</clipPath>
</defs>
</svg>
