<svg width="355" height="207" viewBox="0 0 355 207" fill="none" xmlns="http://www.w3.org/2000/svg">
<path d="M134.257 91.7948C127.305 88.7705 117.385 89.0867 111.056 92.7406C104.124 96.7424 104.124 103.228 111.056 107.23C116.887 110.596 125.766 111.128 132.569 108.828L134.257 91.7948Z" fill="#CD995B"/>
<path d="M130.314 94.9052C126.005 93.0308 119.857 93.2268 115.935 95.4914C111.638 97.9715 111.638 101.991 115.935 104.471C119.549 106.558 125.052 106.887 129.267 105.462L130.314 94.9052Z" fill="black"/>
<path d="M179.36 65.7572C174.121 61.7439 174.669 56.0173 180.998 52.3634C187.93 48.3616 199.164 48.3616 206.096 52.3634C211.928 55.7298 212.849 60.8556 208.865 64.7826L179.36 65.7572Z" fill="#CD995B"/>
<path d="M184.609 62.9744C181.362 60.4871 181.701 56.9379 185.624 54.6733C189.92 52.1931 196.883 52.1931 201.179 54.6733C204.793 56.7597 205.364 59.9365 202.895 62.3704L184.609 62.9744Z" fill="black"/>
<path d="M228.386 120.215C238.739 114.238 258.593 102.403 254.993 88.3418C253.613 82.9573 248.798 77.2508 238.699 71.4206C202.207 50.3539 166.821 60.548 145.926 72.6108C125.031 84.6736 106.879 104.817 143.864 126.169C153.729 131.864 163.39 134.647 172.518 135.518C197.163 137.861 217.938 126.246 228.386 120.215Z" fill="#CD995B"/>
<path d="M197.791 102.211C202.518 99.084 202.869 93.0615 198.456 90.5138C194.043 87.9661 187.618 89.3803 181.057 93.1679L180.921 93.246C174.354 97.0374 171.745 100.654 176.318 103.294C180.89 105.934 191.162 105.647 196.579 102.911L197.791 102.211Z" fill="black"/>
<path d="M161.765 105.512C164.29 104.055 164.021 101.537 161.164 99.8875C158.308 98.2385 153.946 98.0833 151.421 99.5408C148.896 100.998 149.165 103.517 152.022 105.166C154.878 106.815 159.24 106.97 161.765 105.512Z" fill="black"/>
<path d="M202.133 82.2082C204.657 80.7507 204.389 78.2324 201.532 76.5833C198.676 74.9343 194.313 74.7791 191.789 76.2366C189.264 77.6942 189.533 80.2125 192.389 81.8615C195.246 83.5105 199.608 83.6658 202.133 82.2082Z" fill="black"/>
<path d="M203.647 113.226C202.876 113.671 202.009 114.085 201.073 114.448C198.573 115.414 195.954 115.891 193.693 115.787C193.304 115.77 193.016 115.575 193.046 115.35C193.075 115.126 193.414 114.959 193.802 114.977C195.715 115.063 198.08 114.623 200.286 113.769C202.457 112.93 204.22 111.803 205.117 110.676C205.839 109.77 206.317 108.465 204.484 107.407L195.366 102.143C195.092 101.985 195.092 101.727 195.366 101.568C195.64 101.41 196.088 101.41 196.362 101.568L205.48 106.832C207.362 107.919 207.686 109.405 206.401 111.015C205.789 111.783 204.833 112.542 203.647 113.226Z" fill="black"/>
<path d="M215.573 106.342C214.388 107.026 213.073 107.578 211.748 107.929C208.955 108.673 206.385 108.484 204.503 107.397L195.385 102.133C195.111 101.975 195.111 101.716 195.385 101.558C195.659 101.4 196.107 101.4 196.381 101.558L205.499 106.822C207.336 107.883 209.587 107.607 211.161 107.187C213.113 106.67 215.065 105.652 216.519 104.398C217.998 103.125 218.76 101.759 218.61 100.655C218.58 100.431 218.869 100.236 219.258 100.218C219.646 100.201 219.985 100.368 220.015 100.592C220.189 101.894 219.367 103.409 217.694 104.853C217.057 105.399 216.34 105.899 215.573 106.342Z" fill="black"/>
<g filter="url(#filter0_f_31480_4470)">
<g filter="url(#filter1_f_31480_4470)">
<path d="M134.257 97.8819C127.306 94.8576 117.386 95.1738 111.057 98.8277C104.125 102.829 104.125 109.315 111.057 113.317C116.888 116.683 125.767 117.215 132.569 114.915L134.257 97.8819Z" fill="#BA884D"/>
</g>
<g filter="url(#filter2_f_31480_4470)">
<path d="M130.315 100.992C126.006 99.118 119.858 99.3139 115.936 101.579C111.639 104.059 111.639 108.078 115.936 110.558C119.55 112.645 125.053 112.974 129.268 111.549L130.315 100.992Z" fill="black"/>
</g>
<g filter="url(#filter3_f_31480_4470)">
<path d="M179.36 71.8444C174.121 67.8311 174.669 62.1045 180.998 58.4506C187.93 54.4488 199.164 54.4488 206.096 58.4506C211.928 61.817 212.849 66.9428 208.865 70.8698L179.36 71.8444Z" fill="#BA884D"/>
</g>
<g filter="url(#filter4_f_31480_4470)">
<path d="M184.61 69.0612C181.363 66.5739 181.702 63.0247 185.625 60.7601C189.921 58.2799 196.884 58.2799 201.18 60.7601C204.794 62.8465 205.365 66.0233 202.896 68.4572L184.61 69.0612Z" fill="black"/>
</g>
<g filter="url(#filter5_f_31480_4470)">
<path d="M228.386 126.302C238.739 120.325 258.593 108.49 254.993 94.4289C253.613 89.0443 248.798 83.3378 238.699 77.5077C202.207 56.4409 166.821 66.6351 145.926 78.6978C125.031 90.7606 106.879 110.904 143.864 132.256C153.729 137.951 163.39 140.734 172.518 141.605C197.163 143.948 217.938 132.333 228.386 126.302Z" fill="#BA884D"/>
</g>
<g filter="url(#filter6_f_31480_4470)">
<path d="M197.791 108.298C202.518 105.171 202.869 99.1485 198.456 96.6009C194.043 94.0532 187.618 95.4673 181.057 99.2549L180.921 99.3331C174.354 103.124 171.745 106.742 176.318 109.381C180.89 112.021 191.162 111.734 196.579 108.998L197.791 108.298Z" fill="black"/>
</g>
<g filter="url(#filter7_f_31480_4470)">
<path d="M161.766 111.599C164.291 110.142 164.022 107.624 161.165 105.975C158.309 104.326 153.947 104.17 151.422 105.628C148.897 107.085 149.166 109.604 152.023 111.253C154.879 112.902 159.241 113.057 161.766 111.599Z" fill="black"/>
</g>
<g filter="url(#filter8_f_31480_4470)">
<path d="M202.133 88.2954C204.658 86.8379 204.389 84.3195 201.533 82.6705C198.676 81.0215 194.314 80.8663 191.789 82.3238C189.264 83.7813 189.533 86.2997 192.39 87.9487C195.246 89.5977 199.608 89.7529 202.133 88.2954Z" fill="black"/>
</g>
<path d="M203.648 119.313C202.876 119.759 202.01 120.172 201.073 120.535C198.574 121.501 195.954 121.978 193.693 121.874C193.305 121.857 193.016 121.662 193.046 121.437C193.076 121.213 193.415 121.046 193.803 121.064C195.715 121.15 198.081 120.71 200.287 119.856C202.458 119.017 204.221 117.89 205.117 116.763C205.839 115.857 206.317 114.552 204.485 113.494L195.367 108.23C195.093 108.072 195.093 107.814 195.367 107.656C195.64 107.497 196.089 107.497 196.363 107.656L205.481 112.919C207.363 114.006 207.687 115.492 206.402 117.102C205.789 117.87 204.833 118.629 203.648 119.313Z" fill="black"/>
<path d="M215.573 112.429C214.388 113.113 213.073 113.665 211.748 114.016C208.955 114.76 206.385 114.571 204.503 113.484L195.385 108.22C195.111 108.062 195.111 107.803 195.385 107.645C195.659 107.487 196.107 107.487 196.381 107.645L205.499 112.909C207.336 113.97 209.587 113.694 211.161 113.274C213.113 112.757 215.065 111.739 216.519 110.486C217.998 109.212 218.76 107.846 218.61 106.743C218.58 106.518 218.869 106.323 219.258 106.306C219.646 106.288 219.985 106.455 220.015 106.679C220.189 107.982 219.367 109.497 217.694 110.94C217.057 111.486 216.34 111.986 215.573 112.429Z" fill="black"/>
<g filter="url(#filter9_f_31480_4470)">
<path d="M124.5 99.969C117.548 96.9447 107.628 97.2609 101.299 100.915C94.3673 104.917 94.3673 111.402 101.299 115.404C107.131 118.77 116.009 119.302 122.812 117.002L124.5 99.969Z" fill="#CD995B"/>
<path d="M120.557 103.079C116.248 101.205 110.1 101.401 106.178 103.666C101.882 106.146 101.882 110.165 106.178 112.646C109.792 114.732 115.295 115.062 119.511 113.636L120.557 103.079Z" fill="black"/>
<path d="M169.603 73.9315C164.364 69.9183 164.912 64.1916 171.241 60.5377C178.173 56.536 189.408 56.536 196.339 60.5377C202.171 63.9041 203.092 69.0299 199.108 72.9569L169.603 73.9315Z" fill="#CD995B"/>
<path d="M174.852 71.1486C171.605 68.6613 171.944 65.1121 175.867 62.8475C180.163 60.3673 187.126 60.3673 191.422 62.8475C195.036 64.9339 195.607 68.1107 193.138 70.5446L174.852 71.1486Z" fill="black"/>
<path d="M218.629 128.389C228.982 122.412 248.836 110.577 245.236 96.516C243.857 91.1315 239.041 85.425 228.942 79.5948C192.45 58.5281 157.064 68.7222 136.169 80.785C115.274 92.8477 97.1225 112.992 134.107 134.343C143.972 140.038 153.633 142.821 162.761 143.692C187.406 146.035 208.181 134.421 218.629 128.389Z" fill="#CD995B"/>
<path d="M188.034 110.385C192.761 107.258 193.112 101.236 188.699 98.6881C184.286 96.1404 177.861 97.5545 171.3 101.342L171.164 101.42C164.597 105.212 161.988 108.829 166.561 111.469C171.134 114.109 181.405 113.821 186.822 111.085L188.034 110.385Z" fill="black"/>
<path d="M152.009 113.687C154.533 112.229 154.265 109.711 151.408 108.062C148.552 106.413 144.189 106.258 141.665 107.715C139.14 109.173 139.409 111.691 142.265 113.34C145.122 114.989 149.484 115.144 152.009 113.687Z" fill="black"/>
<path d="M192.376 90.3824C194.901 88.9249 194.632 86.4065 191.775 84.7575C188.919 83.1085 184.557 82.9533 182.032 84.4108C179.507 85.8684 179.776 88.3867 182.632 90.0357C185.489 91.6847 189.851 91.84 192.376 90.3824Z" fill="black"/>
<path d="M193.89 121.4C193.118 121.846 192.252 122.26 191.316 122.622C188.816 123.588 186.196 124.065 183.936 123.962C183.547 123.944 183.258 123.749 183.288 123.525C183.318 123.3 183.657 123.134 184.045 123.151C185.957 123.237 188.323 122.797 190.529 121.944C192.7 121.104 194.463 119.977 195.359 118.85C196.081 117.945 196.559 116.639 194.727 115.582L185.609 110.318C185.335 110.16 185.335 109.901 185.609 109.743C185.883 109.585 186.331 109.585 186.605 109.743L195.723 115.007C197.605 116.093 197.929 117.58 196.644 119.189C196.031 119.957 195.075 120.716 193.89 121.4Z" fill="black"/>
<path d="M205.815 114.516C204.63 115.2 203.315 115.752 201.99 116.103C199.197 116.848 196.627 116.658 194.745 115.571L185.627 110.307C185.353 110.149 185.353 109.891 185.627 109.732C185.901 109.574 186.349 109.574 186.623 109.732L195.741 114.996C197.578 116.057 199.829 115.781 201.403 115.361C203.355 114.844 205.307 113.826 206.761 112.573C208.24 111.299 209.002 109.934 208.853 108.83C208.823 108.605 209.111 108.41 209.5 108.393C209.888 108.376 210.227 108.542 210.257 108.766C210.431 110.069 209.609 111.584 207.936 113.027C207.299 113.573 206.582 114.073 205.815 114.516Z" fill="black"/>
</g>
</g>
<path d="M134.257 91.7948C127.305 88.7705 117.385 89.0867 111.056 92.7406C104.124 96.7424 104.124 103.228 111.056 107.23C116.887 110.596 125.766 111.128 132.569 108.828L134.257 91.7948Z" fill="#CD995B"/>
<path d="M130.314 94.9052C126.005 93.0308 119.857 93.2268 115.935 95.4914C111.638 97.9715 111.638 101.991 115.935 104.471C119.549 106.558 125.052 106.887 129.267 105.462L130.314 94.9052Z" fill="black"/>
<path d="M179.36 65.7572C174.121 61.7439 174.669 56.0173 180.998 52.3634C187.93 48.3616 199.164 48.3616 206.096 52.3634C211.928 55.7298 212.849 60.8556 208.865 64.7826L179.36 65.7572Z" fill="#CD995B"/>
<path d="M184.609 62.9744C181.362 60.4871 181.701 56.9379 185.624 54.6733C189.92 52.1931 196.883 52.1931 201.179 54.6733C204.793 56.7597 205.364 59.9365 202.895 62.3704L184.609 62.9744Z" fill="black"/>
<path d="M228.386 120.215C238.739 114.238 258.593 102.403 254.993 88.3418C253.613 82.9573 248.798 77.2508 238.699 71.4206C202.207 50.3539 166.821 60.548 145.926 72.6108C125.031 84.6736 106.879 104.817 143.864 126.169C153.729 131.864 163.39 134.647 172.518 135.518C197.163 137.861 217.938 126.246 228.386 120.215Z" fill="#CD995B"/>
<path d="M197.791 102.211C202.518 99.084 202.869 93.0615 198.456 90.5138C194.043 87.9661 187.618 89.3803 181.057 93.1679L180.921 93.246C174.354 97.0374 171.745 100.654 176.318 103.294C180.89 105.934 191.162 105.647 196.579 102.911L197.791 102.211Z" fill="black"/>
<path d="M161.765 105.512C164.29 104.055 164.021 101.537 161.164 99.8875C158.308 98.2385 153.946 98.0833 151.421 99.5408C148.896 100.998 149.165 103.517 152.022 105.166C154.878 106.815 159.24 106.97 161.765 105.512Z" fill="black"/>
<path d="M202.133 82.2082C204.657 80.7507 204.389 78.2324 201.532 76.5833C198.676 74.9343 194.313 74.7791 191.789 76.2366C189.264 77.6942 189.533 80.2125 192.389 81.8615C195.246 83.5105 199.608 83.6658 202.133 82.2082Z" fill="black"/>
<path d="M203.647 113.226C202.876 113.671 202.009 114.085 201.073 114.448C198.573 115.414 195.954 115.891 193.693 115.787C193.304 115.77 193.016 115.575 193.046 115.35C193.075 115.126 193.414 114.959 193.802 114.977C195.715 115.063 198.08 114.623 200.286 113.769C202.457 112.93 204.22 111.803 205.117 110.676C205.839 109.77 206.317 108.465 204.484 107.407L195.366 102.143C195.092 101.985 195.092 101.727 195.366 101.568C195.64 101.41 196.088 101.41 196.362 101.568L205.48 106.832C207.362 107.919 207.686 109.405 206.401 111.015C205.789 111.783 204.833 112.542 203.647 113.226Z" fill="black"/>
<path d="M215.573 106.342C214.388 107.026 213.073 107.578 211.748 107.929C208.955 108.673 206.385 108.484 204.503 107.397L195.385 102.133C195.111 101.975 195.111 101.716 195.385 101.558C195.659 101.4 196.107 101.4 196.381 101.558L205.499 106.822C207.336 107.883 209.587 107.607 211.161 107.187C213.113 106.67 215.065 105.652 216.519 104.398C217.998 103.125 218.76 101.759 218.61 100.655C218.58 100.431 218.869 100.236 219.258 100.218C219.646 100.201 219.985 100.368 220.015 100.592C220.189 101.894 219.367 103.409 217.694 104.853C217.057 105.399 216.34 105.899 215.573 106.342Z" fill="black"/>
<mask id="path-41-outside-1_31480_4470" maskUnits="userSpaceOnUse" x="102.556" y="42.1185" width="156" height="93" fill="black">
<rect fill="white" x="102.556" y="42.1185" width="156" height="93"/>
<path fill-rule="evenodd" clip-rule="evenodd" d="M180.696 48.1198C187.628 44.1181 198.862 44.1181 205.794 48.1198C209.573 50.3016 211.291 53.2224 210.946 56.0769C210.923 56.2741 210.875 56.4647 210.81 56.6501C219.783 58.4387 229.054 61.7826 238.398 67.1765C248.497 73.0066 253.312 78.7138 254.692 84.0983C258.291 98.1589 238.437 109.995 228.084 115.971C217.636 122.003 196.861 133.617 172.216 131.274C163.088 130.403 153.428 127.62 143.563 121.925C134.119 116.473 128.272 111.099 125.146 105.92C124.947 105.937 124.745 105.951 124.538 105.96C119.594 106.158 114.534 105.168 110.755 102.986C103.823 98.9843 103.823 92.4985 110.755 88.4968C114.818 86.1516 120.359 85.1819 125.646 85.5876C129.876 78.9041 137.545 73.0312 145.624 68.3669C153.729 63.688 164.014 59.2907 175.698 56.8894C174.89 53.7856 176.557 50.5096 180.696 48.1198Z"/>
</mask>
<path fill-rule="evenodd" clip-rule="evenodd" d="M180.696 48.1198C187.628 44.1181 198.862 44.1181 205.794 48.1198C209.573 50.3016 211.291 53.2224 210.946 56.0769C210.923 56.2741 210.875 56.4647 210.81 56.6501C219.783 58.4387 229.054 61.7826 238.398 67.1765C248.497 73.0066 253.312 78.7138 254.692 84.0983C258.291 98.1589 238.437 109.995 228.084 115.971C217.636 122.003 196.861 133.617 172.216 131.274C163.088 130.403 153.428 127.62 143.563 121.925C134.119 116.473 128.272 111.099 125.146 105.92C124.947 105.937 124.745 105.951 124.538 105.96C119.594 106.158 114.534 105.168 110.755 102.986C103.823 98.9843 103.823 92.4985 110.755 88.4968C114.818 86.1516 120.359 85.1819 125.646 85.5876C129.876 78.9041 137.545 73.0312 145.624 68.3669C153.729 63.688 164.014 59.2907 175.698 56.8894C174.89 53.7856 176.557 50.5096 180.696 48.1198Z" fill="white" fill-opacity="0.15"/>
<path fill-rule="evenodd" clip-rule="evenodd" d="M180.696 48.1198C187.628 44.1181 198.862 44.1181 205.794 48.1198C209.573 50.3016 211.291 53.2224 210.946 56.0769C210.923 56.2741 210.875 56.4647 210.81 56.6501C219.783 58.4387 229.054 61.7826 238.398 67.1765C248.497 73.0066 253.312 78.7138 254.692 84.0983C258.291 98.1589 238.437 109.995 228.084 115.971C217.636 122.003 196.861 133.617 172.216 131.274C163.088 130.403 153.428 127.62 143.563 121.925C134.119 116.473 128.272 111.099 125.146 105.92C124.947 105.937 124.745 105.951 124.538 105.96C119.594 106.158 114.534 105.168 110.755 102.986C103.823 98.9843 103.823 92.4985 110.755 88.4968C114.818 86.1516 120.359 85.1819 125.646 85.5876C129.876 78.9041 137.545 73.0312 145.624 68.3669C153.729 63.688 164.014 59.2907 175.698 56.8894C174.89 53.7856 176.557 50.5096 180.696 48.1198Z" fill="url(#paint0_linear_31480_4470)"/>
<path d="M180.696 48.1198L179.258 45.6284L179.258 45.6284L180.696 48.1198ZM205.794 48.1198L207.232 45.6284L207.232 45.6284L205.794 48.1198ZM210.946 56.0769L213.803 56.4215L213.803 56.4212L210.946 56.0769ZM210.81 56.6501L208.095 55.6967C207.819 56.4831 207.898 57.3507 208.311 58.0749C208.723 58.799 209.43 59.3085 210.247 59.4714L210.81 56.6501ZM238.398 67.1765L239.836 64.685V64.685L238.398 67.1765ZM254.692 84.0983L257.479 83.3848L257.478 83.3844L254.692 84.0983ZM228.084 115.971L229.522 118.463V118.463L228.084 115.971ZM172.216 131.274L171.943 134.138L171.944 134.138L172.216 131.274ZM143.563 121.925L142.124 124.416V124.416L143.563 121.925ZM125.146 105.92L127.609 104.433C127.042 103.494 125.991 102.959 124.899 103.053L125.146 105.92ZM124.538 105.96L124.654 108.834L124.654 108.834L124.538 105.96ZM110.755 102.986L109.317 105.477L109.317 105.478L110.755 102.986ZM110.755 88.4968L109.317 86.0053L109.317 86.0053L110.755 88.4968ZM125.646 85.5876L125.426 88.456C126.487 88.5374 127.507 88.0258 128.077 87.1261L125.646 85.5876ZM145.624 68.3669L144.186 65.8754L145.624 68.3669ZM175.698 56.8894L176.278 59.7073C177.05 59.5484 177.724 59.0792 178.141 58.4094C178.558 57.7397 178.681 56.9281 178.482 56.1646L175.698 56.8894ZM180.696 48.1198L182.135 50.6113C185.061 48.9222 189.075 47.9954 193.245 47.9953C197.415 47.9953 201.43 48.9222 204.356 50.6113L205.794 48.1198L207.232 45.6284C203.226 43.3157 198.158 42.2417 193.245 42.2417C188.333 42.2417 183.264 43.3157 179.258 45.6284L180.696 48.1198ZM205.794 48.1198L204.356 50.6113C207.563 52.4629 208.246 54.4417 208.09 55.7325L210.946 56.0769L213.803 56.4212C214.335 52.0031 211.584 48.1403 207.232 45.6284L205.794 48.1198ZM210.946 56.0769L208.09 55.7322C208.095 55.6922 208.102 55.6779 208.095 55.6967L210.81 56.6501L213.524 57.6035C213.648 57.2514 213.75 56.8561 213.803 56.4215L210.946 56.0769ZM210.81 56.6501L210.247 59.4714C218.914 61.1988 227.889 64.4316 236.959 69.6679L238.398 67.1765L239.836 64.685C230.22 59.1337 220.653 55.6786 211.372 53.8288L210.81 56.6501ZM238.398 67.1765L236.959 69.6679C246.798 75.3477 250.81 80.5372 251.905 84.8123L254.692 84.0983L257.478 83.3844C255.815 76.8905 250.195 70.6654 239.836 64.685L238.398 67.1765ZM254.692 84.0983L251.905 84.8118C253.291 90.2256 250.29 95.6637 244.649 100.971C239.117 106.176 231.843 110.479 226.646 113.48L228.084 115.971L229.522 118.463C234.678 115.487 242.508 110.884 248.591 105.162C254.565 99.5417 259.692 92.0316 257.479 83.3848L254.692 84.0983ZM228.084 115.971L226.646 113.48C216.204 119.508 196.14 130.659 172.488 128.41L172.216 131.274L171.944 134.138C197.581 136.575 219.069 124.498 229.522 118.463L228.084 115.971ZM172.216 131.274L172.489 128.41C163.761 127.577 154.5 124.917 145.001 119.433L143.563 121.925L142.124 124.416C152.355 130.322 162.415 133.229 171.943 134.138L172.216 131.274ZM143.563 121.925L145.001 119.433C135.777 114.108 130.386 109.034 127.609 104.433L125.146 105.92L122.683 107.406C126.158 113.164 132.462 118.838 142.124 124.416L143.563 121.925ZM125.146 105.92L124.899 103.053C124.725 103.068 124.57 103.079 124.423 103.085L124.538 105.96L124.654 108.834C124.919 108.823 125.168 108.805 125.392 108.786L125.146 105.92ZM124.538 105.96L124.423 103.085C119.877 103.268 115.39 102.34 112.193 100.495L110.755 102.986L109.317 105.478C113.679 107.996 119.311 109.049 124.654 108.834L124.538 105.96ZM110.755 102.986L112.193 100.495C109.251 98.796 108.433 96.9728 108.433 95.7414C108.433 94.51 109.251 92.6868 112.193 90.9882L110.755 88.4968L109.317 86.0053C105.327 88.3085 102.679 91.729 102.679 95.7414C102.679 99.7538 105.327 103.174 109.317 105.477L110.755 102.986ZM110.755 88.4968L112.193 90.9883C115.636 89.0008 120.565 88.083 125.426 88.456L125.646 85.5876L125.866 82.7192C120.153 82.2809 113.999 83.3024 109.317 86.0053L110.755 88.4968ZM125.646 85.5876L128.077 87.1261C131.932 81.0341 139.116 75.4456 147.062 70.8583L145.624 68.3669L144.186 65.8754C135.973 70.6168 127.819 76.7741 123.215 84.0491L125.646 85.5876ZM145.624 68.3669L147.062 70.8583C154.941 66.3102 164.938 62.0378 176.278 59.7073L175.698 56.8894L175.119 54.0714C163.09 56.5436 152.517 61.0657 144.186 65.8754L145.624 68.3669ZM175.698 56.8894L178.482 56.1646C178.123 54.7851 178.629 52.6351 182.135 50.6113L180.696 48.1198L179.258 45.6284C174.485 48.3841 171.657 52.786 172.914 57.6141L175.698 56.8894Z" fill="url(#paint1_linear_31480_4470)" mask="url(#path-41-outside-1_31480_4470)"/>
<defs>
<filter id="filter0_f_31480_4470" x="91.9575" y="51.3066" width="167.608" height="96.8356" filterUnits="userSpaceOnUse" color-interpolation-filters="sRGB">
<feFlood flood-opacity="0" result="BackgroundImageFix"/>
<feBlend mode="normal" in="SourceGraphic" in2="BackgroundImageFix" result="shape"/>
<feGaussianBlur stdDeviation="2.07131" result="effect1_foregroundBlur_31480_4470"/>
</filter>
<filter id="filter1_f_31480_4470" x="103.383" y="93.3541" width="33.348" height="25.436" filterUnits="userSpaceOnUse" color-interpolation-filters="sRGB">
<feFlood flood-opacity="0" result="BackgroundImageFix"/>
<feBlend mode="normal" in="SourceGraphic" in2="BackgroundImageFix" result="shape"/>
<feGaussianBlur stdDeviation="1.23703" result="effect1_foregroundBlur_31480_4470"/>
</filter>
<filter id="filter2_f_31480_4470" x="110.239" y="97.2454" width="22.5492" height="17.6459" filterUnits="userSpaceOnUse" color-interpolation-filters="sRGB">
<feFlood flood-opacity="0" result="BackgroundImageFix"/>
<feBlend mode="normal" in="SourceGraphic" in2="BackgroundImageFix" result="shape"/>
<feGaussianBlur stdDeviation="1.23703" result="effect1_foregroundBlur_31480_4470"/>
</filter>
<filter id="filter3_f_31480_4470" x="173.328" y="52.9752" width="40.4374" height="21.3433" filterUnits="userSpaceOnUse" color-interpolation-filters="sRGB">
<feFlood flood-opacity="0" result="BackgroundImageFix"/>
<feBlend mode="normal" in="SourceGraphic" in2="BackgroundImageFix" result="shape"/>
<feGaussianBlur stdDeviation="1.23703" result="effect1_foregroundBlur_31480_4470"/>
</filter>
<filter id="filter4_f_31480_4470" x="179.931" y="56.426" width="26.9432" height="15.1093" filterUnits="userSpaceOnUse" color-interpolation-filters="sRGB">
<feFlood flood-opacity="0" result="BackgroundImageFix"/>
<feBlend mode="normal" in="SourceGraphic" in2="BackgroundImageFix" result="shape"/>
<feGaussianBlur stdDeviation="1.23703" result="effect1_foregroundBlur_31480_4470"/>
</filter>
<filter id="filter5_f_31480_4470" x="120.086" y="62.8552" width="137.812" height="81.5313" filterUnits="userSpaceOnUse" color-interpolation-filters="sRGB">
<feFlood flood-opacity="0" result="BackgroundImageFix"/>
<feBlend mode="normal" in="SourceGraphic" in2="BackgroundImageFix" result="shape"/>
<feGaussianBlur stdDeviation="1.23703" result="effect1_foregroundBlur_31480_4470"/>
</filter>
<filter id="filter6_f_31480_4470" x="171.543" y="92.8394" width="32.4931" height="20.848" filterUnits="userSpaceOnUse" color-interpolation-filters="sRGB">
<feFlood flood-opacity="0" result="BackgroundImageFix"/>
<feBlend mode="normal" in="SourceGraphic" in2="BackgroundImageFix" result="shape"/>
<feGaussianBlur stdDeviation="1.23703" result="effect1_foregroundBlur_31480_4470"/>
</filter>
<filter id="filter7_f_31480_4470" x="147.217" y="102.155" width="18.7533" height="12.9181" filterUnits="userSpaceOnUse" color-interpolation-filters="sRGB">
<feFlood flood-opacity="0" result="BackgroundImageFix"/>
<feBlend mode="normal" in="SourceGraphic" in2="BackgroundImageFix" result="shape"/>
<feGaussianBlur stdDeviation="1.23703" result="effect1_foregroundBlur_31480_4470"/>
</filter>
<filter id="filter8_f_31480_4470" x="187.585" y="78.8505" width="18.7533" height="12.9181" filterUnits="userSpaceOnUse" color-interpolation-filters="sRGB">
<feFlood flood-opacity="0" result="BackgroundImageFix"/>
<feBlend mode="normal" in="SourceGraphic" in2="BackgroundImageFix" result="shape"/>
<feGaussianBlur stdDeviation="1.23703" result="effect1_foregroundBlur_31480_4470"/>
</filter>
<filter id="filter9_f_31480_4470" x="38.5637" y="-7.62939e-06" width="264.639" height="201.536" filterUnits="userSpaceOnUse" color-interpolation-filters="sRGB">
<feFlood flood-opacity="0" result="BackgroundImageFix"/>
<feBlend mode="normal" in="SourceGraphic" in2="BackgroundImageFix" result="shape"/>
<feGaussianBlur stdDeviation="28.7682" result="effect1_foregroundBlur_31480_4470"/>
</filter>
<linearGradient id="paint0_linear_31480_4470" x1="185.969" y1="86.4465" x2="216.131" y2="140.468" gradientUnits="userSpaceOnUse">
<stop stop-color="white" stop-opacity="0.2"/>
<stop offset="1" stop-color="#BB8950"/>
</linearGradient>
<linearGradient id="paint1_linear_31480_4470" x1="111.007" y1="79.9612" x2="173.904" y2="161.39" gradientUnits="userSpaceOnUse">
<stop stop-color="#FFDFBA"/>
<stop offset="1" stop-color="#CD995B"/>
</linearGradient>
</defs>
</svg>
