<svg width="518" height="437" viewBox="0 0 518 437" fill="none" xmlns="http://www.w3.org/2000/svg">
<g filter="url(#filter0_f_31480_4534)">
<path d="M323.21 205.148L278.677 212.044L290.623 186.335C291.296 184.886 289.808 183.399 287.299 183.01L269.131 180.203C266.623 179.815 264.043 180.674 263.37 182.123L251.424 207.832L218.838 189.02C217.002 187.96 214.025 187.961 212.188 189.022L198.884 196.702C197.047 197.763 197.045 199.481 198.882 200.541L231.469 219.354L186.936 226.251C184.426 226.639 182.938 228.129 183.609 229.576L188.471 240.064C189.142 241.511 191.72 242.371 194.23 241.983L238.763 235.086L226.817 260.795C226.144 262.244 227.634 263.733 230.141 264.12L248.309 266.928C250.817 267.315 253.395 266.455 254.07 265.007L266.016 239.298L298.602 258.11C300.438 259.17 303.415 259.169 305.252 258.109L318.556 250.428C320.393 249.368 320.395 247.649 318.558 246.589L285.971 227.776L330.504 220.88C333.014 220.491 334.504 219.003 333.83 217.554L328.967 207.065C328.296 205.618 325.72 204.759 323.21 205.148Z" fill="#F5BF42"/>
</g>
<path d="M323.21 205.148L278.677 212.044L290.623 186.335C291.296 184.886 289.808 183.399 287.299 183.01L269.131 180.203C266.623 179.815 264.043 180.674 263.37 182.123L251.424 207.832L218.838 189.02C217.002 187.96 214.025 187.961 212.188 189.022L198.884 196.702C197.047 197.763 197.045 199.481 198.882 200.541L231.469 219.354L186.936 226.251C184.426 226.639 182.938 228.129 183.609 229.576L188.471 240.064C189.142 241.511 191.72 242.371 194.23 241.983L238.763 235.086L226.817 260.795C226.144 262.244 227.634 263.733 230.141 264.12L248.309 266.928C250.817 267.315 253.395 266.455 254.07 265.007L266.016 239.298L298.602 258.11C300.438 259.17 303.415 259.169 305.252 258.109L318.556 250.428C320.393 249.368 320.395 247.649 318.558 246.589L285.971 227.776L330.504 220.88C333.014 220.491 334.504 219.003 333.83 217.554L328.967 207.065C328.296 205.618 325.72 204.759 323.21 205.148Z" fill="#F5BF42"/>
<g filter="url(#filter1_f_31480_4534)">
<rect width="107.69" height="107.69" transform="matrix(0.86414 -0.503252 0.86414 0.503252 165.676 219.871)" fill="#FAA839"/>
</g>
<g filter="url(#filter2_f_31480_4534)">
<path d="M323.21 203.153L290.359 208.241C285.168 209.045 280.418 206.302 281.81 203.306L290.623 184.341C291.296 182.892 289.808 181.405 287.299 181.016L269.131 178.208C266.623 177.821 264.043 178.68 263.37 180.128L254.555 199.1C253.163 202.095 246.678 203.098 242.879 200.905L218.838 187.026C217.002 185.966 214.025 185.967 212.188 187.027L198.884 194.708C197.047 195.768 197.045 197.487 198.882 198.547L222.925 212.427C226.723 214.62 224.986 218.364 219.798 219.167L186.936 224.256C184.426 224.645 182.938 226.135 183.609 227.582L188.471 238.069C189.142 239.517 191.72 240.377 194.23 239.988L227.081 234.901C232.271 234.097 237.022 236.84 235.63 239.836L226.817 258.801C226.144 260.25 227.634 261.738 230.141 262.126L248.309 264.933C250.817 265.321 253.395 264.461 254.07 263.013L262.885 244.042C264.277 241.047 270.762 240.044 274.561 242.237L298.602 256.116C300.438 257.176 303.415 257.175 305.252 256.114L318.556 248.434C320.393 247.373 320.395 245.655 318.558 244.595L294.515 230.714C290.717 228.522 292.454 224.778 297.642 223.974L330.504 218.885C333.014 218.497 334.504 217.008 333.83 215.559L328.967 205.071C328.296 203.624 325.72 202.765 323.21 203.153Z" fill="#FCB346"/>
</g>
<g filter="url(#filter3_f_31480_4534)">
<path d="M323.21 199.735L290.359 204.822C285.168 205.626 280.418 202.883 281.81 199.887L290.623 180.922C291.296 179.473 289.808 177.986 287.299 177.597L269.131 174.789C266.623 174.402 264.043 175.261 263.37 176.71L254.555 195.681C253.163 198.676 246.678 199.679 242.879 197.486L218.838 183.607C217.002 182.547 214.025 182.548 212.188 183.608L198.884 191.289C197.047 192.349 197.045 194.068 198.882 195.128L222.925 209.008C226.723 211.201 224.986 214.945 219.798 215.748L186.936 220.837C184.426 221.226 182.938 222.716 183.609 224.163L188.471 234.65C189.142 236.098 191.72 236.958 194.23 236.569L227.081 231.482C232.271 230.678 237.022 233.421 235.63 236.417L226.817 255.382C226.144 256.831 227.634 258.319 230.141 258.707L248.309 261.514C250.817 261.902 253.395 261.042 254.07 259.594L262.885 240.623C264.277 237.628 270.762 236.625 274.561 238.818L298.602 252.697C300.438 253.757 303.415 253.756 305.252 252.695L318.556 245.015C320.393 243.955 320.395 242.236 318.558 241.176L294.515 227.295C290.717 225.103 292.454 221.359 297.642 220.555L330.504 215.466C333.014 215.078 334.504 213.589 333.83 212.141L328.967 201.652C328.296 200.205 325.72 199.346 323.21 199.735Z" fill="#E19836"/>
</g>
<path d="M211.571 179.264C213.748 178.008 217.277 178.005 219.455 179.262L243.496 193.141C246.82 195.06 252.493 194.183 253.711 191.562L262.527 172.591C263.325 170.873 266.384 169.855 269.356 170.315L287.524 173.122C290.499 173.583 292.263 175.346 291.465 177.064L282.653 196.029C281.435 198.65 285.591 201.05 290.133 200.347L322.984 195.26C325.866 194.813 328.823 195.755 329.729 197.374L329.81 197.533L334.672 208.022C335.47 209.739 333.704 211.504 330.73 211.964L297.868 217.054C293.328 217.757 291.809 221.032 295.133 222.951L319.175 236.831C321.353 238.088 321.35 240.126 319.173 241.383L305.868 249.063C303.692 250.32 300.162 250.321 297.984 249.064L273.943 235.185C270.62 233.267 264.945 234.144 263.727 236.765L254.913 255.736L254.912 255.737C254.112 257.452 251.057 258.471 248.084 258.012L229.915 255.204C226.943 254.745 225.177 252.98 225.975 251.263L234.787 232.298C236.005 229.676 231.849 227.276 227.307 227.98L194.456 233.067C191.481 233.527 188.424 232.508 187.628 230.792L182.768 220.305C181.972 218.589 183.734 216.823 186.71 216.362L219.572 211.274C224.111 210.571 225.631 207.295 222.308 205.376L198.264 191.496C196.087 190.239 196.09 188.201 198.267 186.945L211.571 179.264Z" fill="white" fill-opacity="0.43"/>
<path d="M211.571 179.264C213.748 178.008 217.277 178.005 219.455 179.262L243.496 193.141C246.82 195.06 252.493 194.183 253.711 191.562L262.527 172.591C263.325 170.873 266.384 169.855 269.356 170.315L287.524 173.122C290.499 173.583 292.263 175.346 291.465 177.064L282.653 196.029C281.435 198.65 285.591 201.05 290.133 200.347L322.984 195.26C325.866 194.813 328.823 195.755 329.729 197.374L329.81 197.533L334.672 208.022C335.47 209.739 333.704 211.504 330.73 211.964L297.868 217.054C293.328 217.757 291.809 221.032 295.133 222.951L319.175 236.831C321.353 238.088 321.35 240.126 319.173 241.383L305.868 249.063C303.692 250.32 300.162 250.321 297.984 249.064L273.943 235.185C270.62 233.267 264.945 234.144 263.727 236.765L254.913 255.736L254.912 255.737C254.112 257.452 251.057 258.471 248.084 258.012L229.915 255.204C226.943 254.745 225.177 252.98 225.975 251.263L234.787 232.298C236.005 229.676 231.849 227.276 227.307 227.98L194.456 233.067C191.481 233.527 188.424 232.508 187.628 230.792L182.768 220.305C181.972 218.589 183.734 216.823 186.71 216.362L219.572 211.274C224.111 210.571 225.631 207.295 222.308 205.376L198.264 191.496C196.087 190.239 196.09 188.201 198.267 186.945L211.571 179.264Z" fill="url(#paint0_linear_31480_4534)"/>
<path d="M211.571 179.264C213.748 178.008 217.277 178.005 219.455 179.262L243.496 193.141C246.82 195.06 252.493 194.183 253.711 191.562L262.527 172.591C263.325 170.873 266.384 169.855 269.356 170.315L287.524 173.122C290.499 173.583 292.263 175.346 291.465 177.064L282.653 196.029C281.435 198.65 285.591 201.05 290.133 200.347L322.984 195.26C325.866 194.813 328.823 195.755 329.729 197.374L329.81 197.533L334.672 208.022C335.47 209.739 333.704 211.504 330.73 211.964L297.868 217.054C293.328 217.757 291.809 221.032 295.133 222.951L319.175 236.831C321.353 238.088 321.35 240.126 319.173 241.383L305.868 249.063C303.692 250.32 300.162 250.321 297.984 249.064L273.943 235.185C270.62 233.267 264.945 234.144 263.727 236.765L254.913 255.736L254.912 255.737C254.112 257.452 251.057 258.471 248.084 258.012L229.915 255.204C226.943 254.745 225.177 252.98 225.975 251.263L234.787 232.298C236.005 229.676 231.849 227.276 227.307 227.98L194.456 233.067C191.481 233.527 188.424 232.508 187.628 230.792L182.768 220.305C181.972 218.589 183.734 216.823 186.71 216.362L219.572 211.274C224.111 210.571 225.631 207.295 222.308 205.376L198.264 191.496C196.087 190.239 196.09 188.201 198.267 186.945L211.571 179.264Z" stroke="url(#paint1_linear_31480_4534)" stroke-width="1.4245"/>
<defs>
<filter id="filter0_f_31480_4534" x="166.953" y="163.614" width="183.535" height="119.902" filterUnits="userSpaceOnUse" color-interpolation-filters="sRGB">
<feFlood flood-opacity="0" result="BackgroundImageFix"/>
<feBlend mode="normal" in="SourceGraphic" in2="BackgroundImageFix" result="shape"/>
<feGaussianBlur stdDeviation="8.24786" result="effect1_foregroundBlur_31480_4534"/>
</filter>
<filter id="filter1_f_31480_4534" x="-7.62939e-05" y="4.57764e-05" width="517.47" height="439.742" filterUnits="userSpaceOnUse" color-interpolation-filters="sRGB">
<feFlood flood-opacity="0" result="BackgroundImageFix"/>
<feBlend mode="normal" in="SourceGraphic" in2="BackgroundImageFix" result="shape"/>
<feGaussianBlur stdDeviation="82.8379" result="effect1_foregroundBlur_31480_4534"/>
</filter>
<filter id="filter2_f_31480_4534" x="182.309" y="176.976" width="152.823" height="89.19" filterUnits="userSpaceOnUse" color-interpolation-filters="sRGB">
<feFlood flood-opacity="0" result="BackgroundImageFix"/>
<feBlend mode="normal" in="SourceGraphic" in2="BackgroundImageFix" result="shape"/>
<feGaussianBlur stdDeviation="0.569801" result="effect1_foregroundBlur_31480_4534"/>
</filter>
<filter id="filter3_f_31480_4534" x="180.913" y="172.161" width="155.615" height="91.982" filterUnits="userSpaceOnUse" color-interpolation-filters="sRGB">
<feFlood flood-opacity="0" result="BackgroundImageFix"/>
<feBlend mode="normal" in="SourceGraphic" in2="BackgroundImageFix" result="shape"/>
<feGaussianBlur stdDeviation="1.26781" result="effect1_foregroundBlur_31480_4534"/>
</filter>
<linearGradient id="paint0_linear_31480_4534" x1="205.536" y1="183.46" x2="260.677" y2="279.395" gradientUnits="userSpaceOnUse">
<stop stop-color="white" stop-opacity="0.11"/>
<stop offset="1" stop-color="#FCB346" stop-opacity="0"/>
</linearGradient>
<linearGradient id="paint1_linear_31480_4534" x1="198.696" y1="180.032" x2="227.319" y2="270.475" gradientUnits="userSpaceOnUse">
<stop stop-color="#FFE5A7"/>
<stop offset="1" stop-color="#FAA839"/>
</linearGradient>
</defs>
</svg>
