<svg width="1206" height="453" viewBox="0 0 1206 453" fill="none" xmlns="http://www.w3.org/2000/svg">
<g clip-path="url(#clip0_31491_4467)">
<style>
  #icon-asterisk,
  #icon-clinica,
  #icon-casa,
  #icon-metodo {
    transform-box: fill-box;
    transform-origin: center;
    animation: iconWave 3.6s cubic-bezier(0.45, 0.05, 0.55, 0.95) infinite;
    will-change: transform;
  }

  #icon-asterisk { --shift-x: 40px; animation-delay: 0s; }
  #icon-clinica { --shift-x: -10px; animation-delay: -0.75s; }
  #icon-casa { --shift-x: -32px; animation-delay: -1.5s; }
  #icon-metodo { --shift-x: -90px; animation-delay: -2.25s; }

  @keyframes iconWave {
    0% { transform: translate(var(--shift-x), 0px); }
    20% { transform: translate(var(--shift-x), -10px); }
    40% { transform: translate(var(--shift-x), -18px); }
    60% { transform: translate(var(--shift-x), -8px); }
    80% { transform: translate(var(--shift-x), 4px); }
    100% { transform: translate(var(--shift-x), 0px); }
  }

  @media (prefers-reduced-motion: reduce) {
    #icon-asterisk,
    #icon-clinica,
    #icon-casa,
    #icon-metodo {
      animation: none;
    }
  }
</style>
<g filter="url(#filter0_f_31491_4467)">
<rect width="123.957" height="123.957" transform="matrix(0.86414 -0.503252 0.86414 0.503252 377.481 240.097)" fill="#FF6961" fill-opacity="0.76"/>
</g>
<g id="icon-clinica">
<g filter="url(#filter1_f_31491_4467)">
<path d="M503.934 187.158C482.375 188.272 466.803 200.285 467.089 213.914L467.196 219.249L458.701 219.182C437.019 218.989 417.868 228.781 416.094 242.32C414.079 257.846 433.756 271.085 458.028 271.3L541.549 272.01C546.943 272.055 551.265 269.341 551.193 265.954L550.062 213.505C549.74 198.249 528.658 185.893 503.934 187.158Z" fill="#F9746E"/>
<path d="M503.934 187.158C482.375 188.272 466.803 200.285 467.089 213.914L467.196 219.249L458.701 219.182C437.019 218.989 417.868 228.781 416.094 242.32C414.079 257.846 433.756 271.085 458.028 271.3L541.549 272.01C546.943 272.055 551.265 269.341 551.193 265.954L550.062 213.505C549.74 198.249 528.658 185.893 503.934 187.158Z" fill="black" fill-opacity="0.2"/>
</g>
<g filter="url(#filter2_f_31491_4467)">
<path d="M507.593 185.556C484.807 187.021 467.872 199.347 467.592 213.043L467.477 218.403L458.521 218.472C435.662 218.626 415.045 228.776 412.597 242.414C409.809 258.054 429.997 271.046 455.588 270.874L543.645 270.248C549.332 270.207 554.005 267.41 554.074 264.006L555.119 211.301C555.431 195.97 533.723 183.888 507.593 185.556Z" fill="#F9746E"/>
<path d="M507.593 185.556C484.807 187.021 467.872 199.347 467.592 213.043L467.477 218.403L458.521 218.472C435.662 218.626 415.045 228.776 412.597 242.414C409.809 258.054 429.997 271.046 455.588 270.874L543.645 270.248C549.332 270.207 554.005 267.41 554.074 264.006L555.119 211.301C555.431 195.97 533.723 183.888 507.593 185.556Z" fill="url(#paint0_linear_31491_4467)" fill-opacity="0.18"/>
</g>
<path d="M465.032 210.43C464.743 197.719 480.298 186.431 502.116 185.069L503.16 185.012C528.71 183.809 550.484 195.544 550.817 210.034L551.953 258.542C552.034 262.05 547.157 264.865 541.081 264.818L457.056 264.162L457.055 264.162C431.977 263.957 411.651 251.388 413.733 236.638L413.734 236.638C415.573 223.727 435.415 214.444 457.763 214.626L458.139 214.623C462 214.537 465.081 212.687 465.032 210.43Z" fill="white" fill-opacity="0.1"/>
<path d="M465.032 210.43C464.743 197.719 480.298 186.431 502.116 185.069L503.16 185.012C528.71 183.809 550.484 195.544 550.817 210.034L551.953 258.542C552.034 262.05 547.157 264.865 541.081 264.818L457.056 264.162L457.055 264.162C431.977 263.957 411.651 251.388 413.733 236.638L413.734 236.638C415.573 223.727 435.415 214.444 457.763 214.626L458.139 214.623C462 214.537 465.081 212.687 465.032 210.43Z" fill="url(#paint1_linear_31491_4467)"/>
<path d="M465.032 210.43C464.743 197.719 480.298 186.431 502.116 185.069L503.16 185.012C528.71 183.809 550.484 195.544 550.817 210.034L551.953 258.542C552.034 262.05 547.157 264.865 541.081 264.818L457.056 264.162L457.055 264.162C431.977 263.957 411.651 251.388 413.733 236.638L413.734 236.638C415.573 223.727 435.415 214.444 457.763 214.626L458.139 214.623C462 214.537 465.081 212.687 465.032 210.43Z" stroke="url(#paint2_linear_31491_4467)" stroke-width="1.88608"/>
</g>
<g id="icon-casa">
<g filter="url(#filter4_f_31491_4467)">
<path d="M656.002 269.828C645.213 263.599 641.599 254.342 646.717 246.044L657.398 228.723C661.329 222.348 670.018 217.333 681.059 215.063L711.063 208.897C725.437 205.942 741.472 208.029 752.261 214.257L767.554 223.086C782.987 231.995 782.987 246.44 767.554 255.35L727.183 278.656C711.75 287.566 686.728 287.566 671.295 278.656L656.002 269.828Z" fill="#4497C3"/>
</g>
<g filter="url(#filter5_f_31491_4467)">
<rect width="112.278" height="112.278" transform="matrix(0.86414 -0.503252 0.86414 0.503252 610.481 234.219)" fill="#4496C3"/>
</g>
<g filter="url(#filter6_f_31491_4467)">
<path d="M655.019 265.152C646.074 259.988 643.078 252.313 647.32 245.433L660.428 224.179C663.73 218.824 671.029 214.61 680.305 212.704L717.121 205.137C729.038 202.687 742.333 204.417 751.278 209.581L774.367 222.91C787.162 230.297 787.162 242.273 774.367 249.659L724.443 278.481C711.648 285.867 690.903 285.867 678.107 278.481L655.019 265.152Z" fill="#4497C3"/>
</g>
<path d="M661.892 206.84C663.484 204.258 667.003 202.227 671.476 201.308L727.694 189.753C733.44 188.572 739.85 189.406 744.163 191.896L788.723 217.62C794.892 221.182 794.892 226.956 788.723 230.518L712.489 274.527C706.32 278.089 696.317 278.089 690.147 274.528L645.587 248.803C641.275 246.314 639.83 242.613 641.875 239.296L661.892 206.84Z" fill="white" fill-opacity="0.3"/>
<path d="M661.892 206.84C663.484 204.258 667.003 202.227 671.476 201.308L727.694 189.753C733.44 188.572 739.85 189.406 744.163 191.896L788.723 217.62C794.892 221.182 794.892 226.956 788.723 230.518L712.489 274.527C706.32 278.089 696.317 278.089 690.147 274.528L645.587 248.803C641.275 246.314 639.83 242.613 641.875 239.296L661.892 206.84Z" fill="url(#paint3_linear_31491_4467)"/>
<path d="M661.892 206.84C663.484 204.258 667.003 202.227 671.476 201.308L727.694 189.753C733.44 188.572 739.85 189.406 744.163 191.896L788.723 217.62C794.892 221.182 794.892 226.956 788.723 230.518L712.489 274.527C706.32 278.089 696.317 278.089 690.147 274.528L645.587 248.803C641.275 246.314 639.83 242.613 641.875 239.296L661.892 206.84Z" stroke="url(#paint4_linear_31491_4467)" stroke-width="2.6751" stroke-linejoin="round"/>
</g>
<g id="icon-metodo">
<path d="M901.738 230.452C894.786 227.428 884.866 227.744 878.537 231.398C871.605 235.4 871.605 241.885 878.537 245.887C884.368 249.254 893.247 249.785 900.05 247.486L901.738 230.452Z" fill="#CD995B"/>
<path d="M897.795 233.563C893.486 231.688 887.338 231.884 883.416 234.149C879.119 236.629 879.119 240.649 883.416 243.129C887.03 245.215 892.533 245.545 896.748 244.119L897.795 233.563Z" fill="black"/>
<path d="M946.841 204.415C941.602 200.401 942.15 194.675 948.479 191.021C955.411 187.019 966.645 187.019 973.577 191.021C979.409 194.387 980.33 199.513 976.346 203.44L946.841 204.415Z" fill="#CD995B"/>
<path d="M952.09 201.632C948.843 199.145 949.182 195.595 953.105 193.331C957.401 190.851 964.364 190.851 968.66 193.331C972.274 195.417 972.845 198.594 970.376 201.028L952.09 201.632Z" fill="black"/>
<path d="M995.867 258.872C1006.22 252.896 1026.07 241.06 1022.47 226.999C1021.09 221.615 1016.28 215.908 1006.18 210.078C969.688 189.011 934.302 199.206 913.407 211.268C892.512 223.331 874.36 243.475 911.345 264.826C921.21 270.521 930.871 273.304 939.999 274.175C964.644 276.518 985.419 264.904 995.867 258.872Z" fill="#CD995B"/>
<path d="M965.272 240.868C969.999 237.741 970.35 231.719 965.937 229.171C961.524 226.624 955.099 228.038 948.538 231.825L948.402 231.904C941.835 235.695 939.226 239.312 943.798 241.952C948.371 244.592 958.643 244.304 964.06 241.568L965.272 240.868Z" fill="black"/>
<path d="M929.246 244.17C931.771 242.712 931.502 240.194 928.645 238.545C925.789 236.896 921.427 236.741 918.902 238.198C916.377 239.656 916.646 242.174 919.503 243.823C922.359 245.472 926.721 245.627 929.246 244.17Z" fill="black"/>
<path d="M969.614 220.866C972.138 219.408 971.87 216.89 969.013 215.241C966.157 213.592 961.794 213.437 959.27 214.894C956.745 216.352 957.014 218.87 959.87 220.519C962.727 222.168 967.089 222.323 969.614 220.866Z" fill="black"/>
<path d="M971.128 251.883C970.357 252.329 969.49 252.743 968.554 253.105C966.054 254.071 963.435 254.548 961.174 254.445C960.785 254.428 960.497 254.232 960.526 254.008C960.556 253.784 960.895 253.617 961.283 253.634C963.196 253.72 965.561 253.281 967.767 252.427C969.938 251.587 971.701 250.46 972.597 249.333C973.32 248.428 973.798 247.123 971.965 246.065L962.847 240.801C962.573 240.643 962.573 240.384 962.847 240.226C963.121 240.068 963.569 240.068 963.843 240.226L972.961 245.49C974.843 246.576 975.167 248.063 973.882 249.673C973.27 250.44 972.314 251.199 971.128 251.883Z" fill="black"/>
<path d="M983.054 244.999C981.868 245.683 980.554 246.235 979.229 246.586C976.436 247.331 973.866 247.141 971.984 246.054L962.866 240.791C962.592 240.632 962.592 240.374 962.866 240.216C963.14 240.057 963.588 240.057 963.862 240.216L972.98 245.479C974.817 246.54 977.068 246.264 978.642 245.844C980.594 245.327 982.546 244.309 984 243.056C985.479 241.782 986.241 240.417 986.091 239.313C986.061 239.089 986.35 238.893 986.739 238.876C987.127 238.859 987.466 239.025 987.496 239.25C987.67 240.552 986.848 242.067 985.175 243.51C984.538 244.056 983.821 244.557 983.054 244.999Z" fill="black"/>
<g filter="url(#filter7_f_31491_4467)">
<path d="M901.738 236.539C894.786 233.515 884.867 233.831 878.537 237.485C871.606 241.487 871.606 247.972 878.537 251.974C884.369 255.341 893.248 255.872 900.05 253.573L901.738 236.539Z" fill="#BA884D"/>
</g>
<g filter="url(#filter8_f_31491_4467)">
<path d="M897.795 239.65C893.487 237.775 887.339 237.971 883.416 240.236C879.12 242.716 879.12 246.736 883.416 249.216C887.03 251.302 892.533 251.632 896.749 250.206L897.795 239.65Z" fill="black"/>
</g>
<g filter="url(#filter9_f_31491_4467)">
<path d="M946.841 210.502C941.602 206.488 942.15 200.762 948.479 197.108C955.411 193.106 966.645 193.106 973.577 197.108C979.409 200.474 980.33 205.6 976.346 209.527L946.841 210.502Z" fill="#BA884D"/>
</g>
<g filter="url(#filter10_f_31491_4467)">
<path d="M952.09 207.719C948.843 205.231 949.183 201.682 953.105 199.418C957.402 196.937 964.364 196.937 968.661 199.418C972.275 201.504 972.846 204.681 970.377 207.115L952.09 207.719Z" fill="black"/>
</g>
<g filter="url(#filter11_f_31491_4467)">
<path d="M995.867 264.96C1006.22 258.983 1026.07 247.147 1022.47 233.086C1021.09 227.702 1016.28 221.995 1006.18 216.165C969.688 195.098 934.302 205.293 913.407 217.355C892.512 229.418 874.36 249.562 911.345 270.913C921.21 276.608 930.871 279.391 939.999 280.262C964.644 282.605 985.419 270.991 995.867 264.96Z" fill="#BA884D"/>
</g>
<g filter="url(#filter12_f_31491_4467)">
<path d="M965.272 246.955C969.999 243.828 970.35 237.806 965.937 235.258C961.524 232.711 955.099 234.125 948.538 237.912L948.402 237.991C941.835 241.782 939.226 245.399 943.798 248.039C948.371 250.679 958.643 250.391 964.06 247.655L965.272 246.955Z" fill="black"/>
</g>
<g filter="url(#filter13_f_31491_4467)">
<path d="M929.246 250.257C931.771 248.799 931.502 246.281 928.646 244.632C925.79 242.983 921.427 242.828 918.902 244.285C916.378 245.743 916.647 248.261 919.503 249.91C922.359 251.559 926.722 251.714 929.246 250.257Z" fill="black"/>
</g>
<g filter="url(#filter14_f_31491_4467)">
<path d="M969.614 226.953C972.138 225.495 971.87 222.977 969.013 221.328C966.157 219.679 961.794 219.524 959.27 220.981C956.745 222.439 957.014 224.957 959.87 226.606C962.727 228.255 967.089 228.41 969.614 226.953Z" fill="black"/>
</g>
<path d="M971.129 257.97C970.357 258.416 969.491 258.83 968.554 259.192C966.055 260.158 963.435 260.635 961.174 260.532C960.786 260.515 960.497 260.319 960.527 260.095C960.557 259.871 960.895 259.704 961.284 259.721C963.196 259.807 965.562 259.368 967.768 258.514C969.939 257.674 971.702 256.547 972.598 255.42C973.32 254.515 973.798 253.21 971.966 252.152L962.848 246.888C962.574 246.73 962.574 246.471 962.848 246.313C963.121 246.155 963.57 246.155 963.844 246.313L972.961 251.577C974.844 252.663 975.168 254.15 973.883 255.76C973.27 256.527 972.314 257.286 971.129 257.97Z" fill="black"/>
<path d="M983.054 251.086C981.868 251.771 980.554 252.323 979.229 252.673C976.436 253.418 973.866 253.228 971.984 252.141L962.866 246.878C962.592 246.72 962.592 246.461 962.866 246.303C963.14 246.145 963.588 246.145 963.862 246.303L972.98 251.567C974.817 252.627 977.068 252.351 978.642 251.932C980.594 251.414 982.546 250.396 984 249.143C985.479 247.87 986.241 246.504 986.091 245.4C986.061 245.176 986.35 244.98 986.739 244.963C987.127 244.946 987.466 245.113 987.496 245.337C987.67 246.639 986.848 248.154 985.175 249.597C984.538 250.143 983.821 250.644 983.054 251.086Z" fill="black"/>
<g filter="url(#filter15_f_31491_4467)">
<path d="M907.864 246.384C901.316 245.862 893.527 249.167 889.714 254.294C885.539 259.909 887.714 265.579 894.573 266.961C900.343 268.124 907.589 265.879 912.232 261.791L907.864 246.384Z" fill="#CD995B"/>
<path d="M905.768 250.307C901.71 249.984 896.883 252.032 894.52 255.209C891.932 258.689 893.28 262.204 897.531 263.06C901.107 263.781 905.598 262.389 908.475 259.856L905.768 250.307Z" fill="black"/>
<path d="M935.031 209.851C929.516 207.942 928.031 202.768 931.844 197.641C936.019 192.026 944.961 188.596 951.82 189.979C957.59 191.142 960.042 195.342 958.188 199.992L935.031 209.851Z" fill="#CD995B"/>
<path d="M938.275 205.815C934.857 204.632 933.937 201.425 936.3 198.248C938.888 194.768 944.43 192.643 948.681 193.499C952.257 194.22 953.777 196.823 952.628 199.705L938.275 205.815Z" fill="black"/>
<path d="M992.313 242.496C998.549 234.11 1010.38 217.701 1002.8 206.507C999.899 202.221 994.153 198.702 984.16 196.687C948.05 189.409 923.304 209.124 910.717 226.05C898.131 242.975 890.439 266.127 927.036 273.504C936.798 275.471 945.42 274.955 952.978 272.93C973.379 267.455 986.02 250.959 992.313 242.496Z" fill="#CD995B"/>
<path d="M961.925 236.095C964.639 231.918 962.899 226.546 958.532 225.666C954.165 224.785 949.525 227.983 945.574 233.298L945.492 233.407C941.536 238.727 940.672 242.686 945.197 243.598C949.722 244.51 957.801 241.123 961.195 237.077L961.925 236.095Z" fill="black"/>
<path d="M934.358 249.98C935.879 247.935 934.821 245.815 931.994 245.245C929.168 244.675 925.643 245.871 924.123 247.917C922.602 249.962 923.66 252.081 926.487 252.651C929.313 253.221 932.838 252.025 934.358 249.98Z" fill="black"/>
<path d="M958.673 217.282C960.194 215.237 959.136 213.117 956.309 212.547C953.483 211.978 949.958 213.174 948.438 215.219C946.917 217.264 947.975 219.383 950.802 219.953C953.628 220.523 957.152 219.327 958.673 217.282Z" fill="black"/>
<path d="M970.28 243.938C969.815 244.563 969.264 245.189 968.64 245.792C966.974 247.4 965.05 248.616 963.215 249.216C962.9 249.32 962.605 249.237 962.554 249.032C962.502 248.827 962.716 248.577 963.031 248.474C964.582 247.966 966.317 246.859 967.786 245.439C969.233 244.042 970.258 242.519 970.594 241.26C970.865 240.248 970.808 238.961 968.994 238.595L959.972 236.777C959.701 236.722 959.614 236.496 959.779 236.274C959.944 236.052 960.301 235.915 960.572 235.97L969.594 237.789C971.457 238.164 972.213 239.365 971.73 241.164C971.5 242.022 970.994 242.978 970.28 243.938Z" fill="black"/>
<path d="M977.462 234.279C976.748 235.239 975.887 236.123 974.95 236.834C972.976 238.338 970.868 238.956 969.005 238.581L959.983 236.762C959.711 236.707 959.625 236.481 959.79 236.259C959.955 236.038 960.311 235.901 960.582 235.955L969.605 237.774C971.423 238.14 973.122 237.212 974.234 236.365C975.614 235.316 976.826 233.831 977.564 232.291C978.314 230.726 978.462 229.299 977.973 228.38C977.874 228.193 978.038 227.934 978.342 227.8C978.645 227.667 978.971 227.709 979.07 227.896C979.645 228.981 979.499 230.557 978.651 232.329C978.327 233.001 977.924 233.658 977.462 234.279Z" fill="black"/>
</g>
<path d="M901.738 230.452C894.786 227.428 884.866 227.744 878.537 231.398C871.605 235.4 871.605 241.885 878.537 245.887C884.368 249.254 893.247 249.785 900.05 247.486L901.738 230.452Z" fill="#CD995B"/>
<path d="M897.795 233.563C893.486 231.688 887.338 231.884 883.416 234.149C879.119 236.629 879.119 240.649 883.416 243.129C887.03 245.215 892.533 245.545 896.748 244.119L897.795 233.563Z" fill="black"/>
<path d="M946.841 204.415C941.602 200.401 942.15 194.675 948.479 191.021C955.411 187.019 966.645 187.019 973.577 191.021C979.409 194.387 980.33 199.513 976.346 203.44L946.841 204.415Z" fill="#CD995B"/>
<path d="M952.09 201.632C948.843 199.145 949.182 195.595 953.105 193.331C957.401 190.851 964.364 190.851 968.66 193.331C972.274 195.417 972.845 198.594 970.376 201.028L952.09 201.632Z" fill="black"/>
<path d="M995.867 258.872C1006.22 252.896 1026.07 241.06 1022.47 226.999C1021.09 221.615 1016.28 215.908 1006.18 210.078C969.688 189.011 934.302 199.206 913.407 211.268C892.512 223.331 874.36 243.475 911.345 264.826C921.21 270.521 930.871 273.304 939.999 274.175C964.644 276.518 985.419 264.904 995.867 258.872Z" fill="#CD995B"/>
<path d="M965.272 240.868C969.999 237.741 970.35 231.719 965.937 229.171C961.524 226.624 955.099 228.038 948.538 231.825L948.402 231.904C941.835 235.695 939.226 239.312 943.798 241.952C948.371 244.592 958.643 244.304 964.06 241.568L965.272 240.868Z" fill="black"/>
<path d="M929.246 244.17C931.771 242.712 931.502 240.194 928.645 238.545C925.789 236.896 921.427 236.741 918.902 238.198C916.377 239.656 916.646 242.174 919.503 243.823C922.359 245.472 926.721 245.627 929.246 244.17Z" fill="black"/>
<path d="M969.614 220.866C972.138 219.408 971.87 216.89 969.013 215.241C966.157 213.592 961.794 213.437 959.27 214.894C956.745 216.352 957.014 218.87 959.87 220.519C962.727 222.168 967.089 222.323 969.614 220.866Z" fill="black"/>
<path d="M971.128 251.883C970.357 252.329 969.49 252.743 968.554 253.105C966.054 254.071 963.435 254.548 961.174 254.445C960.785 254.428 960.497 254.232 960.526 254.008C960.556 253.784 960.895 253.617 961.283 253.634C963.196 253.72 965.561 253.281 967.767 252.427C969.938 251.587 971.701 250.46 972.597 249.333C973.32 248.428 973.798 247.123 971.965 246.065L962.847 240.801C962.573 240.643 962.573 240.384 962.847 240.226C963.121 240.068 963.569 240.068 963.843 240.226L972.961 245.49C974.843 246.576 975.167 248.063 973.882 249.673C973.27 250.44 972.314 251.199 971.128 251.883Z" fill="black"/>
<path d="M983.054 244.999C981.868 245.683 980.554 246.235 979.229 246.586C976.436 247.331 973.866 247.141 971.984 246.054L962.866 240.791C962.592 240.632 962.592 240.374 962.866 240.216C963.14 240.057 963.588 240.057 963.862 240.216L972.98 245.479C974.817 246.54 977.068 246.264 978.642 245.844C980.594 245.327 982.546 244.309 984 243.056C985.479 241.782 986.241 240.417 986.091 239.313C986.061 239.089 986.35 238.893 986.739 238.876C987.127 238.859 987.466 239.025 987.496 239.25C987.67 240.552 986.848 242.067 985.175 243.51C984.538 244.056 983.821 244.557 983.054 244.999Z" fill="black"/>
<mask id="path-49-outside-1_31491_4467" maskUnits="userSpaceOnUse" x="870.037" y="180.776" width="156" height="93" fill="black">
<rect fill="white" x="870.037" y="180.776" width="156" height="93"/>
<path fill-rule="evenodd" clip-rule="evenodd" d="M948.177 186.777C955.109 182.776 966.343 182.776 973.275 186.777C977.054 188.959 978.772 191.88 978.427 194.734C978.404 194.932 978.356 195.122 978.291 195.308C987.264 197.096 996.535 200.44 1005.88 205.834C1015.98 211.664 1020.79 217.371 1022.17 222.756C1025.77 236.816 1005.92 248.652 995.565 254.629C985.117 260.66 964.342 272.275 939.697 269.932C930.569 269.061 920.908 266.277 911.044 260.582C901.6 255.13 895.753 249.757 892.627 244.577C892.428 244.594 892.225 244.609 892.019 244.617C887.075 244.816 882.015 243.825 878.236 241.644C871.304 237.642 871.304 231.156 878.236 227.154C882.299 224.809 887.84 223.839 893.127 224.245C897.357 217.562 905.026 211.689 913.105 207.024C921.21 202.345 931.495 197.948 943.179 195.547C942.371 192.443 944.038 189.167 948.177 186.777Z"/>
</mask>
<path fill-rule="evenodd" clip-rule="evenodd" d="M948.177 186.777C955.109 182.776 966.343 182.776 973.275 186.777C977.054 188.959 978.772 191.88 978.427 194.734C978.404 194.932 978.356 195.122 978.291 195.308C987.264 197.096 996.535 200.44 1005.88 205.834C1015.98 211.664 1020.79 217.371 1022.17 222.756C1025.77 236.816 1005.92 248.652 995.565 254.629C985.117 260.66 964.342 272.275 939.697 269.932C930.569 269.061 920.908 266.277 911.044 260.582C901.6 255.13 895.753 249.757 892.627 244.577C892.428 244.594 892.225 244.609 892.019 244.617C887.075 244.816 882.015 243.825 878.236 241.644C871.304 237.642 871.304 231.156 878.236 227.154C882.299 224.809 887.84 223.839 893.127 224.245C897.357 217.562 905.026 211.689 913.105 207.024C921.21 202.345 931.495 197.948 943.179 195.547C942.371 192.443 944.038 189.167 948.177 186.777Z" fill="white" fill-opacity="0.15"/>
<path fill-rule="evenodd" clip-rule="evenodd" d="M948.177 186.777C955.109 182.776 966.343 182.776 973.275 186.777C977.054 188.959 978.772 191.88 978.427 194.734C978.404 194.932 978.356 195.122 978.291 195.308C987.264 197.096 996.535 200.44 1005.88 205.834C1015.98 211.664 1020.79 217.371 1022.17 222.756C1025.77 236.816 1005.92 248.652 995.565 254.629C985.117 260.66 964.342 272.275 939.697 269.932C930.569 269.061 920.908 266.277 911.044 260.582C901.6 255.13 895.753 249.757 892.627 244.577C892.428 244.594 892.225 244.609 892.019 244.617C887.075 244.816 882.015 243.825 878.236 241.644C871.304 237.642 871.304 231.156 878.236 227.154C882.299 224.809 887.84 223.839 893.127 224.245C897.357 217.562 905.026 211.689 913.105 207.024C921.21 202.345 931.495 197.948 943.179 195.547C942.371 192.443 944.038 189.167 948.177 186.777Z" fill="url(#paint5_linear_31491_4467)"/>
<path d="M948.177 186.777L946.739 184.286L946.739 184.286L948.177 186.777ZM973.275 186.777L974.713 184.286L974.713 184.286L973.275 186.777ZM978.427 194.734L981.284 195.079L981.284 195.079L978.427 194.734ZM978.291 195.308L975.576 194.354C975.3 195.141 975.379 196.008 975.791 196.732C976.204 197.456 976.911 197.966 977.728 198.129L978.291 195.308ZM1005.88 205.834L1007.32 203.342V203.342L1005.88 205.834ZM1022.17 222.756L1024.96 222.042L1024.96 222.042L1022.17 222.756ZM995.565 254.629L997.003 257.12V257.12L995.565 254.629ZM939.697 269.932L939.424 272.795L939.425 272.795L939.697 269.932ZM911.044 260.582L909.605 263.073V263.073L911.044 260.582ZM892.627 244.577L895.09 243.09C894.523 242.152 893.472 241.617 892.38 241.711L892.627 244.577ZM892.019 244.617L892.135 247.492L892.135 247.492L892.019 244.617ZM878.236 241.644L876.798 244.135L876.798 244.135L878.236 241.644ZM878.236 227.154L876.798 224.663L876.798 224.663L878.236 227.154ZM893.127 224.245L892.907 227.113C893.968 227.195 894.988 226.683 895.557 225.784L893.127 224.245ZM913.105 207.024L911.667 204.533L913.105 207.024ZM943.179 195.547L943.759 198.365C944.531 198.206 945.205 197.737 945.622 197.067C946.039 196.397 946.162 195.586 945.963 194.822L943.179 195.547ZM948.177 186.777L949.616 189.269C952.542 187.58 956.556 186.653 960.726 186.653C964.896 186.653 968.911 187.58 971.837 189.269L973.275 186.777L974.713 184.286C970.707 181.973 965.639 180.899 960.726 180.899C955.813 180.899 950.745 181.973 946.739 184.286L948.177 186.777ZM973.275 186.777L971.837 189.269C975.044 191.12 975.727 193.099 975.571 194.39L978.427 194.734L981.284 195.079C981.816 190.661 979.064 186.798 974.713 184.286L973.275 186.777ZM978.427 194.734L975.571 194.39C975.576 194.35 975.583 194.335 975.576 194.354L978.291 195.308L981.005 196.261C981.129 195.909 981.231 195.514 981.284 195.079L978.427 194.734ZM978.291 195.308L977.728 198.129C986.395 199.856 995.37 203.089 1004.44 208.325L1005.88 205.834L1007.32 203.342C997.701 197.791 988.134 194.336 978.853 192.486L978.291 195.308ZM1005.88 205.834L1004.44 208.325C1014.28 214.005 1018.29 219.195 1019.39 223.47L1022.17 222.756L1024.96 222.042C1023.3 215.548 1017.68 209.323 1007.32 203.342L1005.88 205.834ZM1022.17 222.756L1019.39 223.469C1020.77 228.883 1017.77 234.321 1012.13 239.628C1006.6 244.833 999.324 249.137 994.127 252.137L995.565 254.629L997.003 257.12C1002.16 254.144 1009.99 249.542 1016.07 243.819C1022.05 238.199 1027.17 230.689 1024.96 222.042L1022.17 222.756ZM995.565 254.629L994.127 252.137C983.685 258.166 963.621 269.316 939.969 267.068L939.697 269.932L939.425 272.795C965.062 275.233 986.55 263.155 997.003 257.12L995.565 254.629ZM939.697 269.932L939.97 267.068C931.242 266.235 921.981 263.574 912.482 258.091L911.044 260.582L909.605 263.073C919.836 268.98 929.896 271.886 939.424 272.795L939.697 269.932ZM911.044 260.582L912.482 258.091C903.258 252.765 897.867 247.692 895.09 243.09L892.627 244.577L890.164 246.064C893.639 251.822 899.943 257.495 909.605 263.073L911.044 260.582ZM892.627 244.577L892.38 241.711C892.206 241.726 892.051 241.737 891.904 241.743L892.019 244.617L892.135 247.492C892.4 247.481 892.649 247.463 892.873 247.443L892.627 244.577ZM892.019 244.617L891.904 241.743C887.358 241.925 882.871 240.997 879.674 239.152L878.236 241.644L876.798 244.135C881.16 246.653 886.792 247.706 892.135 247.492L892.019 244.617ZM878.236 241.644L879.674 239.152C876.732 237.453 875.914 235.63 875.914 234.399C875.914 233.167 876.732 231.344 879.674 229.646L878.236 227.154L876.798 224.663C872.808 226.966 870.16 230.387 870.16 234.399C870.16 238.411 872.808 241.832 876.798 244.135L878.236 241.644ZM878.236 227.154L879.674 229.646C883.117 227.658 888.046 226.741 892.907 227.113L893.127 224.245L893.347 221.377C887.634 220.938 881.48 221.96 876.798 224.663L878.236 227.154ZM893.127 224.245L895.557 225.784C899.413 219.692 906.597 214.103 914.543 209.516L913.105 207.024L911.667 204.533C903.454 209.274 895.3 215.432 890.696 222.707L893.127 224.245ZM913.105 207.024L914.543 209.516C922.422 204.968 932.419 200.695 943.759 198.365L943.179 195.547L942.6 192.729C930.571 195.201 919.998 199.723 911.667 204.533L913.105 207.024ZM943.179 195.547L945.963 194.822C945.604 193.443 946.11 191.293 949.616 189.269L948.177 186.777L946.739 184.286C941.966 187.042 939.138 191.443 940.395 196.272L943.179 195.547Z" fill="url(#paint6_linear_31491_4467)" mask="url(#path-49-outside-1_31491_4467)"/>
</g>
<g id="icon-asterisk">
<g filter="url(#filter16_f_31491_4467)">
<path d="M330.015 221.187L285.482 228.083L297.428 202.374C298.101 200.925 296.613 199.438 294.104 199.049L275.936 196.242C273.428 195.854 270.848 196.713 270.175 198.162L258.229 223.871L225.643 205.06C223.807 203.999 220.83 204.001 218.993 205.061L205.689 212.741C203.852 213.802 203.85 215.52 205.687 216.581L238.274 235.393L193.741 242.29C191.231 242.678 189.744 244.168 190.415 245.616L195.276 256.103C195.947 257.55 198.525 258.41 201.035 258.022L245.568 251.125L233.623 276.835C232.949 278.283 234.439 279.772 236.947 280.159L255.114 282.967C257.622 283.354 260.2 282.494 260.875 281.047L272.821 255.337L305.407 274.149C307.243 275.209 310.22 275.208 312.057 274.148L325.361 266.467C327.198 265.407 327.2 263.688 325.364 262.628L292.776 243.815L337.31 236.919C339.819 236.53 341.309 235.042 340.636 233.593L335.772 223.105C335.101 221.657 332.525 220.798 330.015 221.187Z" fill="#F5BF42"/>
</g>
<path d="M330.015 221.187L285.482 228.083L297.428 202.374C298.101 200.925 296.613 199.438 294.104 199.049L275.936 196.242C273.428 195.854 270.848 196.713 270.175 198.162L258.229 223.871L225.643 205.06C223.807 203.999 220.83 204.001 218.993 205.061L205.689 212.741C203.852 213.802 203.85 215.52 205.687 216.581L238.274 235.393L193.741 242.29C191.231 242.678 189.744 244.168 190.415 245.616L195.276 256.103C195.947 257.55 198.525 258.41 201.035 258.022L245.568 251.125L233.623 276.835C232.949 278.283 234.439 279.772 236.947 280.159L255.114 282.967C257.622 283.354 260.2 282.494 260.875 281.047L272.821 255.337L305.407 274.149C307.243 275.209 310.22 275.208 312.057 274.148L325.361 266.467C327.198 265.407 327.2 263.688 325.364 262.628L292.776 243.815L337.31 236.919C339.819 236.53 341.309 235.042 340.636 233.593L335.772 223.105C335.101 221.657 332.525 220.798 330.015 221.187Z" fill="#F5BF42"/>
<g filter="url(#filter17_f_31491_4467)">
<rect width="107.69" height="107.69" transform="matrix(0.86414 -0.503252 0.86414 0.503252 172.481 235.91)" fill="#FAA839"/>
</g>
<g filter="url(#filter18_f_31491_4467)">
<path d="M330.015 219.193L297.164 224.28C291.974 225.084 287.223 222.341 288.616 219.345L297.428 200.38C298.101 198.931 296.613 197.444 294.104 197.055L275.936 194.248C273.428 193.86 270.848 194.719 270.175 196.168L261.36 215.139C259.968 218.134 253.483 219.137 249.685 216.944L225.643 203.065C223.807 202.005 220.83 202.006 218.993 203.066L205.689 210.747C203.852 211.807 203.85 213.526 205.687 214.586L229.73 228.466C233.528 230.659 231.791 234.403 226.603 235.207L193.741 240.296C191.231 240.684 189.744 242.174 190.415 243.621L195.276 254.108C195.947 255.556 198.525 256.416 201.035 256.027L233.886 250.94C239.077 250.136 243.827 252.879 242.435 255.875L233.623 274.84C232.949 276.289 234.439 277.777 236.947 278.165L255.114 280.972C257.622 281.36 260.2 280.5 260.875 279.052L269.691 260.081C271.082 257.086 277.568 256.083 281.366 258.276L305.407 272.155C307.243 273.215 310.22 273.214 312.057 272.154L325.361 264.473C327.198 263.413 327.2 261.694 325.364 260.634L301.32 246.754C297.522 244.561 299.259 240.817 304.447 240.013L337.31 234.924C339.819 234.536 341.309 233.047 340.636 231.599L335.772 221.11C335.101 219.663 332.525 218.804 330.015 219.193Z" fill="#FCB346"/>
</g>
<g filter="url(#filter19_f_31491_4467)">
<path d="M330.015 215.774L297.164 220.861C291.974 221.665 287.223 218.922 288.616 215.926L297.428 196.961C298.101 195.512 296.613 194.025 294.104 193.636L275.936 190.829C273.428 190.441 270.848 191.3 270.175 192.749L261.36 211.72C259.968 214.715 253.483 215.718 249.685 213.525L225.643 199.646C223.807 198.586 220.83 198.587 218.993 199.648L205.689 207.328C203.852 208.388 203.85 210.107 205.687 211.167L229.73 225.048C233.528 227.24 231.791 230.984 226.603 231.788L193.741 236.877C191.231 237.265 189.744 238.755 190.415 240.202L195.276 250.69C195.947 252.137 198.525 252.997 201.035 252.608L233.886 247.521C239.077 246.717 243.827 249.46 242.435 252.456L233.623 271.421C232.949 272.87 234.439 274.359 236.947 274.746L255.114 277.554C257.622 277.941 260.2 277.081 260.875 275.633L269.691 256.662C271.082 253.667 277.568 252.664 281.366 254.857L305.407 268.736C307.243 269.796 310.22 269.795 312.057 268.735L325.361 261.054C327.198 259.994 327.2 258.275 325.364 257.215L301.32 243.335C297.522 241.142 299.259 237.398 304.447 236.595L337.31 231.506C339.819 231.117 341.309 229.629 340.636 228.18L335.772 217.691C335.101 216.244 332.525 215.385 330.015 215.774Z" fill="#E19836"/>
</g>
<path d="M218.376 195.303C220.553 194.047 224.083 194.044 226.26 195.301L250.302 209.18C253.625 211.099 259.299 210.222 260.516 207.601L269.333 188.63C270.131 186.912 273.189 185.895 276.161 186.354L294.329 189.161C297.304 189.622 299.068 191.385 298.27 193.103L289.458 212.068C288.24 214.69 292.396 217.089 296.938 216.386L329.789 211.299C332.671 210.853 335.628 211.794 336.534 213.413L336.615 213.573L341.477 224.061C342.275 225.778 340.51 227.543 337.535 228.003L304.673 233.093C300.134 233.796 298.614 237.071 301.938 238.99L325.981 252.87C328.158 254.127 328.155 256.165 325.978 257.422L312.674 265.102C310.497 266.359 306.967 266.361 304.79 265.103L280.748 251.224C277.425 249.306 271.75 250.183 270.533 252.804L261.718 271.775L261.717 271.776C260.917 273.491 257.862 274.51 254.889 274.051L236.721 271.244C233.748 270.784 231.982 269.019 232.78 267.302L241.592 248.337C242.81 245.715 238.654 243.316 234.112 244.019L201.261 249.106C198.286 249.567 195.229 248.548 194.433 246.831L189.573 236.344C188.777 234.628 190.54 232.862 193.515 232.401L226.377 227.313C230.916 226.61 232.436 223.334 229.113 221.415L205.069 207.535C202.892 206.278 202.896 204.241 205.072 202.984L218.376 195.303Z" fill="white" fill-opacity="0.43"/>
<path d="M218.376 195.303C220.553 194.047 224.083 194.044 226.26 195.301L250.302 209.18C253.625 211.099 259.299 210.222 260.516 207.601L269.333 188.63C270.131 186.912 273.189 185.895 276.161 186.354L294.329 189.161C297.304 189.622 299.068 191.385 298.27 193.103L289.458 212.068C288.24 214.69 292.396 217.089 296.938 216.386L329.789 211.299C332.671 210.853 335.628 211.794 336.534 213.413L336.615 213.573L341.477 224.061C342.275 225.778 340.51 227.543 337.535 228.003L304.673 233.093C300.134 233.796 298.614 237.071 301.938 238.99L325.981 252.87C328.158 254.127 328.155 256.165 325.978 257.422L312.674 265.102C310.497 266.359 306.967 266.361 304.79 265.103L280.748 251.224C277.425 249.306 271.75 250.183 270.533 252.804L261.718 271.775L261.717 271.776C260.917 273.491 257.862 274.51 254.889 274.051L236.721 271.244C233.748 270.784 231.982 269.019 232.78 267.302L241.592 248.337C242.81 245.715 238.654 243.316 234.112 244.019L201.261 249.106C198.286 249.567 195.229 248.548 194.433 246.831L189.573 236.344C188.777 234.628 190.54 232.862 193.515 232.401L226.377 227.313C230.916 226.61 232.436 223.334 229.113 221.415L205.069 207.535C202.892 206.278 202.896 204.241 205.072 202.984L218.376 195.303Z" fill="url(#paint7_linear_31491_4467)"/>
<path d="M218.376 195.303C220.553 194.047 224.083 194.044 226.26 195.301L250.302 209.18C253.625 211.099 259.299 210.222 260.516 207.601L269.333 188.63C270.131 186.912 273.189 185.895 276.161 186.354L294.329 189.161C297.304 189.622 299.068 191.385 298.27 193.103L289.458 212.068C288.24 214.69 292.396 217.089 296.938 216.386L329.789 211.299C332.671 210.853 335.628 211.794 336.534 213.413L336.615 213.573L341.477 224.061C342.275 225.778 340.51 227.543 337.535 228.003L304.673 233.093C300.134 233.796 298.614 237.071 301.938 238.99L325.981 252.87C328.158 254.127 328.155 256.165 325.978 257.422L312.674 265.102C310.497 266.359 306.967 266.361 304.79 265.103L280.748 251.224C277.425 249.306 271.75 250.183 270.533 252.804L261.718 271.775L261.717 271.776C260.917 273.491 257.862 274.51 254.889 274.051L236.721 271.244C233.748 270.784 231.982 269.019 232.78 267.302L241.592 248.337C242.81 245.715 238.654 243.316 234.112 244.019L201.261 249.106C198.286 249.567 195.229 248.548 194.433 246.831L189.573 236.344C188.777 234.628 190.54 232.862 193.515 232.401L226.377 227.313C230.916 226.61 232.436 223.334 229.113 221.415L205.069 207.535C202.892 206.278 202.896 204.241 205.072 202.984L218.376 195.303Z" stroke="url(#paint8_linear_31491_4467)" stroke-width="1.4245"/>
</g>
</g>
<defs>
<filter id="filter0_f_31491_4467" x="158.122" y="-41.644" width="652.951" height="563.482" filterUnits="userSpaceOnUse" color-interpolation-filters="sRGB">
<feFlood flood-opacity="0" result="BackgroundImageFix"/>
<feBlend mode="normal" in="SourceGraphic" in2="BackgroundImageFix" result="shape"/>
<feGaussianBlur stdDeviation="109.68" result="effect1_foregroundBlur_31491_4467"/>
</filter>
<filter id="filter1_f_31491_4467" x="412.812" y="183.928" width="141.523" height="91.2232" filterUnits="userSpaceOnUse" color-interpolation-filters="sRGB">
<feFlood flood-opacity="0" result="BackgroundImageFix"/>
<feBlend mode="normal" in="SourceGraphic" in2="BackgroundImageFix" result="shape"/>
<feGaussianBlur stdDeviation="1.57022" result="effect1_foregroundBlur_31491_4467"/>
</filter>
<filter id="filter2_f_31491_4467" x="357.382" y="130.444" width="252.698" height="195.389" filterUnits="userSpaceOnUse" color-interpolation-filters="sRGB">
<feFlood flood-opacity="0" result="BackgroundImageFix"/>
<feBlend mode="normal" in="SourceGraphic" in2="BackgroundImageFix" result="shape"/>
<feGaussianBlur stdDeviation="27.4788" result="effect1_foregroundBlur_31491_4467"/>
</filter>
<filter id="filter4_f_31491_4467" x="586.621" y="149.769" width="250.314" height="193.375" filterUnits="userSpaceOnUse" color-interpolation-filters="sRGB">
<feFlood flood-opacity="0" result="BackgroundImageFix"/>
<feBlend mode="normal" in="SourceGraphic" in2="BackgroundImageFix" result="shape"/>
<feGaussianBlur stdDeviation="28.9029" result="effect1_foregroundBlur_31491_4467"/>
</filter>
<filter id="filter5_f_31491_4467" x="299.354" y="-133.411" width="816.301" height="735.262" filterUnits="userSpaceOnUse" color-interpolation-filters="sRGB">
<feFlood flood-opacity="0" result="BackgroundImageFix"/>
<feBlend mode="normal" in="SourceGraphic" in2="BackgroundImageFix" result="shape"/>
<feGaussianBlur stdDeviation="155.563" result="effect1_foregroundBlur_31491_4467"/>
</filter>
<filter id="filter6_f_31491_4467" x="641.375" y="199.994" width="146.634" height="88.0726" filterUnits="userSpaceOnUse" color-interpolation-filters="sRGB">
<feFlood flood-opacity="0" result="BackgroundImageFix"/>
<feBlend mode="normal" in="SourceGraphic" in2="BackgroundImageFix" result="shape"/>
<feGaussianBlur stdDeviation="2.0232" result="effect1_foregroundBlur_31491_4467"/>
</filter>
<filter id="filter7_f_31491_4467" x="870.864" y="232.011" width="33.348" height="25.436" filterUnits="userSpaceOnUse" color-interpolation-filters="sRGB">
<feFlood flood-opacity="0" result="BackgroundImageFix"/>
<feBlend mode="normal" in="SourceGraphic" in2="BackgroundImageFix" result="shape"/>
<feGaussianBlur stdDeviation="1.23703" result="effect1_foregroundBlur_31491_4467"/>
</filter>
<filter id="filter8_f_31491_4467" x="877.72" y="235.903" width="22.5492" height="17.6459" filterUnits="userSpaceOnUse" color-interpolation-filters="sRGB">
<feFlood flood-opacity="0" result="BackgroundImageFix"/>
<feBlend mode="normal" in="SourceGraphic" in2="BackgroundImageFix" result="shape"/>
<feGaussianBlur stdDeviation="1.23703" result="effect1_foregroundBlur_31491_4467"/>
</filter>
<filter id="filter9_f_31491_4467" x="940.809" y="191.633" width="40.4374" height="21.3433" filterUnits="userSpaceOnUse" color-interpolation-filters="sRGB">
<feFlood flood-opacity="0" result="BackgroundImageFix"/>
<feBlend mode="normal" in="SourceGraphic" in2="BackgroundImageFix" result="shape"/>
<feGaussianBlur stdDeviation="1.23703" result="effect1_foregroundBlur_31491_4467"/>
</filter>
<filter id="filter10_f_31491_4467" x="947.411" y="195.083" width="26.9432" height="15.1093" filterUnits="userSpaceOnUse" color-interpolation-filters="sRGB">
<feFlood flood-opacity="0" result="BackgroundImageFix"/>
<feBlend mode="normal" in="SourceGraphic" in2="BackgroundImageFix" result="shape"/>
<feGaussianBlur stdDeviation="1.23703" result="effect1_foregroundBlur_31491_4467"/>
</filter>
<filter id="filter11_f_31491_4467" x="887.566" y="201.513" width="137.812" height="81.5313" filterUnits="userSpaceOnUse" color-interpolation-filters="sRGB">
<feFlood flood-opacity="0" result="BackgroundImageFix"/>
<feBlend mode="normal" in="SourceGraphic" in2="BackgroundImageFix" result="shape"/>
<feGaussianBlur stdDeviation="1.23703" result="effect1_foregroundBlur_31491_4467"/>
</filter>
<filter id="filter12_f_31491_4467" x="939.023" y="231.497" width="32.4931" height="20.848" filterUnits="userSpaceOnUse" color-interpolation-filters="sRGB">
<feFlood flood-opacity="0" result="BackgroundImageFix"/>
<feBlend mode="normal" in="SourceGraphic" in2="BackgroundImageFix" result="shape"/>
<feGaussianBlur stdDeviation="1.23703" result="effect1_foregroundBlur_31491_4467"/>
</filter>
<filter id="filter13_f_31491_4467" x="914.698" y="240.812" width="18.7533" height="12.9181" filterUnits="userSpaceOnUse" color-interpolation-filters="sRGB">
<feFlood flood-opacity="0" result="BackgroundImageFix"/>
<feBlend mode="normal" in="SourceGraphic" in2="BackgroundImageFix" result="shape"/>
<feGaussianBlur stdDeviation="1.23703" result="effect1_foregroundBlur_31491_4467"/>
</filter>
<filter id="filter14_f_31491_4467" x="955.065" y="217.508" width="18.7533" height="12.9181" filterUnits="userSpaceOnUse" color-interpolation-filters="sRGB">
<feFlood flood-opacity="0" result="BackgroundImageFix"/>
<feBlend mode="normal" in="SourceGraphic" in2="BackgroundImageFix" result="shape"/>
<feGaussianBlur stdDeviation="1.23703" result="effect1_foregroundBlur_31491_4467"/>
</filter>
<filter id="filter15_f_31491_4467" x="830.055" y="132.136" width="232.737" height="200.142" filterUnits="userSpaceOnUse" color-interpolation-filters="sRGB">
<feFlood flood-opacity="0" result="BackgroundImageFix"/>
<feBlend mode="normal" in="SourceGraphic" in2="BackgroundImageFix" result="shape"/>
<feGaussianBlur stdDeviation="28.7682" result="effect1_foregroundBlur_31491_4467"/>
</filter>
<filter id="filter16_f_31491_4467" x="173.758" y="179.653" width="183.535" height="119.902" filterUnits="userSpaceOnUse" color-interpolation-filters="sRGB">
<feFlood flood-opacity="0" result="BackgroundImageFix"/>
<feBlend mode="normal" in="SourceGraphic" in2="BackgroundImageFix" result="shape"/>
<feGaussianBlur stdDeviation="8.24786" result="effect1_foregroundBlur_31491_4467"/>
</filter>
<filter id="filter17_f_31491_4467" x="6.8051" y="16.0392" width="517.47" height="439.742" filterUnits="userSpaceOnUse" color-interpolation-filters="sRGB">
<feFlood flood-opacity="0" result="BackgroundImageFix"/>
<feBlend mode="normal" in="SourceGraphic" in2="BackgroundImageFix" result="shape"/>
<feGaussianBlur stdDeviation="82.8379" result="effect1_foregroundBlur_31491_4467"/>
</filter>
<filter id="filter18_f_31491_4467" x="189.114" y="193.015" width="152.823" height="89.19" filterUnits="userSpaceOnUse" color-interpolation-filters="sRGB">
<feFlood flood-opacity="0" result="BackgroundImageFix"/>
<feBlend mode="normal" in="SourceGraphic" in2="BackgroundImageFix" result="shape"/>
<feGaussianBlur stdDeviation="0.569801" result="effect1_foregroundBlur_31491_4467"/>
</filter>
<filter id="filter19_f_31491_4467" x="187.718" y="188.2" width="155.615" height="91.982" filterUnits="userSpaceOnUse" color-interpolation-filters="sRGB">
<feFlood flood-opacity="0" result="BackgroundImageFix"/>
<feBlend mode="normal" in="SourceGraphic" in2="BackgroundImageFix" result="shape"/>
<feGaussianBlur stdDeviation="1.26781" result="effect1_foregroundBlur_31491_4467"/>
</filter>
<linearGradient id="paint0_linear_31491_4467" x1="453.423" y1="212.428" x2="504.883" y2="298.405" gradientUnits="userSpaceOnUse">
<stop stop-color="#F2A7A7" stop-opacity="0"/>
<stop offset="1" stop-color="#FF9300"/>
</linearGradient>
<linearGradient id="paint1_linear_31491_4467" x1="452.539" y1="207.416" x2="500.273" y2="290.1" gradientUnits="userSpaceOnUse">
<stop stop-color="white" stop-opacity="0.2"/>
<stop offset="1" stop-color="#FF7F78"/>
</linearGradient>
<linearGradient id="paint2_linear_31491_4467" x1="418.233" y1="218.889" x2="446.908" y2="306.016" gradientUnits="userSpaceOnUse">
<stop stop-color="#F9B4AE"/>
<stop offset="1" stop-color="#F9746E"/>
</linearGradient>
<linearGradient id="paint3_linear_31491_4467" x1="678.216" y1="210.376" x2="713.673" y2="272.328" gradientUnits="userSpaceOnUse">
<stop stop-color="white" stop-opacity="0.2"/>
<stop offset="1" stop-color="#4497C3"/>
</linearGradient>
<linearGradient id="paint4_linear_31491_4467" x1="665.246" y1="204.528" x2="684.752" y2="275.4" gradientUnits="userSpaceOnUse">
<stop stop-color="#BBE2FF"/>
<stop offset="1" stop-color="#3A8DBB"/>
</linearGradient>
<linearGradient id="paint5_linear_31491_4467" x1="953.45" y1="225.104" x2="983.612" y2="279.125" gradientUnits="userSpaceOnUse">
<stop stop-color="white" stop-opacity="0.2"/>
<stop offset="1" stop-color="#BB8950"/>
</linearGradient>
<linearGradient id="paint6_linear_31491_4467" x1="878.488" y1="218.619" x2="941.385" y2="300.048" gradientUnits="userSpaceOnUse">
<stop stop-color="#FFDFBA"/>
<stop offset="1" stop-color="#CD995B"/>
</linearGradient>
<linearGradient id="paint7_linear_31491_4467" x1="212.341" y1="199.499" x2="267.482" y2="295.434" gradientUnits="userSpaceOnUse">
<stop stop-color="white" stop-opacity="0.11"/>
<stop offset="1" stop-color="#FCB346" stop-opacity="0"/>
</linearGradient>
<linearGradient id="paint8_linear_31491_4467" x1="205.501" y1="196.071" x2="234.124" y2="286.514" gradientUnits="userSpaceOnUse">
<stop stop-color="#FFE5A7"/>
<stop offset="1" stop-color="#FAA839"/>
</linearGradient>
<clipPath id="clip0_31491_4467">
<rect width="1206" height="453" fill="white"/>
</clipPath>
</defs>
</svg>
