<svg width="784" height="244" viewBox="0 0 784 244" fill="none" xmlns="http://www.w3.org/2000/svg">
<path d="M633.988 217.164C633.555 216.19 633.339 214.947 633.339 213.432C633.339 211.81 633.501 210.133 633.826 208.402C634.258 206.672 635.124 205.211 636.422 204.021C637.828 202.723 639.559 202.074 641.614 202.074C643.777 201.966 645.562 202.345 646.968 203.21C648.374 204.076 649.294 205.049 649.726 206.131C650.267 207.104 650.808 208.402 651.349 210.025C651.89 211.539 652.322 212.567 652.647 213.108C655.459 217.759 659.732 219.922 665.465 219.598C671.306 219.165 675.579 216.623 678.283 211.972C679.473 210.133 680.014 208.294 679.906 206.455C679.906 204.616 679.527 203.102 678.77 201.912C678.013 200.614 676.931 199.424 675.525 198.343C674.227 197.153 672.983 196.233 671.793 195.584C670.711 194.935 669.575 194.34 668.386 193.799C667.953 193.691 667.304 193.421 666.439 192.988C663.085 191.582 660.489 190.446 658.65 189.581C656.811 188.607 654.324 187.093 651.187 185.038C648.158 182.983 645.724 180.927 643.885 178.872C642.046 176.709 640.208 173.842 638.369 170.273C636.638 166.703 635.34 162.755 634.475 158.428C633.177 152.263 633.231 146.476 634.637 141.067C636.043 135.659 638.369 131.17 641.614 127.6C644.859 124.03 648.915 121.434 653.783 119.812C658.65 118.081 663.842 117.703 669.359 118.676C674.551 119.65 679.311 121.543 683.637 124.355C688.072 127.059 691.48 130.142 693.859 133.603C696.347 137.065 698.186 140.526 699.376 143.988C700.674 147.341 701.269 150.261 701.161 152.749C700.728 157.509 699.052 160.97 696.131 163.134C693.21 165.189 689.911 165.405 686.233 163.783C684.935 163.242 683.854 162.539 682.988 161.673C682.123 160.808 681.42 159.78 680.879 158.59C680.338 157.401 679.906 156.319 679.581 155.345C679.257 154.264 678.878 152.912 678.445 151.289C678.013 149.667 677.58 148.368 677.147 147.395C676.39 145.123 674.605 143.555 671.793 142.69C669.089 141.824 666.33 142.203 663.518 143.825C660.814 145.34 659.191 148.044 658.65 151.938C658.218 154.967 658.542 157.833 659.624 160.538C660.814 163.242 662.653 165.73 665.141 168.001C667.628 170.273 669.954 172.22 672.117 173.842C674.389 175.357 677.039 176.979 680.068 178.71C681.258 179.359 683.259 180.332 686.071 181.63C688.992 182.929 691.155 184.064 692.561 185.038C694.076 186.011 695.806 187.363 697.753 189.094C699.809 190.825 701.377 192.988 702.459 195.584C703.541 198.072 704.298 201.047 704.73 204.508C705.92 213.378 702.621 220.842 694.833 226.899C687.153 232.849 677.201 235.877 664.978 235.985C660.002 235.985 655.622 235.499 651.836 234.525C648.05 233.443 644.967 231.875 642.587 229.82C640.316 227.765 638.531 225.818 637.233 223.979C636.043 222.032 634.961 219.76 633.988 217.164Z" fill="#032E4D"/>
<path d="M602.977 187.959L627.64 217.976C628.721 219.274 629.154 220.734 628.938 222.356C628.83 223.979 628.127 225.277 626.828 226.251C626.179 226.791 625.26 227.549 624.07 228.522C622.88 229.496 621.853 230.307 620.987 230.956C620.23 231.605 619.581 232.038 619.04 232.254C616.769 233.444 614.551 233.498 612.388 232.416C610.225 231.334 608.332 229.82 606.709 227.873C603.897 224.303 598.001 216.137 589.023 203.373C588.266 202.183 587.185 201.804 585.778 202.237C584.48 202.67 583.831 203.643 583.831 205.158C583.831 211.54 583.777 219.598 583.669 229.333C583.669 231.172 583.02 232.741 581.722 234.039C580.424 235.337 578.856 235.986 577.017 235.986H570.202C568.579 235.986 567.119 235.445 565.821 234.363C564.631 233.173 563.982 231.713 563.874 229.982C562.684 213.865 562.143 181.577 562.252 133.117C562.252 130.088 563.333 127.546 565.497 125.491C567.768 123.328 570.418 122.3 573.447 122.408C587.293 122.733 598.813 125.491 608.007 130.683C617.31 135.767 621.961 141.933 621.961 149.18C621.961 152.966 621.258 156.806 619.852 160.7C618.554 164.594 616.769 168.11 614.497 171.247C612.334 174.275 610.387 176.763 608.656 178.71C606.925 180.549 605.195 182.28 603.464 183.902C602.058 185.092 601.896 186.444 602.977 187.959ZM596 163.621C598.164 162.539 599.137 160.808 598.921 158.429C598.813 155.941 597.623 154.264 595.351 153.399L592.917 152.587C590.97 151.83 589.023 151.181 587.076 150.64C585.346 150.1 583.723 150.316 582.209 151.289C580.803 152.263 579.991 153.615 579.775 155.346C579.667 156.319 579.613 157.347 579.613 158.429C579.505 159.943 579.559 161.403 579.775 162.809C579.883 164.648 580.748 166.054 582.371 167.028C583.994 168.001 585.67 168.164 587.401 167.515C589.348 166.758 591.295 165.946 593.242 165.081C594.216 164.648 595.135 164.161 596 163.621Z" fill="#032E4D"/>
<path d="M489.411 122.895H493.305C495.793 122.895 497.848 123.814 499.47 125.653C501.201 127.384 501.958 129.493 501.742 131.981C497.632 182.604 501.634 208.132 513.749 208.564C516.777 208.997 519.374 207.97 521.537 205.482C523.808 202.994 525.485 199.424 526.567 194.773C527.757 190.013 528.622 184.984 529.163 179.683C529.812 174.383 530.136 168.542 530.136 162.16C530.136 155.67 530.028 150.099 529.812 145.448C529.704 140.797 529.487 136.145 529.163 131.494C528.946 129.006 529.704 126.843 531.434 125.004C533.273 123.165 535.437 122.3 537.925 122.408C539.439 122.516 540.575 122.57 541.332 122.57C543.603 122.678 545.496 123.544 547.011 125.166C548.633 126.68 549.499 128.573 549.607 130.845C549.715 136.686 549.769 145.177 549.769 156.319C549.877 167.46 549.931 175.302 549.931 179.846C550.256 196.071 550.31 212.35 550.094 228.684C550.094 230.631 549.336 232.362 547.822 233.876C546.416 235.282 544.685 235.985 542.63 235.985H535.815C533.76 235.985 531.975 235.282 530.461 233.876C529.055 232.362 528.352 230.577 528.352 228.522V221.22C528.352 220.571 528.081 220.193 527.54 220.084C526.999 219.976 526.621 220.139 526.405 220.571C525.215 222.518 523.917 224.357 522.51 226.088C521.212 227.71 519.482 229.387 517.318 231.118C515.155 232.848 512.505 234.092 509.368 234.85C506.339 235.607 503.148 235.715 499.795 235.174C497.415 234.741 495.252 233.93 493.305 232.74C491.466 231.55 489.843 230.036 488.437 228.197C487.139 226.358 486.003 224.465 485.03 222.518C484.056 220.571 483.245 218.3 482.596 215.704C482.055 213.108 481.568 210.782 481.136 208.727C480.811 206.672 480.541 204.346 480.325 201.75C480.216 199.046 480.108 196.99 480 195.584C480 194.07 480 192.339 480 190.392C480.108 188.337 480.162 187.255 480.162 187.147C479.838 167.785 480.108 149.017 480.974 130.845C481.082 128.573 481.947 126.68 483.57 125.166C485.192 123.652 487.139 122.895 489.411 122.895Z" fill="#032E4D"/>
<path d="M783.672 181.631C783.672 182.388 783.672 183.415 783.672 184.713C783.78 186.011 783.672 188.553 783.348 192.339C783.131 196.125 782.699 199.749 782.05 203.21C781.401 206.564 780.211 210.35 778.48 214.568C776.749 218.787 774.64 222.41 772.152 225.439C769.664 228.36 766.257 230.848 761.93 232.903C757.604 234.958 752.682 235.986 747.165 235.986C743.488 235.986 740.134 235.607 737.106 234.85C734.077 234.093 730.886 232.578 727.533 230.307C724.288 227.927 721.475 224.844 719.095 221.058C716.824 217.164 714.877 211.864 713.254 205.157C711.74 198.451 710.875 190.609 710.658 181.631C710.658 179.359 710.712 176.925 710.82 174.329C710.929 171.733 711.253 168.38 711.794 164.27C712.335 160.159 713.038 156.265 713.903 152.587C714.877 148.91 716.283 145.124 718.122 141.229C719.961 137.335 722.124 134.036 724.612 131.332C727.1 128.52 730.291 126.356 734.185 124.842C738.079 123.219 742.46 122.57 747.328 122.895C749.707 123.003 751.817 123.273 753.655 123.706C755.494 124.031 757.604 124.734 759.983 125.815C762.471 126.789 764.58 128.087 766.311 129.709C768.15 131.332 770.043 133.658 771.99 136.686C774.045 139.607 775.776 143.068 777.182 147.071C778.588 150.965 779.832 155.886 780.914 161.836C782.104 167.677 783.023 174.275 783.672 181.631ZM760.795 181.306C760.903 179.251 760.795 177.033 760.47 174.654C760.254 172.274 759.713 169.732 758.847 167.028C758.09 164.324 756.63 162.106 754.467 160.375C752.411 158.537 749.815 157.617 746.678 157.617C744.731 157.617 743.001 158.05 741.486 158.915C739.972 159.78 738.728 160.916 737.755 162.322C736.889 163.62 736.132 165.081 735.483 166.703C734.834 168.326 734.401 169.948 734.185 171.571C733.969 173.193 733.752 174.708 733.536 176.114C733.428 177.412 733.428 178.494 733.536 179.359V180.495C733.536 181.036 733.536 181.793 733.536 182.766C733.536 183.74 733.752 185.417 734.185 187.796C734.618 190.068 735.213 192.123 735.97 193.962C736.835 195.801 738.187 197.477 740.026 198.992C741.865 200.398 744.082 201.101 746.678 201.101C755.116 201.101 759.821 194.503 760.795 181.306Z" fill="#032E4D"/>
<path d="M732.977 126.7C732.273 121.724 728.001 117.892 722.829 117.892C717.165 117.897 712.577 122.485 712.577 128.143C712.577 132.907 715.825 136.91 720.232 138.063L732.977 126.7Z" fill="#032E4D"/>
<path d="M759.567 126.7C760.27 121.724 764.542 117.892 769.715 117.892C775.378 117.897 779.966 122.485 779.966 128.143C779.966 132.907 776.718 136.91 772.311 138.063L759.567 126.7Z" fill="#032E4D"/>
<path d="M436.207 151.748C453.98 151.044 462.867 166.574 462.867 198.336C462.867 204.583 462.031 210.215 460.359 215.23C458.688 220.245 456.532 224.16 453.893 226.976C451.253 229.791 448.525 231.947 445.71 233.443C442.894 234.85 440.167 235.554 437.527 235.554C435.943 235.554 434.448 235.466 433.04 235.29C431.632 235.026 430.048 234.586 428.289 233.971C426.529 233.267 424.901 232.343 423.406 231.199C421.998 229.967 420.546 228.296 419.05 226.184C417.643 224.072 416.411 221.609 415.355 218.793C414.387 215.89 413.551 212.326 412.847 208.103C412.231 203.792 411.879 198.952 411.792 193.585C411.792 193.057 411.835 192.309 411.923 191.342C412.011 190.286 412.231 188.35 412.583 185.535C412.935 182.719 413.419 179.992 414.035 177.352C414.651 174.712 415.575 171.809 416.807 168.641C418.126 165.474 419.578 162.746 421.162 160.459C422.834 158.083 424.945 156.06 427.497 154.388C430.136 152.716 433.04 151.836 436.207 151.748ZM447.558 194.905C447.91 189.89 447.426 185.227 446.106 180.915C444.786 176.516 442.586 173.965 439.507 173.261C437.571 172.909 435.812 173.085 434.228 173.789C432.732 174.492 431.544 175.68 430.664 177.352C429.872 178.936 429.169 180.519 428.553 182.103C428.025 183.687 427.629 185.491 427.365 187.514C427.189 189.538 427.057 190.946 426.969 191.738C426.969 192.441 426.969 193.145 426.969 193.849C426.969 195.785 427.057 197.677 427.233 199.524C427.409 201.284 427.761 203.396 428.289 205.859C428.905 208.323 429.872 210.302 431.192 211.798C432.6 213.294 434.316 214.086 436.339 214.174C438.451 214.174 440.211 213.69 441.619 212.722C443.114 211.754 444.214 210.302 444.918 208.367C445.71 206.343 446.282 204.319 446.634 202.296C447.074 200.272 447.382 197.809 447.558 194.905Z" fill="#032E4D"/>
<path d="M403.35 148.977C407.749 205.375 403.966 234.366 392 235.95C385.225 236.918 378.626 236.302 372.203 234.102C365.78 231.815 360.545 228.559 356.498 224.336C352.45 220.113 350.163 215.626 349.635 210.874C349.019 206.123 349.503 201.768 351.087 197.808C352.67 193.761 354.782 190.462 357.422 187.91C360.149 185.359 363.361 183.115 367.056 181.179C370.751 179.156 374.051 177.66 376.954 176.692C379.946 175.724 382.893 174.976 385.797 174.448C386.237 174.36 386.457 174.14 386.457 173.788L387.513 149.9C387.513 148.317 388.085 146.953 389.228 145.809C390.46 144.665 391.868 144.093 393.452 144.093H397.939C399.347 144.005 400.534 144.445 401.502 145.413C402.558 146.381 403.174 147.569 403.35 148.977ZM384.213 209.159C384.301 207.663 384.301 206.123 384.213 204.539C384.213 203.484 384.125 202.428 383.949 201.372C383.773 199.788 382.981 198.6 381.574 197.808C380.254 196.929 378.846 196.797 377.35 197.413C375.679 198.116 374.095 198.864 372.599 199.656C371.367 200.272 370.135 200.976 368.904 201.768C367.32 202.736 366.528 204.143 366.528 205.991C366.616 207.839 367.452 209.203 369.036 210.082C370.355 210.786 371.675 211.402 372.995 211.93C374.755 212.634 376.514 213.206 378.274 213.646C379.77 213.998 381.09 213.734 382.233 212.854C383.465 211.886 384.125 210.654 384.213 209.159Z" fill="#032E4D"/>
<path d="M332.293 237.987C332.633 239.35 332.35 240.542 331.441 241.565C330.532 242.587 329.397 243.098 328.034 243.098H314.065C313.043 243.098 312.134 242.757 311.339 242.076C310.544 241.394 310.033 240.542 309.806 239.52C309.238 236.454 308.5 233.388 307.592 230.321C306.797 228.05 305.945 225.835 305.036 223.678C304.355 222.201 303.219 221.349 301.629 221.122C298.109 220.554 294.531 220.271 290.897 220.271C287.49 220.384 284.083 220.668 280.676 221.122C279.313 221.349 278.291 222.088 277.61 223.337C276.02 225.949 274.77 228.731 273.862 231.684C272.953 234.296 272.272 236.908 271.818 239.52C271.59 240.542 271.079 241.394 270.284 242.076C269.489 242.757 268.581 243.098 267.559 243.098H254.101C252.738 243.098 251.602 242.644 250.694 241.735C249.899 240.713 249.558 239.52 249.672 238.158C253.987 206.131 261.824 170.811 273.18 132.198C273.862 129.813 275.168 127.939 277.098 126.577C279.029 125.1 281.187 124.362 283.572 124.362H297.882C300.266 124.362 302.424 125.043 304.355 126.406C306.286 127.769 307.592 129.586 308.273 131.857C315.541 154.117 323.548 189.493 332.293 237.987ZM298.733 195.74C300.323 195.513 301.572 194.774 302.481 193.525C303.39 192.162 303.674 190.686 303.333 189.096C302.879 186.825 302.197 184.156 301.289 181.089C299.471 175.07 297.37 170.641 294.986 167.802C293.963 166.553 292.657 165.928 291.067 165.928C289.477 165.814 288.115 166.325 286.979 167.461C282.436 171.777 279.597 179.102 278.461 189.437C278.348 190.913 278.688 192.276 279.483 193.525C280.392 194.661 281.584 195.399 283.061 195.74C284.991 196.08 286.979 196.308 289.023 196.421C292.317 196.535 295.553 196.308 298.733 195.74Z" fill="#032E4D"/>
<path d="M171.388 223.848C170.933 222.826 170.706 221.519 170.706 219.93C170.706 218.226 170.877 216.466 171.217 214.649C171.672 212.831 172.58 211.298 173.943 210.049C175.419 208.686 177.236 208.005 179.394 208.005C181.666 207.891 183.539 208.289 185.016 209.197C186.492 210.106 187.458 211.128 187.912 212.264C188.48 213.286 189.047 214.649 189.615 216.352C190.183 217.942 190.637 219.021 190.978 219.589C193.931 224.472 198.417 226.744 204.436 226.403C210.569 225.949 215.055 223.28 217.894 218.396C219.143 216.466 219.711 214.535 219.597 212.604C219.597 210.674 219.2 209.084 218.405 207.834C217.61 206.472 216.474 205.222 214.998 204.087C213.635 202.837 212.329 201.872 211.08 201.191C209.944 200.509 208.752 199.885 207.502 199.317C207.048 199.203 206.367 198.919 205.458 198.465C201.938 196.989 199.212 195.796 197.281 194.888C195.351 193.866 192.738 192.276 189.445 190.118C186.265 187.96 183.71 185.802 181.779 183.644C179.848 181.373 177.918 178.363 175.987 174.616C174.17 170.868 172.807 166.723 171.899 162.18C170.536 155.707 170.593 149.631 172.069 143.952C173.545 138.274 175.987 133.561 179.394 129.813C182.801 126.065 187.06 123.34 192.171 121.636C197.281 119.819 202.732 119.421 208.524 120.444C213.976 121.466 218.973 123.453 223.516 126.406C228.172 129.245 231.749 132.482 234.248 136.116C236.86 139.75 238.79 143.384 240.04 147.019C241.403 150.539 242.027 153.606 241.914 156.218C241.459 161.215 239.699 164.849 236.633 167.12C233.566 169.278 230.102 169.505 226.241 167.802C224.878 167.234 223.743 166.496 222.834 165.587C221.926 164.678 221.187 163.6 220.62 162.35C220.052 161.101 219.597 159.965 219.257 158.943C218.916 157.808 218.519 156.388 218.064 154.684C217.61 152.981 217.156 151.618 216.701 150.596C215.906 148.211 214.033 146.564 211.08 145.656C208.241 144.747 205.345 145.145 202.392 146.848C199.553 148.438 197.849 151.277 197.281 155.366C196.827 158.546 197.168 161.555 198.303 164.395C199.553 167.234 201.483 169.846 204.095 172.231C206.707 174.616 209.149 176.66 211.42 178.363C213.805 179.953 216.588 181.657 219.768 183.474C221.017 184.155 223.118 185.178 226.071 186.54C229.137 187.903 231.409 189.096 232.885 190.118C234.475 191.14 236.292 192.56 238.336 194.377C240.494 196.194 242.141 198.465 243.276 201.191C244.412 203.803 245.207 206.926 245.661 210.56C246.911 219.873 243.447 227.709 235.27 234.069C227.206 240.315 216.758 243.495 203.925 243.609C198.701 243.609 194.101 243.097 190.126 242.075C186.151 240.94 182.915 239.293 180.416 237.135C178.031 234.977 176.157 232.933 174.795 231.002C173.545 228.958 172.41 226.573 171.388 223.848Z" fill="#032E4D"/>
<path d="M166.099 237.987C166.439 239.35 166.155 240.542 165.247 241.565C164.338 242.587 163.203 243.098 161.84 243.098H147.871C146.849 243.098 145.94 242.757 145.145 242.076C144.35 241.394 143.839 240.542 143.612 239.52C143.044 236.454 142.306 233.388 141.398 230.321C140.603 228.05 139.751 225.835 138.842 223.678C138.161 222.201 137.025 221.349 135.435 221.122C131.915 220.554 128.337 220.271 124.703 220.271C121.296 220.384 117.889 220.668 114.482 221.122C113.119 221.349 112.097 222.088 111.415 223.337C109.825 225.949 108.576 228.731 107.668 231.684C106.759 234.296 106.078 236.908 105.623 239.52C105.396 240.542 104.885 241.394 104.09 242.076C103.295 242.757 102.387 243.098 101.365 243.098H87.9068C86.5439 243.098 85.4083 242.644 84.4997 241.735C83.7047 240.713 83.364 239.52 83.4776 238.158C87.7932 206.131 95.6294 170.811 106.986 132.198C107.668 129.813 108.974 127.939 110.904 126.577C112.835 125.1 114.993 124.362 117.378 124.362H131.687C134.072 124.362 136.23 125.043 138.161 126.406C140.091 127.769 141.398 129.586 142.079 131.857C149.347 154.117 157.354 189.493 166.099 237.987ZM132.539 195.74C134.129 195.513 135.378 194.774 136.287 193.525C137.195 192.162 137.479 190.686 137.139 189.096C136.684 186.825 136.003 184.156 135.094 181.089C133.277 175.07 131.176 170.641 128.791 167.802C127.769 166.553 126.463 165.928 124.873 165.928C123.283 165.814 121.921 166.325 120.785 167.461C116.242 171.777 113.403 179.102 112.267 189.437C112.154 190.913 112.494 192.276 113.289 193.525C114.198 194.661 115.39 195.399 116.867 195.74C118.797 196.08 120.785 196.308 122.829 196.421C126.123 196.535 129.359 196.308 132.539 195.74Z" fill="#032E4D"/>
<path d="M67.4375 154.515C66.9833 154.287 66.4154 154.06 65.734 153.833C65.0526 153.492 63.6898 153.038 61.6455 152.47C59.6013 151.789 57.5571 151.335 55.5129 151.107C53.5822 150.767 51.254 150.71 48.5284 150.937C45.9163 151.164 43.4178 151.789 41.0329 152.811C38.7615 153.72 36.4334 155.309 34.0484 157.581C31.7771 159.739 29.7896 162.521 28.0861 165.928C25.3604 171.834 23.7705 177.739 23.3162 183.645C22.9755 189.437 23.5433 194.491 25.0197 198.806C26.6097 203.122 28.4268 206.813 30.471 209.879C32.6288 212.945 34.9002 215.217 37.2851 216.693C45.9163 222.485 55.1722 221.52 65.0526 213.797C65.8476 213.229 66.9265 212.775 68.2893 212.434C69.7657 211.98 71.2989 211.753 72.8888 211.753C74.5924 211.753 76.1255 212.321 77.4883 213.457C78.8512 214.592 79.7029 216.296 80.0436 218.567C81.1793 224.7 78.2833 230.321 71.3557 235.432C64.428 240.543 55.5129 243.098 44.6103 243.098C38.9319 243.098 33.4806 241.735 28.2564 239.009C23.1458 236.17 18.5463 232.195 14.4579 227.085C10.3694 221.861 7.1327 215.274 4.74776 207.324C2.36282 199.26 1.11357 190.402 1 180.749C1 174.389 1.85176 168.313 3.55529 162.521C5.25882 156.616 7.53019 151.448 10.3694 147.019C13.2086 142.59 16.4453 138.729 20.0795 135.435C23.8273 132.028 27.7454 129.416 31.8338 127.599C35.9223 125.668 39.954 124.589 43.9289 124.362C53.0144 123.681 60.3395 124.589 65.9044 127.088C71.5828 129.586 75.5577 132.993 77.8291 137.309C78.8512 139.353 79.4758 141.568 79.7029 143.953C79.9301 146.224 79.7029 148.325 79.0215 150.256C78.3401 152.073 76.9773 153.436 74.9331 154.344C72.8888 155.253 70.3903 155.309 67.4375 154.515Z" fill="#032E4D"/>
<path d="M8.74082 8.24623C10.3235 8.17429 11.8702 8.13832 13.381 8.13832C14.8918 8.13832 16.4025 8.17429 17.9133 8.24623C18.9205 8.24623 19.7837 8.64191 20.5032 9.43325C21.2226 10.1527 21.5823 11.016 21.5823 12.0231C21.7981 22.5265 21.7621 33.0658 21.4744 43.6412C21.2585 55.8711 20.719 68.1011 19.8557 80.331C19.7837 81.3382 19.3881 82.2015 18.6687 82.9209C18.0212 83.5684 17.1939 83.9281 16.1867 84C15.0356 84.0719 13.8846 84.1079 12.7335 84.1079C11.3667 84.1079 9.99979 84.0719 8.63291 84C7.69768 83.9281 6.87036 83.5684 6.15095 82.9209C5.50348 82.2015 5.14377 81.3382 5.07183 80.331C4.1366 68.3888 3.70496 56.4466 3.7769 44.5044C3.84884 33.5694 4.28048 22.6704 5.07183 11.8073C5.14377 10.8001 5.53945 9.97281 6.25886 9.32534C6.97827 8.60594 7.80559 8.24623 8.74082 8.24623ZM57.4417 14.8288C59.8877 14.8288 61.974 15.8 63.7006 17.7424C65.4991 19.6129 66.9019 22.0229 67.9091 24.9725C68.9163 27.8501 69.7076 31.3752 70.2832 35.5478C70.8587 39.6484 71.1824 43.6412 71.2544 47.526C71.3983 51.4108 71.3983 55.5833 71.2544 60.0437C71.1824 64.4321 71.0385 68.0651 70.8227 70.9427C70.6069 73.7484 70.3551 76.4822 70.0673 79.144C69.9954 80.367 69.4918 81.3742 68.5566 82.1655C67.6933 82.9569 66.6861 83.3525 65.5351 83.3525H62.8373C61.4704 83.3525 60.3194 82.8849 59.3841 81.9497C58.5208 80.9425 58.1252 79.7555 58.1971 78.3886C58.341 76.0865 58.4489 73.8204 58.5208 71.5902C58.5928 69.2881 58.5928 66.5903 58.5208 63.4968C58.4489 60.3314 58.2331 57.4898 57.8734 54.9718C57.5137 52.4539 57.0101 50.1158 56.3626 47.9576C55.7151 45.7274 54.7799 44.1088 53.5569 43.1016C52.3339 42.0944 50.8951 41.8067 49.2405 42.2383C47.4419 42.67 45.9671 44.3606 44.8161 47.3101C43.665 50.1878 42.9456 53.4971 42.6579 57.238C42.3701 60.907 42.1543 64.7198 42.0104 68.6766C41.9385 72.6333 42.0104 75.9066 42.2262 78.4965C42.2982 79.8634 41.8665 81.0145 40.9313 81.9497C40.068 82.8849 38.9529 83.3525 37.586 83.3525H34.7803C33.917 83.3525 33.1257 83.1727 32.4063 82.813C31.7588 82.3813 31.2193 81.8058 30.7876 81.0864C30.356 80.367 30.1401 79.6116 30.1401 78.8203L29.2769 19.469C29.2769 18.6777 29.4567 17.9223 29.8164 17.2029C30.2481 16.4835 30.8236 15.9079 31.543 15.4763C32.2624 15.0446 33.0538 14.8288 33.917 14.8288H37.2623C38.4853 14.8288 39.5284 15.2605 40.3917 16.1238C41.327 16.9871 41.8305 18.0662 41.9025 19.3611L42.1183 28.7494C42.1183 29.1091 42.2982 29.3249 42.6579 29.3969C43.0176 29.3969 43.2334 29.253 43.3053 28.9652C43.665 27.5983 44.0607 26.3394 44.4924 25.1883C44.9959 24.0373 45.6434 22.8143 46.4348 21.5193C47.2261 20.2244 48.1254 19.1093 49.1325 18.1741C50.1397 17.2388 51.3627 16.4475 52.8015 15.8C54.2403 15.1526 55.7871 14.8288 57.4417 14.8288ZM103.315 32.5263C102.02 32.1666 100.833 32.2385 99.7539 32.7421C98.6748 33.2457 97.8475 34.073 97.272 35.2241C96.049 37.4542 96.5166 39.4686 98.6748 41.2671C99.3942 41.9146 102.092 43.9289 106.768 47.3101C107.056 47.526 107.955 48.1375 109.466 49.1446C111.049 50.1518 112.236 50.9791 113.027 51.6266C117.415 55.2236 119.718 59.2164 119.933 63.6048C120.221 67.9931 118.423 72.2377 114.538 76.3383C110.006 81.1583 103.998 83.4964 96.5166 83.3525C91.5527 83.2087 87.3081 82.0936 83.783 80.0073C78.3155 76.8419 75.7257 72.5254 76.0134 67.0579C76.1573 65.1155 77.0206 63.7127 78.6033 62.8494C80.186 61.9141 81.8766 61.9141 83.6751 62.8494C84.6823 63.4249 85.9413 64.468 87.452 65.9788C89.1786 67.7773 90.8692 69.1442 92.5239 70.0794C94.1785 71.0147 96.013 71.4463 98.0273 71.3744C100.617 71.2305 102.811 70.1873 104.61 68.2449C105.977 66.7342 106.552 65.0795 106.337 63.281C106.193 61.4825 105.221 60.0077 103.423 58.8567C102.488 58.1372 100.977 57.166 98.8906 55.943C96.8763 54.6481 95.4015 53.6769 94.4663 53.0294C88.711 49.0008 85.078 46.303 83.5672 44.9361C80.2579 41.8426 78.5673 38.1377 78.4954 33.8212C78.4954 29.5048 80.0421 25.6919 83.1356 22.3826C87.0204 18.282 91.7685 16.2317 97.3799 16.2317C105.221 16.1597 111.768 18.246 117.02 22.4905C119.394 24.361 120.869 26.807 121.444 29.8285C121.948 32.5623 121.228 34.7205 119.286 36.3032C117.343 37.8139 114.969 37.8499 112.164 36.4111C108.423 34.5406 105.473 33.2457 103.315 32.5263ZM159.558 57.6696C160.061 57.6696 160.457 57.8495 160.745 58.2092C161.105 58.5689 161.284 58.9646 161.284 59.3962C161.213 63.4968 160.781 67.0219 159.99 69.9715C159.27 72.9211 158.335 75.2232 157.184 76.8779C156.105 78.4606 154.702 79.7555 152.975 80.7627C151.321 81.7698 149.774 82.4173 148.335 82.7051C146.968 82.9928 145.314 83.1727 143.371 83.2446C141.645 83.2446 140.062 83.0648 138.623 82.7051C137.256 82.2734 136.033 81.7339 134.954 81.0864C133.875 80.4389 132.904 79.5037 132.04 78.2807C131.249 77.0577 130.566 75.8707 129.99 74.7196C129.487 73.5686 129.019 72.0578 128.587 70.1873C128.228 68.3169 127.94 66.6622 127.724 65.2234C127.508 63.7127 127.328 61.7703 127.184 59.3962C127.041 57.0222 126.933 55.0438 126.861 53.4611C126.861 51.8784 126.861 49.7561 126.861 47.0943C126.717 35.8715 126.609 23.6776 126.537 10.5124C126.537 9.93684 126.717 9.46923 127.077 9.10952C127.508 8.67788 128.012 8.42608 128.587 8.35414L137.328 8.13832C137.904 8.06638 138.407 8.24623 138.839 8.67788C139.271 9.10952 139.522 9.61311 139.594 10.1886L140.134 29.8285C140.206 30.476 140.422 31.0155 140.781 31.4472C141.213 31.8069 141.753 31.9867 142.4 31.9867L156.321 31.663C156.896 31.663 157.4 31.8788 157.831 32.3105C158.263 32.7421 158.479 33.2457 158.479 33.8212V42.1304C158.479 42.4901 158.371 42.8498 158.155 43.2095C157.939 43.4973 157.651 43.7491 157.292 43.9649C157.004 44.1807 156.68 44.2886 156.321 44.2886L142.292 44.3965C142.004 44.3965 141.717 44.4685 141.429 44.6124C141.213 44.6843 140.997 44.8282 140.781 45.044C140.637 45.1879 140.494 45.3677 140.35 45.5836C140.206 45.7994 140.134 46.0512 140.134 46.3389C139.271 57.9214 140.386 64.468 143.479 65.9788C144.414 66.3385 145.206 66.5543 145.853 66.6263C146.573 66.6982 147.22 66.5184 147.796 66.0867C148.371 65.6551 148.839 65.1875 149.198 64.6839C149.63 64.1803 149.99 63.5688 150.278 62.8494C150.637 62.058 150.889 61.3746 151.033 60.7991C151.177 60.2235 151.285 59.648 151.357 59.0725C151.572 58.0653 152.184 57.5617 153.191 57.5617L159.558 57.6696ZM175.978 30.1522C177.633 30.0803 179.036 30.6199 180.187 31.7709C181.41 32.922 182.057 34.3248 182.129 35.9794C182.633 51.087 182.669 65.2234 182.237 78.3886C182.165 79.9713 181.518 81.3382 180.295 82.4892C179.144 83.6403 177.741 84.2158 176.086 84.2158H173.82C172.165 84.1439 170.762 83.5684 169.611 82.4892C168.46 81.3382 167.849 79.9353 167.777 78.2807C167.417 66.4104 167.381 52.346 167.669 36.0874C167.741 34.4327 168.352 33.0299 169.503 31.8788C170.654 30.7278 172.057 30.1522 173.712 30.1522C174.359 30.1522 175.115 30.1522 175.978 30.1522ZM179.539 8.03041C181.554 8.31817 183.028 9.36131 183.964 11.1598C184.971 12.8864 185.043 14.6849 184.179 16.5554C183.604 17.8503 182.92 19.1093 182.129 20.3323C181.266 21.6272 180.295 22.8862 179.215 24.1092C177.921 25.548 176.338 26.2315 174.467 26.1595C172.597 26.0876 171.05 25.2962 169.827 23.7855C168.964 22.7064 168.208 21.5553 167.561 20.3323C166.77 18.9654 166.05 17.5985 165.403 16.2317C164.971 14.8648 164.863 13.6058 165.079 12.4548C165.367 11.2318 166.014 10.1886 167.021 9.32534C168.029 8.46205 169.216 7.95847 170.583 7.81459C172.237 7.74265 173.928 7.74265 175.654 7.81459C176.949 7.81459 178.244 7.88653 179.539 8.03041ZM223.209 57.6696C223.712 57.6696 224.108 57.8495 224.396 58.2092C224.755 58.5689 224.935 58.9646 224.935 59.3962C224.863 63.4968 224.432 67.0219 223.64 69.9715C222.921 72.9211 221.986 75.2232 220.835 76.8779C219.756 78.4606 218.353 79.7555 216.626 80.7627C214.971 81.7698 213.425 82.4173 211.986 82.7051C210.619 82.9928 208.964 83.1727 207.022 83.2446C205.295 83.2446 203.713 83.0648 202.274 82.7051C200.907 82.2734 199.684 81.7339 198.605 81.0864C197.526 80.4389 196.555 79.5037 195.691 78.2807C194.9 77.0577 194.217 75.8707 193.641 74.7196C193.137 73.5686 192.67 72.0578 192.238 70.1873C191.878 68.3169 191.591 66.6622 191.375 65.2234C191.159 63.7127 190.979 61.7703 190.835 59.3962C190.691 57.0222 190.584 55.0438 190.512 53.4611C190.512 51.8784 190.512 49.7561 190.512 47.0943C190.368 35.8715 190.26 23.6776 190.188 10.5124C190.188 9.93684 190.368 9.46923 190.727 9.10952C191.159 8.67788 191.663 8.42608 192.238 8.35414L200.979 8.13832C201.555 8.06638 202.058 8.24623 202.49 8.67788C202.921 9.10952 203.173 9.61311 203.245 10.1886L203.785 29.8285C203.857 30.476 204.072 31.0155 204.432 31.4472C204.864 31.8069 205.403 31.9867 206.051 31.9867L219.971 31.663C220.547 31.663 221.05 31.8788 221.482 32.3105C221.914 32.7421 222.13 33.2457 222.13 33.8212V42.1304C222.13 42.4901 222.022 42.8498 221.806 43.2095C221.59 43.4973 221.302 43.7491 220.943 43.9649C220.655 44.1807 220.331 44.2886 219.971 44.2886L205.943 44.3965C205.655 44.3965 205.367 44.4685 205.08 44.6124C204.864 44.6843 204.648 44.8282 204.432 45.044C204.288 45.1879 204.144 45.3677 204 45.5836C203.857 45.7994 203.785 46.0512 203.785 46.3389C202.921 57.9214 204.036 64.468 207.13 65.9788C208.065 66.3385 208.857 66.5543 209.504 66.6263C210.223 66.6982 210.871 66.5184 211.446 66.0867C212.022 65.6551 212.49 65.1875 212.849 64.6839C213.281 64.1803 213.641 63.5688 213.928 62.8494C214.288 62.058 214.54 61.3746 214.684 60.7991C214.828 60.2235 214.936 59.648 215.007 59.0725C215.223 58.0653 215.835 57.5617 216.842 57.5617L223.209 57.6696ZM270.815 18.9295L271.679 78.1728C271.751 79.4677 271.319 80.5828 270.384 81.518C269.448 82.4533 268.333 82.9209 267.038 82.9209H263.693C262.47 82.9209 261.391 82.4892 260.456 81.626C259.593 80.6907 259.125 79.6116 259.053 78.3886L258.837 68.8924C258.837 68.5327 258.657 68.3529 258.298 68.3529C257.938 68.2809 257.722 68.4248 257.65 68.7845C257.218 70.4391 256.643 72.0218 255.924 73.5326C255.276 74.9714 254.413 76.4462 253.334 77.957C252.255 79.4677 250.852 80.6547 249.125 81.518C247.471 82.3813 245.6 82.813 243.514 82.813C241.14 82.813 239.053 81.8777 237.255 80.0073C235.456 78.1368 234.054 75.7268 233.046 72.7772C232.039 69.8276 231.248 66.3025 230.672 62.2019C230.169 58.0293 229.845 54.0366 229.701 50.2237C229.557 46.3389 229.557 42.2023 229.701 37.8139C229.845 33.3536 229.989 29.7206 230.133 26.9149C230.349 24.0373 230.6 21.2316 230.888 18.4978C230.96 17.3468 231.428 16.3756 232.291 15.5842C233.226 14.7209 234.305 14.2893 235.528 14.2893H238.226C239.521 14.2893 240.636 14.7929 241.571 15.8C242.507 16.7353 242.902 17.8863 242.758 19.2532C242.758 19.7568 242.722 20.6201 242.65 21.8431C242.507 23.6416 242.399 25.0804 242.327 26.1595C242.255 27.2386 242.147 28.8933 242.003 31.1234C241.931 33.2817 241.895 35.0802 241.895 36.519C241.895 37.9578 241.895 39.7563 241.895 41.9146C241.895 44.0009 241.967 45.7994 242.111 47.3101C242.327 48.749 242.543 50.3676 242.758 52.1662C243.046 53.8927 243.442 55.3315 243.945 56.4826C244.449 57.5617 244.989 58.6049 245.564 59.612C246.14 60.6192 246.859 61.3386 247.722 61.7703C248.586 62.2019 249.557 62.3818 250.636 62.3098C257.326 61.8782 260.024 47.49 258.729 19.1453C258.657 17.8503 259.089 16.7353 260.024 15.8C260.959 14.7929 262.075 14.2893 263.369 14.2893H266.283C267.506 14.2893 268.549 14.7569 269.412 15.6921C270.348 16.5554 270.815 17.6345 270.815 18.9295ZM311.835 57.6696C312.339 57.6696 312.734 57.8495 313.022 58.2092C313.382 58.5689 313.562 58.9646 313.562 59.3962C313.49 63.4968 313.058 67.0219 312.267 69.9715C311.547 72.9211 310.612 75.2232 309.461 76.8779C308.382 78.4606 306.979 79.7555 305.253 80.7627C303.598 81.7698 302.051 82.4173 300.612 82.7051C299.245 82.9928 297.591 83.1727 295.648 83.2446C293.922 83.2446 292.339 83.0648 290.9 82.7051C289.533 82.2734 288.31 81.7339 287.231 81.0864C286.152 80.4389 285.181 79.5037 284.318 78.2807C283.526 77.0577 282.843 75.8707 282.267 74.7196C281.764 73.5686 281.296 72.0578 280.865 70.1873C280.505 68.3169 280.217 66.6622 280.001 65.2234C279.785 63.7127 279.606 61.7703 279.462 59.3962C279.318 57.0222 279.21 55.0438 279.138 53.4611C279.138 51.8784 279.138 49.7561 279.138 47.0943C278.994 35.8715 278.886 23.6776 278.814 10.5124C278.814 9.93684 278.994 9.46923 279.354 9.10952C279.785 8.67788 280.289 8.42608 280.865 8.35414L289.605 8.13832C290.181 8.06638 290.684 8.24623 291.116 8.67788C291.548 9.10952 291.8 9.61311 291.872 10.1886L292.411 29.8285C292.483 30.476 292.699 31.0155 293.059 31.4472C293.49 31.8069 294.03 31.9867 294.677 31.9867L308.598 31.663C309.173 31.663 309.677 31.8788 310.109 32.3105C310.54 32.7421 310.756 33.2457 310.756 33.8212V42.1304C310.756 42.4901 310.648 42.8498 310.432 43.2095C310.216 43.4973 309.929 43.7491 309.569 43.9649C309.281 44.1807 308.957 44.2886 308.598 44.2886L294.569 44.3965C294.282 44.3965 293.994 44.4685 293.706 44.6124C293.49 44.6843 293.274 44.8282 293.059 45.044C292.915 45.1879 292.771 45.3677 292.627 45.5836C292.483 45.7994 292.411 46.0512 292.411 46.3389C291.548 57.9214 292.663 64.468 295.756 65.9788C296.692 66.3385 297.483 66.5543 298.13 66.6263C298.85 66.6982 299.497 66.5184 300.073 66.0867C300.648 65.6551 301.116 65.1875 301.476 64.6839C301.907 64.1803 302.267 63.5688 302.555 62.8494C302.914 62.058 303.166 61.3746 303.31 60.7991C303.454 60.2235 303.562 59.648 303.634 59.0725C303.85 58.0653 304.461 57.5617 305.468 57.5617L311.835 57.6696ZM337.212 15.1526C351.744 14.577 359.01 27.2746 359.01 53.2453C359.01 58.3531 358.327 62.9573 356.96 67.0579C355.593 71.1585 353.83 74.3599 351.672 76.662C349.514 78.9641 347.284 80.7267 344.982 81.9497C342.68 83.1007 340.449 83.6763 338.291 83.6763C336.996 83.6763 335.773 83.6043 334.622 83.4604C333.471 83.2446 332.176 82.8849 330.737 82.3813C329.299 81.8058 327.968 81.0504 326.745 80.1152C325.594 79.108 324.407 77.7411 323.184 76.0146C322.032 74.288 321.025 72.2736 320.162 69.9715C319.371 67.5975 318.687 64.6839 318.112 61.2307C317.608 57.7056 317.32 53.7489 317.248 49.3605C317.248 48.9288 317.284 48.3173 317.356 47.526C317.428 46.6627 317.608 45.08 317.896 42.7779C318.184 40.4758 318.579 38.2456 319.083 36.0874C319.586 33.9291 320.342 31.5551 321.349 28.9652C322.428 26.3753 323.615 24.1452 324.91 22.2747C326.277 20.3323 328.004 18.6777 330.09 17.3108C332.248 15.9439 334.622 15.2245 337.212 15.1526ZM346.492 50.4396C346.78 46.3389 346.384 42.5261 345.305 39.001C344.226 35.4039 342.428 33.3176 339.91 32.7421C338.327 32.4543 336.888 32.5982 335.593 33.1738C334.37 33.7493 333.399 34.7205 332.68 36.0874C332.032 37.3823 331.457 38.6772 330.953 39.9722C330.522 41.2671 330.198 42.7419 329.982 44.3965C329.838 46.0512 329.73 47.2022 329.658 47.8497C329.658 48.4252 329.658 49.0008 329.658 49.5763C329.658 51.159 329.73 52.7057 329.874 54.2165C330.018 55.6553 330.306 57.3819 330.737 59.3962C331.241 61.4106 332.032 63.0292 333.111 64.2522C334.262 65.4752 335.665 66.1227 337.32 66.1946C339.046 66.1946 340.485 65.799 341.636 65.0076C342.859 64.2163 343.759 63.0292 344.334 61.4465C344.982 59.7919 345.449 58.1372 345.737 56.4826C346.097 54.828 346.349 52.8136 346.492 50.4396Z" fill="#032E4D"/>
<path d="M462.868 61.508L439.29 47.8435L462.868 34.1789C464.197 33.4088 464.651 31.7049 463.884 30.3703L458.33 20.7129C457.564 19.3801 455.866 18.9219 454.537 19.692L430.959 33.3565V14.6792C430.959 13.1391 429.716 11.8916 428.182 11.8916H417.074C415.541 11.8916 414.297 13.1391 414.297 14.6792V33.3583L390.72 19.6937C389.391 18.9236 387.693 19.3819 386.927 20.7147L381.373 30.3703C380.606 31.7031 381.06 33.4088 382.389 34.1789L405.967 47.8435L382.389 61.508C381.06 62.2781 380.606 63.9838 381.373 65.3166L386.927 74.974C387.693 76.3068 389.391 76.7633 390.72 75.9949L414.297 62.3304V81.5483C414.297 83.0885 415.541 84.3359 417.074 84.3359H428.182C429.716 84.3359 430.959 83.0885 430.959 81.5483V62.3286L454.537 75.9932C455.866 76.7633 457.564 76.3068 458.33 74.9722L463.884 65.3149C464.651 63.982 464.197 62.2781 462.868 61.508Z" fill="#F5BF42"/>
<path d="M561.345 16.8451C552.434 9.29355 539.181 10.6519 531.002 19.0443L527.799 22.3268L524.595 19.0443C516.432 10.6519 503.164 9.29355 494.253 16.8451C484.041 25.5124 483.504 41.0682 492.643 50.4632L524.108 82.7715C526.14 84.8574 529.441 84.8574 531.474 82.7715L562.938 50.4632C572.093 41.0682 571.557 25.5124 561.345 16.8451Z" fill="#F9746E"/>
<path d="M591.338 38.5867C591.338 34.3567 593.773 30.5046 597.594 28.69L628.328 14.0944C631.263 12.7005 634.67 12.7005 637.605 14.0944L668.339 28.69C672.16 30.5046 674.595 34.3567 674.595 38.5867V73.3798C674.595 79.4307 669.69 84.3359 663.639 84.3359H602.294C596.243 84.3359 591.338 79.4307 591.338 73.3798V38.5867Z" fill="#4497C3"/>
<path d="M718.443 21.3636C717.69 16.0086 713.092 11.8918 707.532 11.8918C701.442 11.8918 696.507 16.8268 696.507 22.9166C696.507 28.0397 700.002 32.3446 704.74 33.5827L718.443 21.3636Z" fill="#CD995B"/>
<path d="M714.338 21.9972C713.872 18.6784 711.022 16.127 707.576 16.127C703.801 16.127 700.743 19.1855 700.743 22.9598C700.743 26.1349 702.909 28.803 705.846 29.5703L714.338 21.9972Z" fill="black"/>
<path d="M758.064 21.3636C758.817 16.0086 763.415 11.8918 768.975 11.8918C775.065 11.8918 780 16.8268 780 22.9166C780 28.0397 776.504 32.3446 771.766 33.5827L758.064 21.3636Z" fill="#CD995B"/>
<path d="M762.488 21.5514C762.955 18.2326 765.805 15.6812 769.251 15.6812C773.025 15.6812 776.084 18.7397 776.084 22.514C776.084 25.6891 773.917 28.3572 770.981 29.1245L762.488 21.5514Z" fill="black"/>
<path d="M738.166 84.3361C747.261 84.3361 764.988 84.0517 774.105 71.7713C777.597 67.0682 779.824 60.6109 779.824 51.7385C779.824 19.6791 756.523 11.8917 738.166 11.8917C719.808 11.8917 696.508 19.246 696.508 51.7385C696.508 60.4052 698.634 66.7664 701.981 71.4388C711.023 84.0473 728.987 84.3361 738.166 84.3361Z" fill="#CD995B"/>
<path d="M738.424 57.1972C742.88 56.8945 747.616 52.4662 747.616 48.5891C747.616 44.712 743.718 42.9656 737.954 42.9656H737.835C732.065 42.9656 728.167 44.5716 728.167 48.5891C728.167 52.6066 732.898 56.8997 737.359 57.1972H738.424Z" fill="black"/>
<path d="M720.089 43.8843C722.307 43.8843 724.105 41.85 724.105 39.3405C724.105 36.8311 722.307 34.7968 720.089 34.7968C717.871 34.7968 716.073 36.8311 716.073 39.3405C716.073 41.85 717.871 43.8843 720.089 43.8843Z" fill="black"/>
<path d="M755.552 43.8843C757.77 43.8843 759.568 41.85 759.568 39.3405C759.568 36.8311 757.77 34.7968 755.552 34.7968C753.334 34.7968 751.536 36.8311 751.536 39.3405C751.536 41.85 753.334 43.8843 755.552 43.8843Z" fill="black"/>
<path d="M732.618 68.1521C731.94 68.1521 731.244 68.0864 730.557 67.9508C728.724 67.5877 727.21 66.8002 726.296 65.7284C726.139 65.5446 726.16 65.269 726.344 65.1115C726.528 64.954 726.804 64.9759 726.961 65.1596C727.735 66.0652 729.109 66.7696 730.728 67.089C732.32 67.404 733.952 67.3208 735.203 66.8571C736.21 66.4852 737.413 65.7021 737.413 64.0921V56.0817C737.413 55.841 737.61 55.6442 737.85 55.6442C738.091 55.6442 738.288 55.841 738.288 56.0817V64.0921C738.288 65.7459 737.299 67.019 735.51 67.6796C734.657 67.9946 733.659 68.1521 732.618 68.1521Z" fill="black"/>
<path d="M743.096 68.1522C742.055 68.1522 741.057 67.9947 740.209 67.6797C738.415 67.0191 737.431 65.746 737.431 64.0923V56.0818C737.431 55.8412 737.627 55.6443 737.868 55.6443C738.109 55.6443 738.306 55.8412 738.306 56.0818V64.0923C738.306 65.7066 739.504 66.4853 740.515 66.8572C741.766 67.321 743.398 67.4041 744.99 67.0891C746.609 66.7697 747.983 66.0653 748.757 65.1597C748.915 64.976 749.19 64.9541 749.374 65.1116C749.558 65.2691 749.58 65.5447 749.422 65.7285C748.508 66.796 746.994 67.5878 745.161 67.9509C744.465 68.0866 743.77 68.1522 743.096 68.1522Z" fill="black"/>
</svg>
